<svg width="190" height="144" viewBox="0 0 190 144" fill="none" xmlns="http://www.w3.org/2000/svg">
<path d="M38.3169 49.5061C38.3169 49.5061 2.07056 48.3321 2.07056 67.6293C2.07056 89.4795 9.27255 130.422 38.3169 129.997C67.3613 129.571 72.6879 72.1601 72.9873 69.6071C73.011 69.5835 74.5239 51.1609 38.3169 49.5061Z" fill="#49D3D3"/>
<path d="M72.1439 64.6038C72.0999 64.6501 72.0495 64.6899 71.9942 64.722L71.5293 65.0294C71.1275 65.3051 70.5128 65.6755 69.717 66.1325C67.4311 67.3949 65.0366 68.4497 62.5623 69.2844C58.8922 70.5315 55.1071 71.4105 51.2629 71.9083C46.5596 72.5046 41.82 72.768 37.0795 72.6962C32.3423 72.7144 27.6075 72.4751 22.8962 71.9792C19.0301 71.561 15.2482 70.5677 11.6756 69.0322C9.27798 67.9773 7.05635 66.5609 5.0882 64.8324C4.41055 64.202 3.90626 63.6819 3.59107 63.3195L3.23648 62.894L3.11829 62.7443C3.11829 62.7443 3.17345 62.7836 3.268 62.8703L3.6541 63.2643C3.98504 63.611 4.5051 64.1074 5.23002 64.7063C7.21306 66.3833 9.43617 67.7538 11.8253 68.7722C15.3692 70.2661 19.112 71.235 22.9356 71.6482C27.6354 72.1181 32.3563 72.3469 37.0795 72.3338C41.8039 72.3892 46.5267 72.1259 51.2156 71.5458C55.0414 71.0661 58.8122 70.2191 62.4756 69.0165C64.9437 68.2005 67.3395 67.1805 69.6382 65.967C70.4262 65.5337 71.0723 65.1791 71.4899 64.9348L71.9706 64.6669C72.0261 64.6402 72.0842 64.6191 72.1439 64.6038Z" fill="#241A56"/>
<path d="M53.2252 97.2254L54.8957 89.7712H69.5361C69.016 91.9933 68.2911 94.5857 67.4559 97.3436L53.2252 97.2254Z" fill="#FAFAFA"/>
<path d="M20.4772 97.2254L18.8146 89.7712H4.16638C4.68644 91.9933 5.12769 94.5857 5.95505 97.3436L20.4772 97.2254Z" fill="#FAFAFA"/>
<path opacity="0.4" d="M71.1039 62.7754C67.5974 57.0548 58.3231 50.4359 38.3167 49.5061C38.3167 49.5061 15.8991 48.7812 6.32537 57.8506C5.41817 58.7805 4.60034 59.7935 3.88267 60.8764C3.29958 61.9559 11.3604 71.64 37.2687 70.8126C63.9964 69.9538 71.1039 62.7754 71.1039 62.7754Z" fill="black"/>
<path d="M1.44776 28.5936C0.16338 25.7175 -0.45911 22.4238 0.415531 19.398C1.29017 16.3723 3.89045 13.7326 7.03442 13.4568" fill="#241A56"/>
<path d="M5.98655 13.6382C5.98655 13.6933 5.45859 14.1188 4.71003 14.9777C3.7266 16.0832 2.90426 17.322 2.26736 18.6575C1.67062 20.0188 1.16006 21.4162 0.738705 22.8416C0.606896 23.4491 0.433124 24.0468 0.218646 24.6303C0.199335 24.0018 0.279099 23.3743 0.455025 22.7707C0.798668 21.3003 1.27879 19.8653 1.88913 18.4842C2.54198 17.1106 3.42397 15.8582 4.49729 14.7807C4.91235 14.3042 5.41876 13.9157 5.98655 13.6382Z" fill="#49D3D3"/>
<path d="M73.9013 28.5936C75.1857 25.7175 75.8082 22.4238 74.9335 19.398C74.0589 16.3723 71.4586 13.7326 68.3225 13.4568" fill="#241A56"/>
<path d="M69.3629 13.6382C69.9327 13.9125 70.4396 14.3014 70.8521 14.7807C71.9276 15.8564 72.8099 17.1092 73.4603 18.4842C74.0706 19.8653 74.5508 21.3003 74.8944 22.7707C75.0703 23.3743 75.1501 24.0018 75.1308 24.6303C74.9208 24.0453 74.7471 23.448 74.6107 22.8416C74.1926 21.4162 73.6846 20.0187 73.09 18.6575C72.4477 17.3232 71.623 16.0847 70.6394 14.9777C69.8908 14.1267 69.3235 13.6933 69.3629 13.6382Z" fill="#49D3D3"/>
<path d="M4.35558 42.8716C2.6119 41.091 1.33103 38.9103 0.624989 36.5202C-0.0810539 34.1301 -0.190783 31.6034 0.305432 29.1611C2.40142 18.6024 10.0841 -0.403345 38.3168 0.0063964C67.9364 0.424017 73.4994 20.9268 74.4529 30.8C74.652 32.8205 74.4496 34.8604 73.8573 36.8023C73.265 38.7442 72.2944 40.5498 71.0016 42.1152C66.5968 47.434 57.2437 54.305 38.3168 54.2971C19.5712 54.3129 9.4931 48.0564 4.35558 42.8716Z" fill="#49D3D3"/>
<path d="M25.1183 1.24329C25.1898 1.35312 25.2455 1.4725 25.2838 1.59788L25.6935 2.63799C26.0481 3.53627 26.5445 4.84429 27.3167 6.38082C28.1912 8.18876 29.3905 9.82066 30.8547 11.1953C32.6262 12.9012 34.9906 13.8531 37.4499 13.8507C39.9014 13.7038 42.2348 12.7477 44.0846 11.1322C45.5909 9.80289 46.8547 8.22182 47.8195 6.45962C48.4828 5.27187 49.0748 4.04573 49.5925 2.7877C49.7681 2.31683 49.9707 1.85642 50.1992 1.40876C50.1897 1.53935 50.1577 1.66731 50.1046 1.78698C50.0258 2.03125 49.9076 2.39371 49.7422 2.84285C49.2763 4.13419 48.718 5.3903 48.0717 6.60144C47.1256 8.41945 45.8574 10.0507 44.3289 11.4159C42.4254 13.1127 40.0036 14.1153 37.4578 14.2605C36.138 14.2929 34.8281 14.0234 33.6283 13.4725C32.5191 12.9681 31.4977 12.2898 30.6025 11.4632C29.1149 10.0466 27.9114 8.35906 27.0567 6.49113C26.4727 5.25293 25.9674 3.97916 25.5438 2.67739C25.3862 2.21511 25.2759 1.86053 25.2128 1.61363C25.1698 1.49343 25.1381 1.36943 25.1183 1.24329Z" fill="#241A56"/>
<path d="M57.0228 41.7055C43.2807 45.0622 29.8696 45.1883 16.8366 41.8473C14.4505 41.2265 12.3386 39.8297 10.8335 37.8767C9.32852 35.9238 8.51589 33.5257 8.52361 31.0601V30.871C8.52361 29.4057 8.8122 27.9548 9.37292 26.6011C9.93364 25.2474 10.7555 24.0174 11.7916 22.9814C12.8277 21.9453 14.0577 21.1234 15.4114 20.5627C16.765 20.002 18.2159 19.7134 19.6812 19.7134H54.3516C55.8168 19.7134 57.2677 20.002 58.6214 20.5627C59.9751 21.1234 61.2051 21.9453 62.2412 22.9814C63.2773 24.0174 64.0991 25.2474 64.6599 26.6011C65.2206 27.9548 65.5092 29.4057 65.5092 30.871C65.5109 33.366 64.6756 35.7896 63.1371 37.7538C61.5986 39.718 59.4456 41.1095 57.0228 41.7055Z" fill="#241A56"/>
<path d="M26.7497 32.9906C26.6704 33.4842 26.4467 33.9432 26.1067 34.3097C25.7666 34.6762 25.3256 34.9337 24.8394 35.0497C24.3531 35.1658 23.8433 35.1351 23.3745 34.9615C22.9056 34.788 22.4987 34.4795 22.2051 34.0748C21.9115 33.6702 21.7444 33.1876 21.7249 32.688C21.7055 32.1885 21.8344 31.6944 22.0956 31.2681C22.3568 30.8418 22.7384 30.5025 23.1923 30.2929C23.6462 30.0834 24.152 30.0131 24.6459 30.0909C24.9746 30.1426 25.29 30.2588 25.5738 30.4326C25.8575 30.6065 26.1042 30.8347 26.2996 31.104C26.4951 31.3734 26.6355 31.6787 26.7127 32.0025C26.7899 32.3262 26.8025 32.662 26.7497 32.9906Z" fill="white"/>
<path d="M55.731 31.525C55.6514 32.0188 55.4272 32.478 55.0867 32.8444C54.7462 33.2108 54.3047 33.4681 53.818 33.5836C53.3313 33.6991 52.8213 33.6678 52.3525 33.4935C51.8836 33.3192 51.477 33.0098 51.1839 32.6044C50.8909 32.199 50.7246 31.7158 50.7062 31.2159C50.6877 30.7161 50.8179 30.2219 51.0803 29.796C51.3426 29.3702 51.7254 29.0316 52.1801 28.8232C52.6348 28.6148 53.1411 28.5459 53.635 28.6253C53.9631 28.678 54.2775 28.7948 54.5604 28.9691C54.8433 29.1433 55.0891 29.3716 55.2838 29.6409C55.4784 29.9102 55.6181 30.2152 55.6948 30.5385C55.7715 30.8617 55.7838 31.197 55.731 31.525Z" fill="white"/>
<path d="M44.6049 31.8483C44.718 32.6001 44.5854 33.3684 44.2267 34.0388C43.89 34.7933 43.3797 35.4575 42.7374 35.9772C41.9564 36.6046 41.0025 36.9785 40.0032 37.0488C39.0129 37.1277 38.0223 36.8993 37.1665 36.3948C36.473 35.9722 35.8918 35.3883 35.4724 34.6928C35.0361 34.0746 34.8172 33.3291 34.8499 32.5732C35.0904 33.2376 35.3966 33.8764 35.7639 34.4801C36.1903 35.0914 36.7475 35.6002 37.395 35.9693C38.1801 36.4053 39.0764 36.5999 39.9716 36.5288C40.8742 36.4668 41.7394 36.1438 42.4616 35.599C43.0613 35.1357 43.5555 34.5501 43.9115 33.8812C44.2019 33.2253 44.434 32.545 44.6049 31.8483Z" fill="white"/>
<path fill-rule="evenodd" clip-rule="evenodd" d="M119.75 37.79C120.005 40.5465 119.888 43.3249 119.4 46.05L125.46 50.75L120.11 62.25L112.61 60.63C110.836 62.7611 108.785 64.6445 106.51 66.23L107.51 73.83L95.58 78.18L91.44 71.74C88.6796 71.9868 85.8985 71.8657 83.17 71.38L78.44 77.44L66.93 72.08L68.55 64.58C66.4224 62.8094 64.5422 60.7611 62.96 58.49L55.35 59.49L51 47.57L57.44 43.44C57.1847 40.6835 57.3024 37.9051 57.79 35.18L51.75 30.44L57.1 18.94L64.6 20.56C66.3712 18.4265 68.4232 16.5427 70.7 14.96L69.7 7.35L81.63 3L85.8 9.44C88.5604 9.19322 91.3414 9.31428 94.07 9.8L98.76 3.73L110.27 9.09L108.65 16.58C110.775 18.3566 112.655 20.4079 114.24 22.68L121.85 21.68L126.2 33.6L119.75 37.76V37.79ZM101.59 36.44C100.665 33.9147 99.0123 31.72 96.8409 30.1332C94.6696 28.5463 92.0767 27.6383 89.3896 27.5239C86.7026 27.4094 84.042 28.0937 81.7435 29.4902C79.4451 30.8867 77.6119 32.9328 76.4754 35.3703C75.3389 37.8079 74.9501 40.5275 75.358 43.1858C75.7659 45.8441 76.9522 48.322 78.7673 50.3066C80.5823 52.2912 82.9447 53.6936 85.5561 54.3367C88.1675 54.9798 90.9109 54.8348 93.44 53.92C95.1259 53.3116 96.6749 52.3759 97.998 51.1668C99.321 49.9577 100.392 48.499 101.149 46.8745C101.907 45.2501 102.336 43.492 102.411 41.7012C102.487 39.9105 102.208 38.1225 101.59 36.44Z" fill="#49D3D3" fill-opacity="0.18"/>
<path fill-rule="evenodd" clip-rule="evenodd" d="M184.15 77.6702C184.353 79.8561 184.259 82.0595 183.87 84.2202L188.68 87.9402L184.44 97.0602L178.5 95.7702C177.093 97.4565 175.469 98.9495 173.67 100.21L174.44 106.21L164.99 109.66L161.7 104.55C159.514 104.748 157.311 104.654 155.15 104.27L151.43 109.07L142.32 104.83L143.6 98.8902C141.914 97.4852 140.424 95.8608 139.17 94.0602L133.17 94.8302L129.69 85.4402L134.8 82.1402C134.602 79.9574 134.696 77.758 135.08 75.6002L130.28 71.8802L134.52 62.7602L140.46 64.0502C141.865 62.3612 143.489 60.868 145.29 59.6102L144.52 53.6102L153.97 50.1602L157.26 55.2702C159.446 55.0722 161.649 55.1663 163.81 55.5502L167.53 50.7402L176.64 54.9902L175.36 60.9302C177.045 62.3353 178.535 63.9597 179.79 65.7602L185.79 64.9902L189.23 74.4302L184.12 77.7202L184.15 77.6702ZM169.77 76.6702C169.049 74.658 167.746 72.9053 166.027 71.6345C164.309 70.3638 162.251 69.6321 160.116 69.5324C157.981 69.4328 155.864 69.9695 154.034 71.0746C152.205 72.1797 150.744 73.8034 149.839 75.7396C148.933 77.6759 148.623 79.8374 148.948 81.9501C149.273 84.0629 150.218 86.0315 151.663 87.6064C153.108 89.1812 154.989 90.2913 157.066 90.7959C159.143 91.3004 161.323 91.1766 163.33 90.4402C166.014 89.4617 168.201 87.4575 169.408 84.868C170.616 82.2785 170.746 79.3155 169.77 76.6302V76.6702Z" fill="#49D3D3"/>
<path fill-rule="evenodd" clip-rule="evenodd" d="M119.12 116.44C119.286 118.299 119.206 120.172 118.88 122.01L122.96 125.17L119.36 132.93L114.36 131.83C113.163 133.263 111.781 134.531 110.25 135.6L110.9 140.73L102.9 143.66L100.1 139.32C98.2406 139.488 96.3671 139.404 94.5302 139.07L91.3701 143.16L83.6201 139.55L84.7101 134.55C83.2774 133.356 82.0096 131.977 80.9401 130.45L75.8201 131.1L72.8901 123.1L77.2301 120.3C77.0639 118.441 77.1446 116.568 77.4702 114.73L73.3801 111.57L76.9901 103.82L81.9901 104.91C83.1871 103.477 84.5692 102.209 86.1001 101.14L85.4501 96.0199L93.4501 93.0898L96.2501 97.4299C98.1092 97.2636 99.9822 97.3443 101.82 97.6698L104.98 93.5798L112.73 97.1898L111.64 102.24C113.073 103.437 114.341 104.819 115.41 106.35L120.53 105.69L123.46 113.69L119.12 116.44ZM106.88 115.55C106.251 113.85 105.132 112.374 103.665 111.31C102.198 110.245 100.448 109.639 98.6371 109.569C96.8258 109.498 95.0342 109.966 93.4886 110.913C91.9431 111.86 90.7129 113.244 89.9534 114.89C89.194 116.536 88.9394 118.37 89.2218 120.16C89.5042 121.951 90.311 123.618 91.5402 124.95C92.7693 126.282 94.3657 127.22 96.1278 127.646C97.8899 128.071 99.7385 127.965 101.44 127.34C103.72 126.5 105.573 124.79 106.593 122.585C107.613 120.38 107.716 117.861 106.88 115.58V115.55Z" fill="#49D3D3" fill-opacity="0.18"/>
</svg>
