<svg width="185" height="33" viewBox="0 0 185 33" fill="none" xmlns="http://www.w3.org/2000/svg">
<path d="M184.322 29.3968C184.845 29.219 185.125 28.6509 184.947 28.1281L182.049 19.6072C181.871 19.0844 181.303 18.8046 180.781 18.9824C180.258 19.1602 179.978 19.7283 180.156 20.2511L182.731 27.8252L175.157 30.4008C174.634 30.5786 174.355 31.1466 174.532 31.6695C174.71 32.1923 175.278 32.4721 175.801 32.2943L184.322 29.3968ZM1 28.45L1.47068 29.3323C1.77053 29.1724 2.06983 29.0131 2.36858 28.8545L1.89976 27.9712L1.43095 27.0879C1.13094 27.2472 0.8304 27.4071 0.529318 27.5677L1 28.45ZM3.68958 27.0262L4.15456 27.9115C4.74773 27.6 5.33876 27.2913 5.92768 26.9853L5.46668 26.0979L5.00568 25.2105C4.41406 25.5179 3.82038 25.828 3.22461 26.1409L3.68958 27.0262ZM7.23132 25.1863L7.6882 26.0759C8.29188 25.7658 8.89336 25.4587 9.4927 25.1546L9.04022 24.2629L8.58774 23.3711C7.98542 23.6767 7.381 23.9853 6.77444 24.2968L7.23132 25.1863ZM10.8387 23.3561L11.2866 24.2501C11.8825 23.9516 12.4762 23.6561 13.0679 23.3636L12.6247 22.4672L12.1815 21.5707C11.5866 21.8648 10.9897 22.1619 10.3908 22.462L10.8387 23.3561ZM14.4298 21.581L14.868 22.4798C15.4749 22.184 16.0796 21.8913 16.6823 21.6018L16.2493 20.7004L15.8164 19.799C15.2101 20.0902 14.6019 20.3845 13.9916 20.6821L14.4298 21.581ZM18.0565 19.839L18.4841 20.743C19.0868 20.4579 19.6875 20.1761 20.2862 19.8975L19.8643 18.9908L19.4424 18.0842C18.8399 18.3646 18.2354 18.6482 17.629 18.935L18.0565 19.839ZM21.7045 18.1418L22.1204 19.0512C22.7297 18.7725 23.337 18.4973 23.9423 18.2254L23.5325 17.3132L23.1228 16.401C22.5133 16.6747 21.9019 16.9519 21.2886 17.2324L21.7045 18.1418ZM25.3493 16.5048L25.7526 17.4198C26.3725 17.1466 26.9903 16.877 27.606 16.611L27.2095 15.693L26.813 14.775C26.1926 15.0429 25.5703 15.3145 24.9459 15.5897L25.3493 16.5048ZM29.058 14.9029L29.4475 15.824C30.0593 15.5652 30.6692 15.3101 31.2773 15.0586L30.8951 14.1346L30.5129 13.2105C29.8999 13.464 29.2851 13.7211 28.6685 13.9819L29.058 14.9029ZM32.7689 13.3686L33.1434 14.2958C33.7654 14.0446 34.3856 13.7972 35.0038 13.5537L34.6373 12.6233L34.2708 11.6929C33.6472 11.9385 33.0217 12.188 32.3944 12.4414L32.7689 13.3686ZM36.4948 11.901L36.8531 12.8346C37.4825 12.5931 38.11 12.3556 38.7357 12.1222L38.3862 11.1853L38.0366 10.2484C37.405 10.484 36.7717 10.7237 36.1366 10.9674L36.4948 11.901ZM40.2739 10.4912L40.6144 11.4315C41.2389 11.2053 41.8616 10.9832 42.4827 10.7651L42.1514 9.82159L41.8202 8.87805C41.1928 9.09831 40.5639 9.32263 39.9333 9.55101L40.2739 10.4912ZM44.0635 9.16131L44.385 10.1082C45.0187 9.89308 45.6507 9.68222 46.2812 9.47563L45.9698 8.52535L45.6584 7.57507C45.0211 7.78389 44.3824 7.997 43.7421 8.21439L44.0635 9.16131ZM47.869 7.91439L48.17 8.86801C48.8121 8.66533 49.4527 8.46713 50.0918 8.27341L49.8017 7.31641L49.5116 6.35942C48.8651 6.55537 48.2173 6.75582 47.568 6.96077L47.869 7.91439ZM51.7257 6.74538L52.0046 7.7057C52.644 7.52 53.282 7.33883 53.9187 7.16219L53.6514 6.19859L53.384 5.23499C52.7395 5.41379 52.0938 5.59715 51.4468 5.78505L51.7257 6.74538ZM55.5996 5.67107L55.8549 6.63793C56.499 6.46785 57.1418 6.30245 57.7835 6.14171L57.5405 5.17169L57.2975 4.20166C56.6475 4.36447 55.9965 4.53199 55.3443 4.70421L55.5996 5.67107ZM59.4919 4.69635L59.7221 5.66947C60.373 5.51544 61.0228 5.36625 61.6716 5.22191L61.4544 4.24577L61.2373 3.26964C60.5797 3.41595 59.9211 3.56715 59.2616 3.72322L59.4919 4.69635ZM63.4112 3.8244L63.615 4.80341C64.2695 4.66716 64.923 4.53587 65.5758 4.40955L65.3857 3.42776L65.1957 2.44598C64.5337 2.5741 63.871 2.70724 63.2074 2.84539L63.4112 3.8244ZM67.3614 3.06001L67.5373 4.04441C68.1914 3.92751 68.8448 3.81561 69.4976 3.70873L69.336 2.72187L69.1744 1.73501C68.512 1.84348 67.8491 1.95701 67.1855 2.07561L67.3614 3.06001ZM71.3263 2.41108L71.4732 3.40023C72.1312 3.30251 72.7887 3.2099 73.4457 3.1224L73.3137 2.13115L73.1817 1.1399C72.5146 1.22874 71.8473 1.32275 71.1794 1.42193L71.3263 2.41108ZM75.3065 1.88117L75.4234 2.87431C76.0847 2.79647 76.7458 2.72382 77.4067 2.65637L77.3051 1.66154L77.2036 0.666706C76.5324 0.735209 75.8612 0.808982 75.1896 0.888021L75.3065 1.88117ZM79.3026 1.4733L79.3887 2.46959C80.0516 2.41232 80.7144 2.36028 81.3772 2.31348L81.3068 1.31597L81.2364 0.318449C80.5631 0.365988 79.8898 0.418844 79.2165 0.477013L79.3026 1.4733ZM83.312 1.19024L83.3667 2.18875C84.0299 2.15241 84.6933 2.12131 85.357 2.09546L85.318 1.09622L85.2791 0.0969743C84.605 0.123235 83.931 0.154825 83.2573 0.19174L83.312 1.19024ZM87.3258 1.03391L87.3489 2.03364C88.0132 2.01828 88.6779 2.00817 89.343 2.00332L89.3357 1.00335L89.3284 0.00337183C88.6527 0.00830442 87.9775 0.0185729 87.3027 0.0341744L87.3258 1.03391ZM91.343 1.0045L91.3346 2.00447C91.9983 2.01007 92.6625 2.02089 93.3275 2.03694L93.3516 1.03723L93.3757 0.0375172C92.7003 0.0212241 92.0256 0.0102324 91.3515 0.00453961L91.343 1.0045ZM95.3628 1.10146L95.3231 2.10067C95.9845 2.12695 96.6467 2.15837 97.3098 2.19495L97.3649 1.19647L97.42 0.197984C96.7467 0.160846 96.0742 0.128934 95.4025 0.102246L95.3628 1.10146ZM99.3723 1.3226L99.302 2.32013C99.9635 2.36676 100.626 2.4185 101.29 2.47533L101.375 1.47898L101.46 0.482629C100.787 0.424938 100.114 0.372422 99.4426 0.325079L99.3723 1.3226ZM103.372 1.66498L103.272 2.65996C103.934 2.72655 104.597 2.79818 105.262 2.87487L105.376 1.88147L105.491 0.888061C104.817 0.81026 104.144 0.737575 103.472 0.670003L103.372 1.66498ZM107.364 2.12534L107.235 3.11701C107.893 3.20241 108.551 3.29273 109.211 3.38796L109.354 2.3982L109.497 1.40844C108.828 1.31189 108.16 1.2203 107.493 1.13368L107.364 2.12534ZM111.349 2.70006L111.193 3.68775C111.844 3.79091 112.497 3.89882 113.151 4.01147L113.321 3.02597L113.49 2.04046C112.827 1.92631 112.166 1.81694 111.505 1.71237L111.349 2.70006ZM115.302 3.3805L115.12 4.36369C115.772 4.48491 116.427 4.61081 117.083 4.7414L117.278 3.76063L117.473 2.77987C116.809 2.64763 116.146 2.52011 115.485 2.39731L115.302 3.3805ZM119.238 4.16338L119.031 5.14165C119.682 5.27963 120.334 5.42217 120.989 5.56929L121.208 4.59362L121.428 3.61795C120.765 3.46907 120.104 3.32479 119.445 3.18511L119.238 4.16338ZM123.164 5.04513L122.933 6.01816C123.576 6.17063 124.221 6.32747 124.868 6.48867L125.11 5.51834L125.351 4.54801C124.697 4.38499 124.045 4.22636 123.394 4.07211L123.164 5.04513ZM127.067 6.0178L126.815 6.98537C127.454 7.15228 128.096 7.3234 128.739 7.49875L129.002 6.53393L129.265 5.56911C128.615 5.39192 127.966 5.21895 127.32 5.05022L127.067 6.0178ZM130.933 7.07092L130.66 8.03296C131.302 8.21518 131.946 8.40155 132.593 8.59209L132.876 7.63286L133.158 6.67364C132.505 6.48122 131.854 6.29297 131.206 6.10888L130.933 7.07092ZM134.791 8.2074L134.499 9.16385C135.132 9.357 135.767 9.55409 136.404 9.75512L136.705 8.80145L137.006 7.84779C136.363 7.64491 135.722 7.44597 135.083 7.25096L134.791 8.2074ZM138.632 9.41912L138.322 10.37C138.951 10.5745 139.581 10.7828 140.213 10.9949L140.531 10.0467L140.849 9.09859C140.211 8.8847 139.575 8.67459 138.942 8.46825L138.632 9.41912ZM142.427 10.6912L142.101 11.6367C142.733 11.8543 143.367 12.0757 144.003 12.3007L144.336 11.358L144.67 10.4153C144.029 10.1884 143.39 9.96526 142.753 9.74581L142.427 10.6912ZM146.224 12.0344L145.883 12.9745C146.504 13.1996 147.127 13.4283 147.752 13.6605L148.101 12.723L148.449 11.7855C147.818 11.5516 147.191 11.3212 146.565 11.0943L146.224 12.0344ZM149.991 13.4326L149.636 14.3675C150.258 14.6039 150.883 14.8437 151.511 15.0869L151.872 14.1545L152.234 13.2221C151.602 12.9772 150.973 12.7357 150.345 12.4977L149.991 13.4326ZM153.728 14.8813L153.361 15.8112C153.979 16.0559 154.601 16.304 155.224 16.5552L155.598 15.6277L155.972 14.7002C155.344 14.4473 154.719 14.1977 154.096 13.9513L153.728 14.8813ZM157.48 16.393L157.1 17.3181C157.708 17.5675 158.317 17.8198 158.93 18.0753L159.315 17.1524L159.7 16.2296C159.084 15.9726 158.471 15.7187 157.859 15.4679L157.48 16.393ZM161.163 17.9302L160.773 18.8509C161.389 19.1124 162.009 19.3771 162.63 19.6449L163.026 18.7265L163.421 17.8081C162.796 17.5389 162.174 17.2727 161.554 17.0096L161.163 17.9302ZM164.865 19.5247L164.464 20.441C165.069 20.7055 165.677 20.9729 166.286 21.2431L166.691 20.3289L167.097 19.4147C166.484 19.1431 165.874 18.8744 165.265 18.6085L164.865 19.5247ZM168.532 21.1503L168.122 22.0625C168.736 22.3383 169.352 22.6169 169.97 22.8985L170.385 21.9883L170.799 21.0782C170.177 20.7953 169.558 20.5153 168.941 20.2382L168.532 21.1503ZM172.189 22.8143L171.77 23.7226C172.372 24 172.977 24.2801 173.584 24.5628L174.006 23.6564L174.428 22.75C173.819 22.466 173.212 22.1847 172.607 21.9061L172.189 22.8143ZM175.837 24.5146L175.411 25.4192C176.015 25.704 176.622 25.9915 177.231 26.2815L177.661 25.3787L178.091 24.4759C177.48 24.1846 176.87 23.896 176.263 23.61L175.837 24.5146ZM179.455 26.2375L179.022 27.1387C179.621 27.4269 180.222 27.7176 180.826 28.0108L181.263 27.1113L181.7 26.2117C181.094 25.9175 180.49 25.6257 179.889 25.3363L179.455 26.2375ZM183.084 28L182.644 28.8979C182.948 29.047 183.253 29.1968 183.558 29.3471L184 28.45L184.442 27.5529C184.135 27.402 183.83 27.2517 183.524 27.1021L183.084 28Z" fill="#49D3D3"/>
</svg>
