<svg width="185" height="33" viewBox="0 0 185 33" fill="none" xmlns="http://www.w3.org/2000/svg">
<path d="M184.322 3.05343C184.845 3.23123 185.125 3.79925 184.947 4.32213L182.049 12.843C181.871 13.3658 181.303 13.6456 180.781 13.4678C180.258 13.29 179.978 12.7219 180.156 12.1991L182.731 4.625L175.157 2.04943C174.634 1.87163 174.355 1.30361 174.532 0.780731C174.71 0.257851 175.278 -0.0218868 175.801 0.155918L184.322 3.05343ZM1 4.00019L1.47068 3.11788C1.77053 3.27784 2.06983 3.43711 2.36858 3.59567L1.89976 4.47897L1.43095 5.36226C1.13094 5.20303 0.8304 5.04311 0.529318 4.88249L1 4.00019ZM3.68958 5.42399L4.15456 4.53866C4.74773 4.8502 5.33876 5.15894 5.92768 5.46488L5.46668 6.35229L5.00568 7.23969C4.41406 6.93234 3.82038 6.62221 3.22461 6.30931L3.68958 5.42399ZM7.23132 7.26385L7.6882 6.37433C8.29188 6.68439 8.89336 6.99147 9.4927 7.29556L9.04022 8.18734L8.58774 9.07911C7.98542 8.7735 7.381 8.46492 6.77444 8.15338L7.23132 7.26385ZM10.8387 9.09413L11.2866 8.20006C11.8825 8.49856 12.4762 8.79408 13.0679 9.0866L12.6247 9.98303L12.1815 10.8795C11.5866 10.5854 10.9897 10.2883 10.3908 9.98821L10.8387 9.09413ZM14.4298 10.8692L14.868 9.97036C15.4749 10.2662 16.0796 10.5589 16.6823 10.8484L16.2493 11.7498L15.8164 12.6512C15.2101 12.36 14.6019 12.0657 13.9916 11.7681L14.4298 10.8692ZM18.0565 12.6112L18.4841 11.7072C19.0868 11.9923 19.6875 12.2741 20.2862 12.5527L19.8643 13.4594L19.4424 14.366C18.8399 14.0856 18.2354 13.802 17.629 13.5152L18.0565 12.6112ZM21.7045 14.3084L22.1204 13.399C22.7297 13.6777 23.337 13.9529 23.9423 14.2248L23.5325 15.137L23.1228 16.0492C22.5133 15.7754 21.9019 15.4983 21.2886 15.2178L21.7045 14.3084ZM25.3493 15.9454L25.7526 15.0304C26.3725 15.3036 26.9903 15.5732 27.606 15.8392L27.2095 16.7572L26.813 17.6752C26.1926 17.4073 25.5703 17.1357 24.9459 16.8605L25.3493 15.9454ZM29.058 17.5473L29.4475 16.6262C30.0593 16.885 30.6692 17.1401 31.2773 17.3915L30.8951 18.3156L30.5129 19.2397C29.8999 18.9862 29.2851 18.7291 28.6685 18.4683L29.058 17.5473ZM32.7689 19.0816L33.1434 18.1544C33.7654 18.4056 34.3856 18.653 35.0038 18.8965L34.6373 19.8269L34.2708 20.7573C33.6472 20.5117 33.0217 20.2622 32.3944 20.0088L32.7689 19.0816ZM36.4948 20.5492L36.8531 19.6156C37.4825 19.8571 38.11 20.0946 38.7357 20.328L38.3862 21.2649L38.0366 22.2018C37.405 21.9662 36.7717 21.7265 36.1366 21.4828L36.4948 20.5492ZM40.2739 21.959L40.6144 21.0187C41.2389 21.2449 41.8616 21.467 42.4827 21.6851L42.1514 22.6286L41.8202 23.5721C41.1928 23.3519 40.5639 23.1276 39.9333 22.8992L40.2739 21.959ZM44.0635 23.2889L44.385 22.342C45.0187 22.5571 45.6507 22.768 46.2812 22.9746L45.9698 23.9248L45.6584 24.8751C45.0211 24.6663 44.3824 24.4532 43.7421 24.2358L44.0635 23.2889ZM47.869 24.5358L48.17 23.5822C48.8121 23.7849 49.4527 23.9831 50.0918 24.1768L49.8017 25.1338L49.5116 26.0908C48.8651 25.8948 48.2173 25.6944 47.568 25.4894L47.869 24.5358ZM51.7257 25.7048L52.0046 24.7445C52.644 24.9302 53.282 25.1114 53.9187 25.288L53.6514 26.2516L53.384 27.2152C52.7395 27.0364 52.0938 26.853 51.4468 26.6651L51.7257 25.7048ZM55.5996 26.7791L55.8549 25.8123C56.499 25.9823 57.1418 26.1477 57.7835 26.3085L57.5405 27.2785L57.2975 28.2485C56.6475 28.0857 55.9965 27.9182 55.3443 27.746L55.5996 26.7791ZM59.4919 27.7538L59.7221 26.7807C60.373 26.9348 61.0228 27.0839 61.6716 27.2283L61.4544 28.2044L61.2373 29.1806C60.5797 29.0342 59.9211 28.883 59.2616 28.727L59.4919 27.7538ZM63.4112 28.6258L63.615 27.6468C64.2695 27.783 64.923 27.9143 65.5758 28.0406L65.3857 29.0224L65.1957 30.0042C64.5337 29.8761 63.871 29.743 63.2074 29.6048L63.4112 28.6258ZM67.3614 29.3902L67.5373 28.4058C68.1914 28.5227 68.8448 28.6346 69.4976 28.7415L69.336 29.7283L69.1744 30.7152C68.512 30.6067 67.8491 30.4932 67.1855 30.3746L67.3614 29.3902ZM71.3263 30.0391L71.4732 29.05C72.1312 29.1477 72.7887 29.2403 73.4457 29.3278L73.3137 30.319L73.1817 31.3103C72.5146 31.2215 71.8473 31.1274 71.1794 31.0283L71.3263 30.0391ZM75.3065 30.569L75.4234 29.5759C76.0847 29.6537 76.7458 29.7264 77.4067 29.7938L77.3051 30.7887L77.2036 31.7835C76.5324 31.715 75.8612 31.6412 75.1896 31.5622L75.3065 30.569ZM79.3026 30.9769L79.3887 29.9806C80.0516 30.0379 80.7144 30.0899 81.3772 30.1367L81.3068 31.1342L81.2364 32.1317C80.5631 32.0842 79.8898 32.0314 79.2165 31.9732L79.3026 30.9769ZM83.312 31.26L83.3667 30.2615C84.0299 30.2978 84.6933 30.3289 85.357 30.3547L85.318 31.354L85.2791 32.3532C84.605 32.327 83.931 32.2954 83.2573 32.2585L83.312 31.26ZM87.3258 31.4163L87.3489 30.4166C88.0132 30.4319 88.6779 30.442 89.343 30.4469L89.3357 31.4469L89.3284 32.4468C88.6527 32.4419 87.9775 32.4316 87.3027 32.416L87.3258 31.4163ZM91.343 31.4457L91.3346 30.4457C91.9983 30.4401 92.6625 30.4293 93.3275 30.4133L93.3516 31.413L93.3757 32.4127C92.7003 32.429 92.0256 32.44 91.3515 32.4457L91.343 31.4457ZM95.3628 31.3487L95.3231 30.3495C95.9845 30.3232 96.6467 30.2918 97.3098 30.2552L97.3649 31.2537L97.42 32.2522C96.7467 32.2893 96.0742 32.3213 95.4025 32.3479L95.3628 31.3487ZM99.3723 31.1276L99.302 30.1301C99.9635 30.0834 100.626 30.0317 101.29 29.9749L101.375 30.9712L101.46 31.9676C100.787 32.0253 100.114 32.0778 99.4426 32.1251L99.3723 31.1276ZM103.372 30.7852L103.272 29.7902C103.934 29.7236 104.597 29.652 105.262 29.5753L105.376 30.5687L105.491 31.5621C104.817 31.6399 104.144 31.7126 103.472 31.7802L103.372 30.7852ZM107.364 30.3249L107.235 29.3332C107.893 29.2478 108.551 29.1575 109.211 29.0622L109.354 30.052L109.497 31.0418C108.828 31.1383 108.16 31.2299 107.493 31.3165L107.364 30.3249ZM111.349 29.7501L111.193 28.7624C111.844 28.6593 112.497 28.5514 113.151 28.4387L113.321 29.4242L113.49 30.4097C112.827 30.5239 112.166 30.6333 111.505 30.7378L111.349 29.7501ZM115.302 29.0697L115.12 28.0865C115.772 27.9653 116.427 27.8394 117.083 27.7088L117.278 28.6896L117.473 29.6703C116.809 29.8026 116.146 29.9301 115.485 30.0529L115.302 29.0697ZM119.238 28.2868L119.031 27.3085C119.682 27.1706 120.334 27.028 120.989 26.8809L121.208 27.8566L121.428 28.8322C120.765 28.9811 120.104 29.1254 119.445 29.2651L119.238 28.2868ZM123.164 27.4051L122.933 26.432C123.576 26.2796 124.221 26.1227 124.868 25.9615L125.11 26.9319L125.351 27.9022C124.697 28.0652 124.045 28.2238 123.394 28.3781L123.164 27.4051ZM127.067 26.4324L126.815 25.4648C127.454 25.2979 128.096 25.1268 128.739 24.9514L129.002 25.9163L129.265 26.8811C128.615 27.0583 127.966 27.2312 127.32 27.4L127.067 26.4324ZM130.933 25.3793L130.66 24.4172C131.302 24.235 131.946 24.0486 132.593 23.8581L132.876 24.8173L133.158 25.7766C132.505 25.969 131.854 26.1572 131.206 26.3413L130.933 25.3793ZM134.791 24.2428L134.499 23.2863C135.132 23.0932 135.767 22.8961 136.404 22.6951L136.705 23.6487L137.006 24.6024C136.363 24.8053 135.722 25.0042 135.083 25.1992L134.791 24.2428ZM138.632 23.0311L138.322 22.0802C138.951 21.8757 139.581 21.6674 140.213 21.4553L140.531 22.4035L140.849 23.3516C140.211 23.5655 139.575 23.7756 138.942 23.9819L138.632 23.0311ZM142.427 21.759L142.101 20.8135C142.733 20.5959 143.367 20.3745 144.003 20.1495L144.336 21.0922L144.67 22.0349C144.029 22.2618 143.39 22.4849 142.753 22.7044L142.427 21.759ZM146.224 20.4158L145.883 19.4757C146.504 19.2505 147.127 19.0219 147.752 18.7897L148.101 19.7272L148.449 20.6647C147.818 20.8986 147.191 21.129 146.565 21.3559L146.224 20.4158ZM149.991 19.0176L149.636 18.0827C150.258 17.8463 150.883 17.6065 151.511 17.3633L151.872 18.2957L152.234 19.2281C151.602 19.473 150.973 19.7145 150.345 19.9525L149.991 19.0176ZM153.728 17.5689L153.361 16.639C153.979 16.3943 154.601 16.1462 155.224 15.895L155.598 16.8225L155.972 17.75C155.344 18.0029 154.719 18.2525 154.096 18.4989L153.728 17.5689ZM157.48 16.0572L157.1 15.132C157.708 14.8827 158.317 14.6304 158.93 14.3749L159.315 15.2978L159.7 16.2206C159.084 16.4776 158.471 16.7315 157.859 16.9823L157.48 16.0572ZM161.163 14.5199L160.773 13.5993C161.389 13.3377 162.009 13.0731 162.63 12.8053L163.026 13.7237L163.421 14.6421C162.796 14.9113 162.174 15.1775 161.554 15.4406L161.163 14.5199ZM164.865 12.9254L164.464 12.0092C165.069 11.7447 165.677 11.4773 166.286 11.2071L166.691 12.1213L167.097 13.0355C166.484 13.3071 165.874 13.5758 165.265 13.8417L164.865 12.9254ZM168.532 11.2999L168.122 10.3877C168.736 10.1119 169.352 9.83326 169.97 9.55172L170.385 10.4619L170.799 11.372C170.177 11.6549 169.558 11.9349 168.941 12.212L168.532 11.2999ZM172.189 9.63586L171.77 8.72759C172.372 8.4502 172.977 8.17012 173.584 7.88736L174.006 8.79378L174.428 9.7002C173.819 9.98418 173.212 10.2655 172.607 10.5441L172.189 9.63586ZM175.837 7.93564L175.411 7.03104C176.015 6.7462 176.622 6.45873 177.231 6.16865L177.661 7.07149L178.091 7.97432C177.48 8.26557 176.87 8.55421 176.263 8.84023L175.837 7.93564ZM179.455 6.2127L179.022 5.31154C179.621 5.02334 180.222 4.73264 180.826 4.43943L181.263 5.33894L181.7 6.23845C181.094 6.53274 180.49 6.82454 179.889 7.11385L179.455 6.2127ZM183.084 4.45019L182.644 3.55229C182.948 3.40318 183.253 3.25344 183.558 3.10308L184 4.00019L184.442 4.8973C184.135 5.04818 183.83 5.19845 183.524 5.34809L183.084 4.45019Z" fill="#49D3D3"/>
</svg>
