<svg width="161" height="130" viewBox="0 0 161 130" fill="none" xmlns="http://www.w3.org/2000/svg">
<path d="M160.038 32.1592C160.038 26.6363 155.56 22.1592 150.038 22.1592H36.6729C31.15 22.1592 26.6729 26.6363 26.6729 32.1592V96.86C26.6729 102.383 31.15 106.86 36.6729 106.86H124.064C146.623 109.535 153.65 120.42 160.038 130V106.86V32.1592Z" fill="#49D3D3"/>
<path d="M0 9.99999C0 4.47714 4.47715 0 10 0H121.883C127.406 0 131.883 4.47715 131.883 10V74.7009C131.883 80.2237 127.406 84.7008 121.883 84.7008H35.5737C13.2656 87.3758 6.31662 98.2607 0 107.841V84.7008V9.99999Z" fill="white"/>
</svg>
