<svg width="120" height="120" viewBox="0 0 120 120" fill="none" xmlns="http://www.w3.org/2000/svg">
<path d="M62.6361 83.6437V107.644H30.6353V99.6436V83.6437H46.6425H62.6361ZM38.6354 99.6441H54.6359V91.6438H38.6354V99.6441Z" fill="#241A56"/>
<path d="M46.6425 67.6438V75.6859V83.6437V91.6444H14.6417V67.6438H46.6425ZM22.6419 83.6442H38.6424V75.6439H22.6419V83.6442Z" fill="#241A56"/>
<path d="M58.6122 51.6852V75.6439V75.6859H46.6425H26.6114V51.6852H58.6122ZM34.6116 67.6856H50.6121V59.6854H34.6116V67.6856Z" fill="#241A56"/>
<path d="M70.5947 67.6438V91.6444H38.5939V67.6438H70.5947ZM46.594 83.6442L46.6425 83.6437L62.5945 83.6442V75.6439H58.6122H46.594V83.6442Z" fill="#241A56"/>
<path d="M94.5977 67.6438V91.6444H62.5969V67.6438H94.5977ZM70.5971 83.6442H86.5976V75.6439H70.5971V83.6442Z" fill="#241A56"/>
<path d="M86.5976 83.6442L86.6009 107.644H54.6002V83.6437L86.5976 83.6442ZM62.6003 99.6441H78.6008V91.6438L62.5969 91.6444L62.6003 99.6441Z" fill="#241A56"/>
<path d="M110.591 83.6437V107.644H78.5905V83.6437H110.591ZM86.5906 99.6441H102.591V91.6438H86.5906V99.6441Z" fill="#241A56"/>
<path d="M78.625 31.6622L78.873 31.6644C84.0785 31.7425 89.0525 33.8479 92.7336 37.5387C96.4731 41.288 98.5732 46.3673 98.5732 51.6627L98.573 54.3685L78.7209 62.3285C77.2099 62.9496 75.547 63.1051 73.9462 62.7734C72.343 62.4412 70.877 61.6358 69.7364 60.4625C68.5914 59.3191 67.8104 57.8621 67.4928 56.2746C67.1762 54.6912 67.335 53.0503 67.9481 51.5576L75.9091 31.6551L78.625 31.6622ZM75.3754 54.5306L75.3623 54.5631L75.3487 54.5955C75.3341 54.6302 75.3302 54.6686 75.3376 54.7056C75.3441 54.7379 75.359 54.7679 75.3806 54.7926L75.3901 54.8029L75.4315 54.8435L75.4716 54.8855C75.498 54.913 75.5321 54.9318 75.5694 54.9396C75.6068 54.9473 75.6457 54.9436 75.6808 54.9288L75.712 54.9156L90.2894 49.0706C89.8005 46.8609 88.6924 44.8157 87.0692 43.1882C85.4485 41.5633 83.4101 40.4506 81.2056 39.9548L75.3754 54.5306Z" fill="#49D3D3"/>
<path d="M108.819 19.0141L98.5813 25.8271V37.3082L93.4453 42.4983L87.7588 36.871L90.5811 34.019V21.5413L104.386 12.3539L108.819 19.0141Z" fill="#49D3D3"/>
<path d="M46.6425 83.6437H54.6002L62.5945 83.6442V75.6439H58.6122V75.6859H46.6425V83.6437Z" fill="#241A56"/>
<path fill-rule="evenodd" clip-rule="evenodd" d="M34.6377 107.644V99.6436H30.6353V107.644L34.6377 107.644Z" fill="#241A56"/>
<path d="M14.6163 107.644L30.6353 107.644V99.6436H14.6163V107.644Z" fill="#241A56"/>
<path d="M75.3754 54.5306L75.3623 54.5631L75.3487 54.5955C75.3341 54.6302 75.3302 54.6686 75.3376 54.7056C75.3441 54.7379 75.359 54.7679 75.3806 54.7926L75.3901 54.8029L75.4315 54.8435L75.4716 54.8855C75.498 54.913 75.5321 54.9318 75.5694 54.9396C75.6068 54.9473 75.6457 54.9436 75.6808 54.9288L75.712 54.9156L90.2894 49.0706C89.8005 46.8609 88.6924 44.8157 87.0692 43.1882C85.4485 41.5633 83.4101 40.4506 81.2056 39.9548L75.3754 54.5306Z" fill="#49D3D3"/>
</svg>
