<svg width="120" height="120" viewBox="0 0 120 120" fill="none" xmlns="http://www.w3.org/2000/svg">
<path d="M21.2792 9.44415C17.8729 9.44415 15.0859 12.2963 15.0859 15.7026V49.9287C14.2547 50.5073 13.448 51.1021 12.6738 51.7541C11.7367 52.5445 11.6226 53.9462 12.4131 54.8833C13.2035 55.8204 14.6052 55.9345 15.5423 55.1441C20.668 50.8332 27.228 48.2337 34.4481 48.2337C50.7381 48.2337 63.9151 61.4188 63.9151 77.7007C63.8336 78.5319 64.2329 79.3386 64.9419 79.7787C65.6508 80.2269 66.5472 80.2269 67.2562 79.7787C67.9652 79.3386 68.3645 78.5319 68.283 77.7007C68.283 77.1954 68.2422 76.6983 68.2178 76.2012H77.2144C80.7997 71.3445 94.36 68.5524 102.248 75.1582C102.664 74.93 103.031 74.6529 103.422 74.3758C104.88 73.3165 106.176 71.9556 106.812 70.2035L112.875 53.6446C113.575 51.7378 112.712 49.6353 111.44 48.5596C110.169 47.484 108.621 46.995 107.007 46.995H92.4042V34.4781C92.4042 30.5013 93.3006 29.0671 93.7732 28.6107C94.0096 28.3826 94.2051 28.3744 94.2948 28.35C94.8978 28.3744 95.4764 28.1462 95.9083 27.7306C96.3402 27.315 96.5847 26.7365 96.5765 26.1334V21.9611C96.5847 21.3744 96.3483 20.8039 95.9327 20.3883C95.5171 19.9727 94.9467 19.7364 94.36 19.7446C91.6708 19.7446 88.1178 20.2335 85.0375 22.3523C81.9571 24.471 79.6265 28.3418 79.6265 34.0869V46.995H68.8697L60.2643 15.2463C60.2562 15.1974 60.2073 15.1648 60.1991 15.1159C59.8976 13.7795 59.3435 12.4756 58.3737 11.3999C57.3714 10.2835 55.7905 9.44415 54.071 9.44415H21.2792Z" fill="#3B2F77"/>
<path fill-rule="evenodd" clip-rule="evenodd" d="M33.8614 53.2535C20.065 53.2535 8.82747 64.491 8.82747 78.2874C8.82747 92.0837 20.065 103.321 33.8614 103.321C47.6577 103.321 58.8953 92.0837 58.8953 78.2874C58.8953 64.491 47.6577 53.2535 33.8614 53.2535ZM33.8614 70.9858H33.731C29.7461 71.0592 26.5598 74.2862 26.5598 78.2874C26.5598 82.3293 29.8194 85.589 33.8614 85.589C37.9033 85.589 41.1629 82.3293 41.1629 78.2874C41.1629 74.2455 37.9115 70.9858 33.8614 70.9858Z" fill="#49D3D3"/>
<circle cx="91.5205" cy="85.1564" r="18.1641" fill="#49D3D3"/>
<circle cx="91.5283" cy="85.1562" r="5.56152" fill="white"/>
<rect x="22.1191" y="16.1865" width="33.1445" height="18.7305" rx="1" fill="#241A56"/>
</svg>
