<svg width="121" height="120" viewBox="0 0 121 120" fill="none" xmlns="http://www.w3.org/2000/svg">
<path d="M121 71.5324H0.511719V79.0629H121V71.5324Z" fill="#49D3D3"/>
<path d="M11.808 84.5529C8.948 84.5529 6.63072 86.8713 6.63072 89.7301C6.63072 92.591 8.948 94.9073 11.808 94.9073C14.6667 94.9073 16.9842 92.5908 16.9842 89.7301C16.9842 86.8713 14.6667 84.5529 11.808 84.5529Z" fill="#49D3D3"/>
<path d="M36.2821 84.5529C33.4222 84.5529 31.1049 86.8713 31.1049 89.7301C31.1049 92.591 33.4222 94.9073 36.2821 94.9073C39.1409 94.9073 41.4584 92.5908 41.4584 89.7301C41.4587 86.8713 39.1409 84.5529 36.2821 84.5529Z" fill="#49D3D3"/>
<path d="M60.7568 84.5529C57.8968 84.5529 55.5795 86.8713 55.5795 89.7301C55.5795 92.591 57.8968 94.9073 60.7568 94.9073C63.6155 94.9073 65.9331 92.5908 65.9331 89.7301C65.9331 86.8713 63.6155 84.5529 60.7568 84.5529Z" fill="#49D3D3"/>
<path d="M85.2314 84.5529C82.3724 84.5529 80.0542 86.8713 80.0542 89.7301C80.0542 92.591 82.3726 94.9073 85.2314 94.9073C88.0902 94.9073 90.4068 92.5908 90.4068 89.7301C90.4068 86.8713 88.0902 84.5529 85.2314 84.5529Z" fill="#49D3D3"/>
<path d="M109.708 84.5529C106.847 84.5529 104.531 86.8713 104.531 89.7301C104.531 92.591 106.847 94.9073 109.708 94.9073C112.565 94.9073 114.881 92.5908 114.881 89.7301C114.882 86.8713 112.565 84.5529 109.708 84.5529Z" fill="#49D3D3"/>
<path d="M50.7163 25.0929H37.5367V39.5272L30.635 35.1772L23.7314 39.5272V25.0929H10.5518V65.2574H50.7163V25.0929Z" fill="#241A56"/>
</svg>
