<svg width="20" height="20" viewBox="0 0 20 20" fill="none" xmlns="http://www.w3.org/2000/svg">
<path d="M15.5556 10C14.4529 10 13.5556 10.8973 13.5556 12C13.5556 13.1027 14.4529 14 15.5556 14C16.6582 14 17.5556 13.1027 17.5556 12C17.5556 10.8973 16.6582 10 15.5556 10Z" fill="#49D3D3"/>
<path fill-rule="evenodd" clip-rule="evenodd" d="M10.2222 0C10.1513 0 10.0801 0.0165694 10.0156 0.0503472L0.682292 4.93924C0.53607 5.01613 0.444444 5.168 0.444444 5.33333V6.22222C0.444444 6.46756 0.643556 6.66667 0.888889 6.66667H19.5556C19.8013 6.66667 20 6.46756 20 6.22222V5.33333C20 5.168 19.9088 5.01613 19.7622 4.93924L10.4288 0.0503472C10.3644 0.0165694 10.2931 0 10.2222 0ZM10.2222 2.66667C10.9582 2.66667 11.5556 3.26356 11.5556 4C11.5556 4.73644 10.9582 5.33333 10.2222 5.33333C9.48578 5.33333 8.88889 4.73644 8.88889 4C8.88889 3.26356 9.48578 2.66667 10.2222 2.66667ZM2.66667 7.55556C2.42133 7.55556 2.22222 7.75467 2.22222 8V14.2222H4.88889V8C4.88889 7.75467 4.68978 7.55556 4.44444 7.55556H2.66667ZM7.11111 7.55556C6.86578 7.55556 6.66667 7.75467 6.66667 8V14.2222H9.33333V8C9.33333 7.75467 9.13422 7.55556 8.88889 7.55556H7.11111ZM11.5556 7.55556C11.3102 7.55556 11.1111 7.75467 11.1111 8V14.2222H13.7127C13.0745 13.692 12.6667 12.8929 12.6667 12C12.6667 11.0778 13.1027 10.2568 13.7778 9.72743V8C13.7778 7.75467 13.5787 7.55556 13.3333 7.55556H11.5556ZM16 7.55556C15.7547 7.55556 15.5556 7.75467 15.5556 8V9.11111C16.7556 9.11111 17.7862 9.84663 18.2222 10.8906V8C18.2222 7.75467 18.0231 7.55556 17.7778 7.55556H16ZM1.33333 15.1111C1.088 15.1111 0.888889 15.3098 0.888889 15.5556V16.4444H0.444444C0.199111 16.4444 0 16.6431 0 16.8889V18.2222C0 18.468 0.199111 18.6667 0.444444 18.6667H10.6667V17.5816C10.6667 16.6007 11.0966 15.7249 11.77 15.1111H1.33333Z" fill="#3B2F77"/>
<path d="M14.026 15.1111C12.6634 15.1111 11.5556 16.2189 11.5556 17.5816V19.5556C11.5556 19.8013 11.7542 20 12 20H19.1111C19.3569 20 19.5556 19.8013 19.5556 19.5556V17.5816C19.5556 16.2189 18.4473 15.1111 17.0851 15.1111H14.026Z" fill="#49D3D3"/>
</svg>
