<svg width="108" height="108" viewBox="0 0 108 108" fill="none" xmlns="http://www.w3.org/2000/svg">
<rect width="108" height="108" rx="10" fill="white"/>
<path fill-rule="evenodd" clip-rule="evenodd" d="M53.4483 85.1071L57.6661 77.726C57.8761 77.2793 57.4701 77.1898 56.8537 77.0541C56.4884 76.9737 56.0493 76.877 55.6207 76.68C55.1809 76.476 54.8179 76.1971 54.5185 75.9672C54.0222 75.5859 53.7009 75.339 53.4948 75.7907L50.6195 84.0188C50.2468 84.8234 52.6648 86.7756 53.4483 85.1071ZM59.1694 56.8402C54.6467 51.5849 57.0012 47.7229 57.0012 47.7229C55.608 48.8239 51.3182 62.1083 57.2849 64.882C59.9613 66.127 64.2723 62.735 59.1694 56.8402ZM63.294 47.9558C58.7713 42.7132 61.1258 38.8511 61.1258 38.8511C59.7326 39.9521 55.4343 53.2322 61.4053 56.0145C64.0859 57.2552 68.3927 53.8717 63.294 47.9558ZM67.2959 39.355C62.7562 34.1209 65.1277 30.2418 65.1277 30.2418C63.7302 31.3429 59.4362 44.6188 65.4114 47.401C68.0878 48.6376 72.3902 45.2625 67.2959 39.355ZM63.7217 67.876C69.697 70.6413 77.0654 58.8009 77.0146 57.0223C77.0146 57.0223 75.5875 61.3206 68.6425 61.2401C60.8548 61.1554 61.0411 66.6225 63.7217 67.876ZM54.9516 65.928C50.4204 60.6769 52.7749 56.8191 52.7749 56.8191C51.3859 57.9201 47.0919 71.2002 53.0629 73.9655C55.7477 75.2105 60.046 71.827 54.9516 65.928ZM59.4955 76.9595C65.4665 79.7375 72.8391 67.8844 72.7925 66.1101C72.7925 66.1101 71.3612 70.4083 64.4205 70.3279C56.6328 70.2474 56.8191 75.7187 59.4955 76.9595ZM67.8421 59C73.8174 61.7737 81.1858 49.9164 81.135 48.1506C81.135 48.1506 79.7079 52.4446 72.7671 52.3684C64.9752 52.2837 65.1615 57.7634 67.8421 59ZM71.844 50.3823C77.8192 53.1645 85.1834 41.3157 85.1326 39.5371C85.1326 39.5371 83.697 43.8481 76.7647 43.7549C68.977 43.6744 69.1676 49.1457 71.844 50.3823ZM72.1362 42.4167C78.4756 45.3599 78.0648 28.7385 78.0648 28.7385C76.6716 29.6447 65.801 39.4693 72.1362 42.4167Z" fill="#49D3D3"/>
<path d="M34.5486 37.1445C41.5402 37.1445 34.1633 22.2382 34.1633 22.2382C33.274 23.6399 27.5571 37.1445 34.5486 37.1445Z" fill="#3B2F77"/>
<path d="M37.6315 44.4917C44.2208 44.4917 45.9104 30.6441 45.1228 29.0561C45.1228 29.0561 45.6352 33.5619 39.3042 36.3992C32.2068 39.6133 34.6757 44.4917 37.6315 44.4917Z" fill="#3B2F77"/>
<path d="M28.8656 36.4034C22.5431 33.5661 23.0555 29.0561 23.0555 29.0561C22.2594 30.6441 23.9533 44.4917 30.5468 44.4917C33.4942 44.4917 35.9715 39.6133 28.8656 36.4034Z" fill="#3B2F77"/>
<path d="M28.8656 45.8977C22.5431 43.0477 23.0555 38.5504 23.0555 38.5504C22.2594 40.1342 23.9533 53.9903 30.5468 53.9903C33.4942 53.9903 35.9715 49.0991 28.8656 45.8977Z" fill="#3B2F77"/>
<path d="M37.6315 53.9903C44.2208 53.9903 45.9104 40.1342 45.1228 38.5504C45.1228 38.5504 45.6352 43.0477 39.3042 45.8977C32.2068 49.0991 34.6757 53.9903 37.6315 53.9903Z" fill="#3B2F77"/>
<path d="M37.6315 63.7725C44.2208 63.7725 45.9104 49.9207 45.1228 48.3327C45.1228 48.3327 45.6352 52.8299 39.3042 55.6884C32.2068 58.8772 34.6757 63.7725 37.6315 63.7725Z" fill="#3B2F77"/>
<path d="M28.8656 55.6842C22.5431 52.8257 23.0555 48.3284 23.0555 48.3284C22.2594 49.9164 23.9533 63.7683 30.5468 63.7683C33.4942 63.7725 35.9715 58.8772 28.8656 55.6842Z" fill="#3B2F77"/>
<path d="M28.8656 65.712C22.5431 62.8536 23.0555 58.3563 23.0555 58.3563C22.2594 59.9443 23.9533 73.7961 30.5468 73.7961C33.4942 73.7961 35.9715 68.905 28.8656 65.712Z" fill="#3B2F77"/>
<path d="M37.6315 73.7961C44.2208 73.7961 45.9104 59.9443 45.1228 58.3563C45.1228 58.3563 45.6352 62.8536 39.3042 65.712C32.2068 68.905 34.6757 73.7961 37.6315 73.7961Z" fill="#3B2F77"/>
<path d="M32.5625 83.9426L31.6986 75.2614C31.6986 74.4652 32.715 75.1724 33.9981 75.1724C35.2728 75.1724 36.3018 74.4652 36.3018 75.2614L35.5819 83.7266C35.5819 85.5772 32.5625 84.8234 32.5625 83.9426Z" fill="#3B2F77"/>
</svg>
