<svg width="20" height="16" viewBox="0 0 20 16" fill="none" xmlns="http://www.w3.org/2000/svg">
<path d="M11.8926 14.9301C12.2244 15.2619 12.7623 15.2619 13.0941 14.9301L19.3992 8.62496C19.731 8.29317 19.731 7.75521 19.3992 7.42342L13.1699 1.19408C12.8381 0.862284 12.3002 0.862284 11.9684 1.19408L9.69337 3.46907L9.69229 3.468L7.97308 5.18722C7.92025 5.24005 7.87245 5.28793 7.82923 5.33168C8.03788 5.15912 8.34751 5.1705 8.54284 5.36583C8.72537 5.54836 8.74728 5.83069 8.60856 6.03717C8.81504 5.89845 9.09737 5.92035 9.27989 6.10288C9.48077 6.30376 9.4871 6.62552 9.2989 6.83402C9.3208 6.81235 9.34385 6.7894 9.36815 6.7651L9.37928 6.75397C9.54672 6.58652 9.69798 6.43524 9.8351 6.32201C9.9738 6.20748 10.1353 6.09932 10.3274 6.0628C10.5358 6.02318 10.7257 6.07687 10.8989 6.17747C11.0623 6.27244 11.2282 6.41909 11.4066 6.59749L12.146 7.33686L12.1602 7.35108C12.167 7.35781 12.1737 7.36451 12.1803 7.37118C12.2803 7.47122 12.3732 7.56519 12.44 7.64995C12.5142 7.74404 12.604 7.8841 12.5982 8.06683C12.5926 8.24349 12.4993 8.37937 12.4244 8.47179C12.3661 8.54363 12.2894 8.6234 12.2035 8.71L11.116 9.7976C11.3232 9.62752 11.6309 9.64036 11.8258 9.8353C12.0333 10.0427 12.0345 10.3778 11.8286 10.5836C11.6433 10.769 11.3532 10.7865 11.1458 10.6367L11.1794 10.668C11.3364 10.8146 11.5318 10.9971 11.7575 11.2228L11.7681 11.2334C12.0495 11.5148 12.2873 11.7526 12.4442 11.9655C12.609 12.1893 12.7256 12.4393 12.6814 12.7378C12.641 13.0102 12.4737 13.2571 12.2647 13.5038C12.0559 13.7503 11.7591 14.0478 11.3847 14.4222L11.8926 14.9301Z" fill="#49D3D3"/>
<path d="M11.7584 9.85967C11.952 10.0532 11.952 10.3671 11.7584 10.5606C11.5861 10.733 11.3184 10.7519 11.1251 10.6173L11.1458 10.6367C11.3532 10.7865 11.6433 10.769 11.8286 10.5836C12.0345 10.3778 12.0333 10.0427 11.8258 9.8353C11.6309 9.64036 11.3232 9.62752 11.116 9.7976L11.06 9.85366L11.0424 9.87128C11.0324 9.88344 11.0231 9.89594 11.0144 9.90874C11.0275 9.89168 11.0418 9.87529 11.0574 9.85967C11.251 9.6661 11.5648 9.6661 11.7584 9.85967Z" fill="#49D3D3"/>
<path d="M11.7584 10.5606C11.952 10.3671 11.952 10.0532 11.7584 9.85967C11.5648 9.6661 11.251 9.6661 11.0574 9.85967C11.0418 9.87529 11.0275 9.89168 11.0144 9.90874C10.8841 10.1004 10.8946 10.3597 11.0455 10.5426C11.0706 10.5663 11.0972 10.5912 11.1251 10.6173C11.3184 10.7519 11.5861 10.733 11.7584 10.5606Z" fill="#49D3D3"/>
<path d="M2.06307 13.7895C2.68519 14.4116 3.69385 14.4116 4.31598 13.7895L4.76546 13.34C4.97284 13.1327 5.30906 13.1327 5.51643 13.34L7.9251 15.7396C8.25313 16.0677 8.78498 16.0677 9.11302 15.7396L10.877 13.9756L10.8763 13.9749C11.2739 13.5773 11.5571 13.2937 11.7491 13.0669C11.7648 13.0485 11.7795 13.0307 11.7935 13.0136C11.5855 13.2128 11.2553 13.2101 11.0506 13.0055C10.8432 12.798 10.8432 12.4617 11.0506 12.2543C11.258 12.0469 11.5943 12.0469 11.8017 12.2543L11.8536 12.3062C11.7303 12.1528 11.545 11.9661 11.2796 11.7007C11.0633 11.4844 10.8804 11.3136 10.7247 11.1682C10.6721 11.1192 10.6227 11.073 10.5761 11.029C10.4059 10.8681 10.2423 10.7082 10.1513 10.5428C10.1004 10.4503 10.0637 10.3426 10.0636 10.2203C10.0635 10.0988 10.0994 9.99097 10.1487 9.89766C10.2382 9.72827 10.4007 9.55713 10.5821 9.37576L11.5307 8.42712L11.5305 8.42622C11.323 8.63364 10.9867 8.63364 10.7793 8.42622C10.6288 8.27566 10.5875 8.0572 10.6555 7.86941C10.4668 7.93942 10.2464 7.89863 10.0948 7.74702C9.89331 7.54555 9.88753 7.22249 10.0774 7.01404C10.0101 7.07908 9.93415 7.15488 9.84603 7.24299C9.67573 7.41329 9.51944 7.56731 9.37268 7.66915C9.2144 7.77897 9.02277 7.85951 8.79312 7.81669C8.59187 7.77916 8.41781 7.6546 8.26156 7.52141C8.10186 7.38527 7.91114 7.19492 7.67865 6.96287L7.667 6.95124L7.65963 6.94389C7.42579 6.71051 7.23361 6.5187 7.09904 6.35715C6.96767 6.19944 6.8433 6.01677 6.82216 5.79919C6.79929 5.56368 6.90307 5.37296 7.0201 5.21922C7.13121 5.07326 7.29473 4.90977 7.48079 4.72373L7.49519 4.70933L9.21441 2.99011L7.81871 1.59441C7.49067 1.26637 6.95882 1.26637 6.63079 1.59441L0.79931 7.4259C0.471274 7.75394 0.471274 8.28579 0.79931 8.61383L2.51709 10.3316C2.72447 10.539 2.72447 10.8752 2.51709 11.0826L2.06307 11.5366C1.44095 12.1587 1.44095 13.1674 2.06307 13.7895Z" fill="#3B2F77"/>
<path d="M11.0506 12.2543C10.8432 12.4617 10.8432 12.798 11.0506 13.0055C11.2553 13.2101 11.5855 13.2128 11.7935 13.0136C11.8341 12.9636 11.8675 12.9193 11.8949 12.8799C12.0022 12.679 11.9711 12.4237 11.8017 12.2543C11.5943 12.0469 11.258 12.0469 11.0506 12.2543Z" fill="#3B2F77"/>
<path d="M10.7793 8.42622C10.9867 8.63364 11.323 8.63364 11.5305 8.42622C11.7286 8.22809 11.7375 7.91237 11.5571 7.7037L11.5018 7.64846C11.352 7.5189 11.1468 7.48697 10.9697 7.55269C10.9441 7.62361 10.9028 7.69016 10.8459 7.74702C10.7901 7.80284 10.725 7.84363 10.6555 7.86941C10.5875 8.0572 10.6288 8.27566 10.7793 8.42622Z" fill="#3B2F77"/>
<path d="M10.0774 7.01404C9.88753 7.22249 9.89331 7.54555 10.0948 7.74702C10.2464 7.89863 10.4668 7.93942 10.6555 7.86941C10.6812 7.79849 10.7225 7.73194 10.7793 7.67508C10.8351 7.61927 10.9003 7.57847 10.9697 7.55269C11.0378 7.36491 10.9965 7.14644 10.8459 6.99588C10.6506 6.80055 10.341 6.78916 10.1323 6.96173C10.1146 6.97834 10.0964 6.99577 10.0774 7.01404Z" fill="#3B2F77"/>
<path d="M10.9288 7.07545C10.8889 7.03548 10.8519 6.99968 10.8177 6.96765L10.8459 6.99588C10.9965 7.14644 11.0378 7.36491 10.9697 7.55269C11.1468 7.48697 11.352 7.5189 11.5018 7.64846L10.9288 7.07545Z" fill="#3B2F77"/>
<path d="M10.7793 7.67508C10.7225 7.73194 10.6812 7.79849 10.6555 7.86941C10.725 7.84363 10.7901 7.80284 10.8459 7.74702C10.9028 7.69016 10.9441 7.62361 10.9697 7.55269C10.9003 7.57847 10.8351 7.61927 10.7793 7.67508Z" fill="#3B2F77"/>
<path d="M8.60856 6.03717C8.74728 5.83069 8.72537 5.54836 8.54284 5.36583C8.34751 5.1705 8.03788 5.15912 7.82923 5.33168C7.80097 5.36029 7.77466 5.38714 7.7502 5.41245C7.59391 5.61011 7.59824 5.89321 7.76318 6.08613C7.77604 6.09975 7.78934 6.1137 7.8031 6.12803C7.98582 6.30033 8.26081 6.31855 8.46304 6.18268C8.48196 6.15452 8.50386 6.12778 8.52876 6.10288C8.55365 6.07799 8.5804 6.05609 8.60856 6.03717Z" fill="#49D3D3"/>
<path d="M9.2989 6.83402C9.4871 6.62552 9.48077 6.30376 9.27989 6.10288C9.09737 5.92035 8.81504 5.89845 8.60856 6.03717C8.58964 6.06533 8.56773 6.09208 8.54284 6.11697C8.51795 6.14186 8.4912 6.16377 8.46304 6.18268C8.33053 6.37993 8.34459 6.64639 8.50523 6.82895C8.53005 6.85274 8.55381 6.87524 8.57664 6.89653C8.77577 7.053 9.06093 7.04706 9.25352 6.87869C9.26808 6.86444 9.2832 6.84956 9.2989 6.83402Z" fill="#49D3D3"/>
<path d="M7.8031 6.12803C7.89522 6.22398 8.00776 6.33648 8.14442 6.47289C8.28696 6.61515 8.40471 6.73258 8.50523 6.82895C8.34459 6.64639 8.33053 6.37993 8.46304 6.18268C8.26081 6.31855 7.98582 6.30033 7.8031 6.12803Z" fill="#49D3D3"/>
<path fill-rule="evenodd" clip-rule="evenodd" d="M10.877 13.9756L11.3542 14.4528L11.3847 14.4222L11.2332 14.2707C11.1984 14.1069 11.0016 13.9853 10.9076 13.9451L10.877 13.9756ZM9.21441 2.99011L9.69229 3.468L10.4137 2.74663L9.93577 2.26874L9.21441 2.99011ZM10.0948 6.99588C10.0888 7.00183 10.0831 7.00789 10.0774 7.01404C10.0964 6.99577 10.1146 6.97834 10.1323 6.96173C10.1194 6.97241 10.1069 6.98379 10.0948 6.99588ZM11.5305 7.67508C11.5397 7.68437 11.5486 7.69392 11.5571 7.7037L11.5018 7.64846C11.5116 7.65692 11.5212 7.66579 11.5305 7.67508ZM11.8949 12.8799C11.8675 12.9193 11.8341 12.9636 11.7935 13.0136C11.7962 13.0109 11.799 13.0082 11.8017 13.0055C11.8398 12.9674 11.8708 12.9251 11.8949 12.8799ZM11.1251 10.6173L11.1458 10.6367C11.127 10.6231 11.1088 10.6081 11.0915 10.5917C11.0798 10.582 11.0684 10.5716 11.0574 10.5606C11.0471 10.5503 11.0373 10.5395 11.028 10.5285L10.9671 10.4676C10.9833 10.4833 11.0005 10.4998 11.0188 10.5173C10.8782 10.3396 10.8768 10.0879 11.0144 9.90874C10.8841 10.1004 10.8946 10.3597 11.0455 10.5426C11.0706 10.5663 11.0972 10.5912 11.1251 10.6173ZM10.8621 10.3627C10.8909 10.3927 10.9255 10.4273 10.9671 10.4676L10.8621 10.3627ZM11.0424 9.87128C11.0533 9.85792 11.065 9.84497 11.0775 9.8325C11.0899 9.82012 11.1027 9.80848 11.116 9.7976L11.06 9.85366L11.0424 9.87128ZM7.76318 6.08613C7.77604 6.09975 7.78934 6.1137 7.8031 6.12803L7.79857 6.12371C7.79627 6.12149 7.79398 6.11924 7.79171 6.11697C7.78172 6.10698 7.77221 6.09669 7.76318 6.08613ZM7.79171 5.36583C7.7768 5.38074 7.76296 5.39631 7.7502 5.41245C7.77466 5.38714 7.80097 5.36029 7.82923 5.33168C7.81632 5.34236 7.80379 5.35374 7.79171 5.36583Z" fill="white"/>
<path d="M8.60856 6.03717C8.5804 6.05609 8.55365 6.07799 8.52876 6.10288C8.50386 6.12778 8.48196 6.15452 8.46304 6.18268C8.4912 6.16377 8.51795 6.14186 8.54284 6.11697C8.56773 6.09208 8.58964 6.06533 8.60856 6.03717Z" fill="#49D3D3"/>
</svg>
