<svg width="20" height="20" viewBox="0 0 20 20" fill="none" xmlns="http://www.w3.org/2000/svg">
<path d="M10 6.66667C11.5833 6.66667 12.9167 7.75 13.25 9.25C13.3333 9.66667 13.8333 10 14.25 9.83333C14.6667 9.75 15 9.25 14.8333 8.83333C14.3333 6.5 12.3333 5 10 5C7.25 5 5 7.25 5 10C5 12.5833 7 14.75 9.58333 15H9.66667C10.0833 15 10.4167 14.6667 10.5 14.25C10.5833 13.8333 10.1667 13.4167 9.75 13.3333C8.08333 13.1667 6.66667 11.6667 6.66667 10C6.66667 8.16667 8.16667 6.66667 10 6.66667Z" fill="#3B2F77"/>
<path d="M10.0013 16.667C6.33464 16.667 3.33464 13.667 3.33464 10.0003C3.33464 6.33366 6.33464 3.33366 10.0013 3.33366C13.5013 3.33366 16.418 6.08366 16.668 9.58366C16.668 10.0837 17.0846 10.417 17.5846 10.3337C18.0846 10.3337 18.418 9.91699 18.3346 9.41699C18.0013 5.08366 14.418 1.66699 10.0013 1.66699C5.41797 1.66699 1.66797 5.41699 1.66797 10.0003C1.66797 14.5837 5.41797 18.3337 10.0013 18.3337C10.5013 18.3337 10.8346 18.0003 10.8346 17.5003C10.8346 17.0003 10.5013 16.667 10.0013 16.667Z" fill="#3B2F77"/>
<path fill-rule="evenodd" clip-rule="evenodd" d="M17.75 12.0834C17.6667 12.0001 17.5 11.9167 17.4167 11.9167L12 10.0834C11.5 9.91673 10.9167 10.0834 10.5 10.5001C10.0833 10.9167 10 11.5001 10.25 12.0001L12.75 17.5001C13 18.0001 13.5 18.3334 14 18.3334H14.25C14.9167 18.2501 15.3333 17.7501 15.4167 17.0834L15.6667 15.0834L17.3333 14.5834C17.8333 14.4167 18.25 14.0001 18.3333 13.4167C18.4167 12.9167 18.1667 12.3334 17.75 12.0834ZM14.0833 14.6667C14.1667 14.0834 14.5 13.6667 15.0833 13.5001L16.0833 13.1667L12.0833 11.8334L13.9167 15.9167L14.0833 14.6667Z" fill="#49D3D3"/>
</svg>
