<svg width="20" height="20" viewBox="0 0 20 20" fill="none" xmlns="http://www.w3.org/2000/svg">
<path d="M10.0006 3.82227L7.5006 1.32227L1.48648 7.33639C0.705431 8.11743 0.705432 9.38377 1.48648 10.1648L10.0006 18.6789L16.2506 12.4289L15.0723 11.2514L13.9481 12.3756L11.9739 10.4023L10.7956 11.5806L12.7698 13.5539L11.9739 14.3498L10.0006 12.3756L8.82227 13.5531L10.7956 15.5273L10.0006 16.3223L2.42893 8.7506L7.5006 3.67893L8.82227 5.0006L10.0006 3.82227Z" fill="#3B2F77"/>
<path fill-rule="evenodd" clip-rule="evenodd" d="M12.5006 1.32227L10.0006 3.82227L8.82227 5.0006L6.32227 7.5006L10.0006 11.1789L12.5006 8.67893L15.0723 11.2514L16.2506 12.4289L18.5147 10.1648C19.2958 9.38376 19.2958 8.11743 18.5147 7.33639L12.5006 1.32227ZM17.5723 8.7506L16.2506 10.0723L12.5006 6.32227L10.0006 8.82227L8.67893 7.5006L12.5006 3.67893L17.5723 8.7506Z" fill="#49D3D3"/>
</svg>
