<svg width="109" height="108" viewBox="0 0 109 108" fill="none" xmlns="http://www.w3.org/2000/svg">
<rect x="0.200012" width="108" height="108" rx="10" fill="#FAFAFA"/>
<path fill-rule="evenodd" clip-rule="evenodd" d="M79.5082 72.7161H55.932H52.5293H28.7709C29.2286 68.5962 37.8091 52.9906 43.2496 43.0956C45.753 38.5426 47.5916 35.1986 47.6682 34.7391C48.1543 30.6072 46.696 24.5916 45.5415 20.8243C45.7846 18.4545 47.729 16.9962 49.9772 16.9962H50.038H50.0988C52.104 16.9962 53.7446 18.3938 54.2914 20.1559C54.8383 18.333 56.4789 16.9962 58.4841 16.9962H58.5449C60.8539 16.9962 62.859 18.5153 62.9806 20.8243C61.8868 24.5916 60.3677 30.6072 60.7931 34.7391C60.8697 35.1985 62.7015 38.5412 65.1959 43.0928C70.6184 52.9877 79.1719 68.5958 79.6297 72.7161H79.5082Z" fill="#241A56"/>
<path d="M52.5293 72.7161V78.4886L45.9669 85.2333C45.4808 84.9295 44.9339 84.7472 44.387 84.7472C42.7464 84.7472 41.2881 86.1448 41.2881 87.8461C41.2881 89.4867 42.6857 90.945 44.387 90.945C45.7238 90.945 46.8176 90.0336 47.2429 88.8791L52.2862 83.7142L53.1977 82.8028V82.8635H55.3852L56.2359 83.7142L61.34 88.9399C61.7653 90.1551 62.859 91.0058 64.1958 91.0058C65.8364 91.0058 67.2948 89.6082 67.2948 87.9069C67.2948 86.2663 65.8972 84.808 64.1958 84.808C63.649 84.808 63.1021 84.9902 62.616 85.2941L55.932 78.4886V72.7161H52.5293Z" fill="#49D3D3"/>
</svg>
