<svg width="109" height="108" viewBox="0 0 109 108" fill="none" xmlns="http://www.w3.org/2000/svg">
<rect x="0.200012" width="108" height="108" rx="10" fill="#FAFAFA"/>
<path d="M55.9574 69.7625V85.7629H34.6236V80.4291V69.7625H45.295H55.9574ZM39.957 80.4294H50.624V75.0959H39.957V80.4294Z" fill="#241A56"/>
<path d="M45.295 59.0959V64.4573V69.7625V75.0963H23.9612V59.0959H45.295ZM29.2946 69.7628H39.9616V64.4293H29.2946V69.7628Z" fill="#241A56"/>
<path d="M53.2748 48.4568V64.4293V64.4573H45.295H31.941V48.4568H53.2748ZM37.2744 59.1237H47.9414V53.7902H37.2744V59.1237Z" fill="#241A56"/>
<path d="M61.2631 59.0959V75.0963H39.9293V59.0959H61.2631ZM45.2627 69.7628L45.295 69.7625L55.9297 69.7628V64.4293H53.2748H45.2627V69.7628Z" fill="#241A56"/>
<path d="M77.2652 59.0959V75.0963H55.9313V59.0959H77.2652ZM61.2648 69.7628H71.9318V64.4293H61.2648V69.7628Z" fill="#241A56"/>
<path d="M71.9318 69.7628L71.934 85.7629H50.6001V69.7625L71.9318 69.7628ZM55.9336 80.4294H66.6006V75.0959L55.9313 75.0963L55.9336 80.4294Z" fill="#241A56"/>
<path d="M87.9276 69.7625V85.7629H66.5937V69.7625H87.9276ZM71.9271 80.4294H82.5941V75.0959H71.9271V80.4294Z" fill="#241A56"/>
<path d="M66.6167 35.1081L66.782 35.1096C70.2524 35.1617 73.5684 36.5653 76.0224 39.0258C78.5154 41.5253 79.9155 44.9115 79.9155 48.4418L79.9154 50.2457L66.6807 55.5523C65.6733 55.9664 64.5647 56.0701 63.4975 55.849C62.4287 55.6275 61.4514 55.0906 60.691 54.3083C59.9277 53.5461 59.4069 52.5747 59.1953 51.5164C58.9842 50.4608 59.0901 49.3668 59.4988 48.3717L64.8061 35.1034L66.6167 35.1081ZM64.4503 50.3537L64.4416 50.3754L64.4325 50.397C64.4227 50.4202 64.4202 50.4457 64.4251 50.4704C64.4294 50.4919 64.4394 50.5119 64.4537 50.5284L64.4601 50.5353L64.4877 50.5623L64.5144 50.5903C64.532 50.6086 64.5548 50.6212 64.5796 50.6264C64.6046 50.6315 64.6305 50.629 64.6539 50.6192L64.6747 50.6104L74.393 46.7137C74.0671 45.2406 73.3283 43.8771 72.2462 42.7922C71.1657 41.7089 69.8068 40.9671 68.3371 40.6365L64.4503 50.3537Z" fill="#49D3D3"/>
<path d="M86.7458 26.676L79.9209 31.218V38.8721L76.4969 42.3322L72.7059 38.5806L74.5874 36.6793V28.3609L83.7909 22.236L86.7458 26.676Z" fill="#49D3D3"/>
<path d="M45.295 69.7625H50.6001L55.9297 69.7628V64.4293H53.2748V64.4573H45.295V69.7625Z" fill="#241A56"/>
<path fill-rule="evenodd" clip-rule="evenodd" d="M37.2918 85.7625V80.4291H34.6236V85.7629L37.2918 85.7625Z" fill="#241A56"/>
<path d="M23.9442 85.7625L34.6236 85.7629V80.4291H23.9442V85.7625Z" fill="#241A56"/>
<path d="M64.4503 50.3537L64.4416 50.3754L64.4325 50.397C64.4227 50.4202 64.4202 50.4457 64.4251 50.4704C64.4294 50.4919 64.4394 50.5119 64.4537 50.5284L64.4601 50.5353L64.4877 50.5623L64.5144 50.5903C64.532 50.6086 64.5548 50.6212 64.5796 50.6264C64.6046 50.6315 64.6305 50.629 64.6539 50.6192L64.6747 50.6104L74.393 46.7137C74.0671 45.2406 73.3283 43.8771 72.2462 42.7922C71.1657 41.7089 69.8068 40.9671 68.3371 40.6365L64.4503 50.3537Z" fill="#49D3D3"/>
</svg>
