<svg width="109" height="108" viewBox="0 0 109 108" fill="none" xmlns="http://www.w3.org/2000/svg">
<rect x="0.200012" width="108" height="108" rx="10" fill="#FAFAFA"/>
<path fill-rule="evenodd" clip-rule="evenodd" d="M45.0617 57.4843C44.8777 57.4843 49.5826 40.5488 51.9581 32.081L53.3189 26.7556C54.1437 28.7301 55.9493 30.2388 58.2197 30.582C61.6784 31.1048 64.9063 28.7249 65.429 25.2661C65.952 21.8074 63.5719 18.5797 60.1132 18.0568C56.9061 17.5719 53.8993 19.5837 53.0617 22.6363C52.6007 22.0048 51.9257 21.5238 51.1092 21.3152L42.131 19.0213C40.2645 18.5444 38.3649 19.6707 37.8881 21.5371L36.9 25.404C36.423 27.2705 37.5494 29.1701 39.4158 29.6469L41.0032 30.0525C39.7586 30.3587 38.7299 31.3411 38.4302 32.6764L34.0356 52.2603C33.6139 54.14 34.7957 56.0056 36.6753 56.4274L42.7112 57.7818C43.538 57.9672 44.3619 57.8423 45.0617 57.4843Z" fill="#241A56"/>
<path d="M65.3485 70.0538C65.3205 69.7445 65.2508 69.4405 65.1415 69.15L61.0906 58.3937L61.6584 54.6381L60.4865 54.5948C57.8374 54.4969 56.0457 52.5923 55.6312 51.3372L51.9513 40.1965L58.2469 50.4732C58.7315 51.2637 59.5985 51.8054 60.5882 51.8419C65.5107 52.0234 69.0411 52.162 71.4569 52.26C72.2388 52.2918 72.9996 52.0031 73.5642 51.4613C74.1288 50.9195 74.4497 50.1707 74.4497 49.3882C74.4497 47.8345 73.2201 46.5594 71.6675 46.5028L62.3374 46.1631L56.6361 36.8567L63.3677 43.3317L64.1555 38.1194C64.5087 35.7829 62.9009 33.6024 60.5646 33.2492L53.0202 32.1088C52.6604 32.0544 52.3044 32.0468 51.9581 32.081C49.5826 40.5488 44.8777 57.4843 45.0617 57.4843C45.0847 57.8279 45.1594 58.1738 45.2917 58.5114L49.5396 69.3454L41.1097 80.3359C39.9523 81.8449 40.2372 84.0064 41.7463 85.164C43.2566 86.3225 45.418 86.0349 46.5745 84.5273L56.1876 71.9943C56.922 71.0369 57.1016 69.7649 56.6612 68.6415L53.0382 59.402C52.9728 59.2351 53.0014 59.0458 53.1133 58.9057C53.2251 58.7655 53.4032 58.6956 53.5807 58.7225C53.7603 58.7498 53.9114 58.8718 53.9754 59.0419L58.5311 71.1391L59.9529 86.8813C60.1239 88.7743 61.7968 90.1721 63.6922 90.0011C65.5864 89.8301 66.983 88.1559 66.812 86.2618L65.3485 70.0538Z" fill="#49D3D3"/>
</svg>
