<svg width="109" height="108" viewBox="0 0 109 108" fill="none" xmlns="http://www.w3.org/2000/svg">
<rect x="0.200012" width="108" height="108" rx="10" fill="#FAFAFA"/>
<path fill-rule="evenodd" clip-rule="evenodd" d="M54.0874 36.8126L42.9362 25.6635C43.0574 25.2895 43.1402 24.8985 43.1402 24.484C43.1381 22.3269 41.3912 20.58 39.234 20.58C37.079 20.58 35.3321 22.3269 35.3321 24.484C35.3321 26.639 37.079 28.386 39.234 28.386C39.9864 28.386 40.6792 28.1628 41.2743 27.7973L51.3819 37.9028C50.2704 38.8103 49.5479 40.1726 49.5479 41.7198C49.5479 43.0225 50.0622 44.2042 50.8889 45.0883V49.9891C49.9091 45.8682 47.9837 40.502 44.1816 35.5991C36.6306 25.8697 20.1961 26.2034 20.1961 26.2034V56.894H31.156C28.9394 59.3317 27.575 62.5663 27.575 66.1176C27.575 67.9559 27.9447 69.7114 28.6014 71.3159C24.6825 71.6432 21.6051 74.9224 21.6051 78.9285C21.6051 83.1493 25.0268 86.573 29.2518 86.573C33.4109 86.573 36.7858 83.2534 36.8878 79.1198C38.2841 79.598 39.7717 79.8721 41.3274 79.8721C45.0402 79.8721 48.4087 78.3866 50.8868 75.9872V80.4693C50.8358 80.7074 50.806 80.956 50.806 81.2153C50.806 83.1556 52.3808 84.7326 54.3254 84.7326V36.8126C54.288 36.8177 54.125 36.809 54.0874 36.8126ZM28.5823 39.6221C34.6201 30.7322 43.8437 49.6831 43.8437 49.6831C43.8437 49.6831 22.5445 48.5099 28.5823 39.6221ZM36.9664 66.1154C36.9664 68.5212 38.9216 70.4764 41.3274 70.4764C43.7311 70.4764 45.6884 68.5212 45.6884 66.1154C45.6884 63.7097 43.7311 61.7544 41.3274 61.7544C38.9216 61.7544 36.9664 63.7097 36.9664 66.1154Z" fill="#241A56"/>
<path fill-rule="evenodd" clip-rule="evenodd" d="M54.438 36.8093L65.5892 25.6602C65.468 25.2862 65.3851 24.8952 65.3851 24.4807C65.3873 22.3236 67.1342 20.5767 69.2913 20.5767C71.4463 20.5767 73.1933 22.3236 73.1933 24.4807C73.1933 26.6357 71.4463 28.3827 69.2913 28.3827C68.539 28.3827 67.8462 28.1595 67.2511 27.794L57.1434 37.8995C58.255 38.807 58.9775 40.1693 58.9775 41.7165C58.9775 43.0192 58.4632 44.2009 57.6365 45.085V49.9858C58.6162 45.8649 60.5417 40.4987 64.3438 35.5958C71.8948 25.8664 88.3293 26.2001 88.3293 26.2001V56.8907H77.3694C79.586 59.3284 80.9504 62.563 80.9504 66.1143C80.9504 67.9526 80.5806 69.7081 79.9239 71.3126C83.8429 71.6399 86.9202 74.9192 86.9202 78.9252C86.9202 83.146 83.4986 86.5697 79.2736 86.5697C75.1145 86.5697 71.7396 83.2501 71.6376 79.1165C70.2413 79.5947 68.7537 79.8688 67.198 79.8688C63.4852 79.8688 60.1167 78.3833 57.6386 75.9839V80.466C57.6896 80.7041 57.7194 80.9527 57.7194 81.212C57.7194 83.1523 56.1446 84.7293 54.2 84.7293V36.8093C54.2374 36.8144 54.4004 36.8058 54.438 36.8093ZM79.9431 39.6188C73.9053 30.729 64.6817 49.6798 64.6817 49.6798C64.6817 49.6798 85.9809 48.5066 79.9431 39.6188ZM71.559 66.1121C71.559 68.5179 69.6038 70.4731 67.198 70.4731C64.7943 70.4731 62.837 68.5179 62.837 66.1121C62.837 63.7064 64.7943 61.7511 67.198 61.7511C69.6038 61.7511 71.559 63.7064 71.559 66.1121Z" fill="#49D3D3"/>
</svg>
