<svg width="109" height="108" viewBox="0 0 109 108" fill="none" xmlns="http://www.w3.org/2000/svg">
<rect x="0.400024" width="108" height="108" rx="10" fill="#FAFAFA"/>
<path d="M69.6247 77.6827C74.296 77.6827 78.0828 73.8959 78.0828 69.2246C78.0828 64.5533 74.296 60.7665 69.6247 60.7665C64.9534 60.7665 61.1666 64.5533 61.1666 69.2246C61.1666 73.8959 64.9534 77.6827 69.6247 77.6827Z" fill="#49D3D3"/>
<path d="M39.1755 47.2335C43.8467 47.2335 47.6336 43.4467 47.6336 38.7754C47.6336 34.1041 43.8467 30.3173 39.1755 30.3173C34.5042 30.3173 30.7173 34.1041 30.7173 38.7754C30.7173 43.4467 34.5042 47.2335 39.1755 47.2335Z" fill="#49D3D3"/>
<path d="M69.348 41.8808L67.932 40.4681L66.5192 39.0521L39.4521 66.1191L40.8682 67.5319L42.2809 68.9479L69.348 41.8808Z" fill="#3B2F77"/>
<path fill-rule="evenodd" clip-rule="evenodd" d="M76.3922 42.4668C82.1676 42.4662 86.848 37.7833 86.848 32.0078C86.8474 26.2328 82.1672 21.5526 76.3922 21.5521C70.6168 21.5521 65.9339 26.2324 65.9333 32.0078C65.9333 34.4591 66.7832 36.7091 68.1956 38.4922C67.6002 38.4134 66.9769 38.5947 66.5192 39.0521L69.348 41.8808C69.8062 41.4222 69.9846 40.7977 69.9046 40.2011C71.6882 41.6153 73.9393 42.4668 76.3922 42.4668ZM84.8493 32.0089C84.8493 36.6802 81.0625 40.467 76.3912 40.467C71.7199 40.467 67.933 36.6802 67.933 32.0089C67.933 27.3376 71.7199 23.5508 76.3912 23.5508C81.0625 23.5508 84.8493 27.3376 84.8493 32.0089Z" fill="#3B2F77"/>
<path fill-rule="evenodd" clip-rule="evenodd" d="M76.083 69.2246C76.083 65.6579 73.1914 62.7663 69.6247 62.7663C66.058 62.7663 63.1663 65.6579 63.1663 69.2246C63.1663 72.7913 66.058 75.6829 69.6247 75.6829C73.1914 75.6829 76.083 72.7913 76.083 69.2246ZM45.6338 38.7754C45.6338 35.2086 42.7422 32.317 39.1755 32.317C35.6087 32.317 32.7171 35.2087 32.7171 38.7754C32.7171 42.3421 35.6087 45.2337 39.1755 45.2337C42.7422 45.2337 45.6338 42.3421 45.6338 38.7754ZM80.0837 69.2246C80.0837 75.0004 75.4005 79.6836 69.6247 79.6836C67.1733 79.6836 64.9233 78.8337 63.1403 77.4212C63.2187 78.0166 63.0379 78.6401 62.5804 79.0976L55.8128 85.862C55.0318 86.643 53.7684 86.643 52.9873 85.862C52.2063 85.0809 52.2063 83.8175 52.9873 83.0364L59.7516 76.2689L60.0674 76.0117C60.4749 75.7431 60.958 75.6451 61.4248 75.7057C60.014 73.9232 59.1657 71.6743 59.1657 69.2246C59.1657 63.4487 63.8488 58.7656 69.6247 58.7656C75.4005 58.7656 80.0837 63.4487 80.0837 69.2246ZM49.6344 38.7754C49.6344 44.5512 44.9513 49.2344 39.1755 49.2344C33.3996 49.2344 28.7165 44.5512 28.7165 38.7754C28.7165 32.9995 33.3996 28.3164 39.1755 28.3164C41.6252 28.3164 43.8741 29.1647 45.6566 30.5755C45.5794 29.9812 45.7632 29.3589 46.2197 28.9023L52.9873 22.138C53.7684 21.357 55.0318 21.357 55.8128 22.138C56.5939 22.919 56.5939 24.1825 55.8128 24.9635L49.0485 31.7311L48.7327 31.9883C48.3242 32.2576 47.84 32.3526 47.3721 32.291C48.7846 34.074 49.6344 36.324 49.6344 38.7754Z" fill="#49D3D3"/>
<path d="M82.8506 32.0078C82.85 28.4419 79.9581 25.55 76.3922 25.5495C72.8259 25.5495 69.9345 28.4416 69.9339 32.0078C69.9339 35.5745 72.8255 38.4661 76.3922 38.4661C79.9585 38.4655 82.8506 35.5741 82.8506 32.0078Z" fill="#3B2F77"/>
<path fill-rule="evenodd" clip-rule="evenodd" d="M76.3912 40.467C81.0625 40.467 84.8493 36.6802 84.8493 32.0089C84.8493 27.3376 81.0625 23.5508 76.3912 23.5508C71.7199 23.5508 67.933 27.3376 67.933 32.0089C67.933 36.6802 71.7199 40.467 76.3912 40.467ZM76.3922 25.5495C79.9581 25.55 82.85 28.4419 82.8506 32.0078C82.8506 35.5741 79.9585 38.4655 76.3922 38.4661C72.8255 38.4661 69.9339 35.5745 69.9339 32.0078C69.9345 28.4416 72.8259 25.5495 76.3922 25.5495Z" fill="#3B2F77"/>
<path fill-rule="evenodd" clip-rule="evenodd" d="M32.409 84.4492C37.0802 84.4492 40.8671 80.6624 40.8671 75.9911C40.8671 71.3198 37.0802 67.533 32.409 67.533C27.7377 67.533 23.9508 71.3198 23.9508 75.9911C23.9508 80.6624 27.7377 84.4492 32.409 84.4492ZM32.4079 69.5338C35.9746 69.5338 38.8662 72.4254 38.8662 75.9922C38.8656 79.5584 35.9742 82.4505 32.4079 82.4505C28.842 82.4499 25.9501 79.558 25.9495 75.9922C25.9495 72.4258 28.8417 69.5344 32.4079 69.5338Z" fill="#3B2F77"/>
<path d="M38.8662 75.9922C38.8662 72.4254 35.9746 69.5338 32.4079 69.5338C28.8417 69.5344 25.9495 72.4258 25.9495 75.9922C25.9501 79.558 28.842 82.4499 32.4079 82.4505C35.9742 82.4505 38.8656 79.5584 38.8662 75.9922Z" fill="#3B2F77"/>
<path fill-rule="evenodd" clip-rule="evenodd" d="M32.4079 86.4479C38.1834 86.4479 42.8663 81.7675 42.8669 75.9922C42.8669 73.5392 42.0154 71.2881 40.6012 69.5045C41.1978 69.5845 41.8223 69.4062 42.2809 68.9479L39.4521 66.1191C38.9948 66.5768 38.8135 67.2001 38.8923 67.7955C37.1092 66.3831 34.8592 65.5332 32.4079 65.5332C26.6325 65.5338 21.9521 70.2167 21.9521 75.9922C21.9527 81.7672 26.6329 86.4473 32.4079 86.4479ZM40.8671 75.9911C40.8671 80.6624 37.0802 84.4492 32.409 84.4492C27.7377 84.4492 23.9508 80.6624 23.9508 75.9911C23.9508 71.3198 27.7377 67.533 32.409 67.533C37.0802 67.533 40.8671 71.3198 40.8671 75.9911Z" fill="#3B2F77"/>
</svg>
