<svg width="109" height="108" viewBox="0 0 109 108" fill="none" xmlns="http://www.w3.org/2000/svg">
<rect x="0.400024" width="108" height="108" rx="10" fill="#FAFAFA"/>
<path fill-rule="evenodd" clip-rule="evenodd" d="M24.2188 44C29.5745 44 34.0376 48.5455 34.0376 54C34.0376 59.4545 29.5745 64 24.2188 64C18.7524 64 14.4 59.4545 14.4 54C14.4 48.5455 18.7524 44 24.2188 44ZM54.3465 44C59.7022 44 64.1653 48.5455 64.1653 54C64.1653 59.4545 59.7022 64 54.3465 64C48.9908 64 44.5277 59.4545 44.5277 54C44.5277 48.5455 48.9908 44 54.3465 44Z" fill="#241A56"/>
<path d="M94.4 54C94.4 48.5455 90.0476 44 84.5812 44C79.2255 44 74.7624 48.5455 74.7624 54C74.7624 59.4545 79.2255 64 84.5812 64C90.0476 64 94.4 59.4545 94.4 54Z" fill="#49D3D3"/>
</svg>
