<svg width="109" height="108" viewBox="0 0 109 108" fill="none" xmlns="http://www.w3.org/2000/svg">
<rect x="0.400024" width="108" height="108" rx="10" fill="#FAFAFA"/>
<path d="M54.4004 67.7202C52.3874 67.7202 50.4227 67.2709 48.7102 66.4191L29.8604 57.0413V73.189C29.8604 77.9682 40.8525 81.8369 54.4004 81.8369C67.9531 81.8369 78.9442 77.9681 78.9442 73.189V57.0413L60.0952 66.4191C58.3827 67.2709 56.4133 67.7202 54.4004 67.7202Z" fill="#49D3D3"/>
<path fill-rule="evenodd" clip-rule="evenodd" d="M89.7959 42.9432L57.4807 26.8677C56.5343 26.3992 55.4674 26.1641 54.4005 26.1641C53.3336 26.1641 52.266 26.399 51.3253 26.8677L19.0097 42.9432C18.1468 43.3723 17.6227 44.1301 17.6227 44.9457C17.6227 45.7615 18.1468 46.5196 19.0097 46.9493L51.3252 63.025C52.2658 63.4939 53.3335 63.7286 54.4004 63.7286C55.4672 63.7286 56.5343 63.4936 57.4805 63.025L89.7959 46.9493C90.6588 46.5198 91.1829 45.7615 91.1829 44.9457C91.1829 44.1301 90.6588 43.372 89.7959 42.9432Z" fill="#241A56"/>
<path d="M88.1122 79.8886C88.7056 79.8886 89.267 79.6738 89.6407 79.3031C90.0144 78.9327 90.1601 78.4467 90.0375 77.9803L88.7983 73.2679C89.504 72.7193 89.9476 71.9533 89.9476 71.1016C89.9476 70.2051 89.4507 69.4098 88.6795 68.8574V52.4926L83.7121 54.9629V68.8574C82.9409 69.4098 82.4438 70.2051 82.4438 71.1016C82.4438 71.9534 82.8876 72.7194 83.5933 73.2679L82.354 77.9803C82.2314 78.4468 82.3773 78.9328 82.7508 79.3031C83.1245 79.6736 83.6859 79.8886 84.2792 79.8886H88.1122Z" fill="#49D3D3"/>
</svg>
