<svg width="108" height="108" viewBox="0 0 108 108" fill="none" xmlns="http://www.w3.org/2000/svg">
<rect width="108" height="108" rx="10" fill="#FAFAFA"/>
<path d="M94 61.6883H13.6745V66.7086H94V61.6883Z" fill="#49D3D3"/>
<path d="M21.2053 70.3686C19.2987 70.3686 17.7538 71.9142 17.7538 73.8201C17.7538 75.7273 19.2987 77.2716 21.2053 77.2716C23.1112 77.2716 24.6562 75.7272 24.6562 73.8201C24.6562 71.9142 23.1112 70.3686 21.2053 70.3686Z" fill="#49D3D3"/>
<path d="M37.5214 70.3686C35.6148 70.3686 34.0699 71.9142 34.0699 73.8201C34.0699 75.7273 35.6148 77.2716 37.5214 77.2716C39.4273 77.2716 40.9723 75.7272 40.9723 73.8201C40.9724 71.9142 39.4273 70.3686 37.5214 70.3686Z" fill="#49D3D3"/>
<path d="M53.8378 70.3686C51.9312 70.3686 50.3864 71.9142 50.3864 73.8201C50.3864 75.7273 51.9312 77.2716 53.8378 77.2716C55.7437 77.2716 57.2887 75.7272 57.2887 73.8201C57.2887 71.9142 55.7437 70.3686 53.8378 70.3686Z" fill="#49D3D3"/>
<path d="M70.1543 70.3686C68.2483 70.3686 66.7028 71.9142 66.7028 73.8201C66.7028 75.7273 68.2484 77.2716 70.1543 77.2716C72.0601 77.2716 73.6045 75.7272 73.6045 73.8201C73.6045 71.9142 72.0601 70.3686 70.1543 70.3686Z" fill="#49D3D3"/>
<path d="M86.4719 70.3686C84.5647 70.3686 83.0204 71.9142 83.0204 73.8201C83.0204 75.7273 84.5648 77.2716 86.4719 77.2716C88.3765 77.2716 89.9209 75.7272 89.9209 73.8201C89.9211 71.9142 88.3767 70.3686 86.4719 70.3686Z" fill="#49D3D3"/>
<path d="M47.1442 30.7286H38.3578V40.3515L33.7566 37.4514L29.1542 40.3515V30.7286H20.3679V57.5049H47.1442V30.7286Z" fill="#241A56"/>
</svg>
