<svg width="109" height="108" viewBox="0 0 109 108" fill="none" xmlns="http://www.w3.org/2000/svg">
<rect x="0.400024" width="108" height="108" rx="10" fill="#FAFAFA"/>
<path d="M28.5862 20.2961C26.3153 20.2961 24.4574 22.1975 24.4574 24.4684V47.2858C23.9032 47.6715 23.3654 48.0681 22.8493 48.5027C22.2245 49.0297 22.1485 49.9641 22.6754 50.5888C23.2024 51.2136 24.1368 51.2897 24.7616 50.7627C28.1788 47.8888 32.5521 46.1558 37.3655 46.1558C48.2254 46.1558 57.0101 54.9459 57.0101 65.8004C56.9558 66.3546 57.222 66.8924 57.6946 67.1858C58.1673 67.4846 58.7649 67.4846 59.2375 67.1858C59.7102 66.8924 59.9764 66.3546 59.922 65.8004C59.922 65.4636 59.8949 65.1322 59.8786 64.8008H65.8763C68.2665 61.563 77.3067 59.7016 82.5656 64.1054C82.8426 63.9533 83.0871 63.7686 83.3479 63.5839C84.3203 62.8776 85.1841 61.9704 85.6079 60.8023L89.6498 49.7631C90.117 48.4918 89.5411 47.0902 88.6936 46.3731C87.8461 45.656 86.8139 45.33 85.7383 45.33H76.0028V36.9854C76.0028 34.3342 76.6005 33.378 76.9156 33.0738C77.0731 32.9217 77.2035 32.9163 77.2632 32.9C77.6653 32.9163 78.051 32.7641 78.3389 32.4871C78.6268 32.21 78.7898 31.8243 78.7844 31.4223V28.6407C78.7898 28.2496 78.6323 27.8693 78.3552 27.5922C78.0781 27.3151 77.6979 27.1576 77.3067 27.163C75.5139 27.163 73.1453 27.489 71.0917 28.9015C69.0381 30.314 67.4844 32.8945 67.4844 36.7246V45.33H60.3132L54.5763 24.1642C54.5708 24.1316 54.5382 24.1098 54.5328 24.0772C54.3318 23.1863 53.9624 22.317 53.3159 21.5999C52.6477 20.8557 51.5937 20.2961 50.4474 20.2961H28.5862Z" fill="#3B2F77"/>
<path fill-rule="evenodd" clip-rule="evenodd" d="M36.9743 49.5023C27.7767 49.5023 20.285 56.994 20.285 66.1916C20.285 75.3891 27.7767 82.8808 36.9743 82.8808C46.1719 82.8808 53.6636 75.3891 53.6636 66.1916C53.6636 56.994 46.1719 49.5023 36.9743 49.5023ZM36.9743 61.3239H36.8874C34.2308 61.3728 32.1066 63.5241 32.1066 66.1916C32.1066 68.8862 34.2797 71.0593 36.9743 71.0593C39.6689 71.0593 41.842 68.8862 41.842 66.1916C41.842 63.497 39.6744 61.3239 36.9743 61.3239Z" fill="#49D3D3"/>
<ellipse cx="75.4137" cy="70.7709" rx="12.1094" ry="12.1094" fill="#49D3D3"/>
<circle cx="75.4189" cy="70.7709" r="3.70768" fill="white"/>
<rect x="29.1461" y="24.791" width="22.0964" height="12.487" rx="1" fill="#241A56"/>
</svg>
