<svg width="108" height="108" viewBox="0 0 108 108" fill="none" xmlns="http://www.w3.org/2000/svg">
<rect width="108" height="108" rx="10" fill="#FAFAFA"/>
<path d="M31.0833 20.6667L17.3333 34.6667V39.3334C17.3333 39.3334 26.5 44 35.6667 44C44.8333 44 54 39.3334 54 39.3334C54 39.3334 63.1667 44 72.3333 44C81.5 44 90.6667 39.3334 90.6667 39.3334V34.6667L76.9167 20.6667H31.0833Z" fill="#241A56"/>
<path fill-rule="evenodd" clip-rule="evenodd" d="M24 84V52.1297C27.6946 53.1771 32.5124 54.1801 37.5714 54.1801C43.4637 54.1801 49.0286 52.8196 52.873 51.6129C53.8989 51.2908 54.8372 50.9686 55.6667 50.6667C56.4962 50.9686 57.4344 51.2908 58.4603 51.6129C62.3048 52.8196 67.8696 54.1801 73.7619 54.1801C78.8209 54.1801 83.6387 53.1771 87.3333 52.1297V84H51.1429V62.7001H37.5714V84H24ZM73.7619 62.7001H64.7143V75.48H73.7619V62.7001Z" fill="#49D3D3"/>
</svg>
