<svg width="108" height="108" viewBox="0 0 108 108" fill="none" xmlns="http://www.w3.org/2000/svg">
<rect width="108" height="108" rx="10" fill="#FAFAFA"/>
<path fill-rule="evenodd" clip-rule="evenodd" d="M89.7334 34.5053C89.7334 29.1221 85.3696 24.7581 79.9861 24.7581H28.0006C22.6173 24.7581 18.2533 29.1221 18.2533 34.5053V73.4944C18.2533 78.8778 22.6173 83.2416 28.0006 83.2416H79.9861C85.3696 83.2416 89.7334 78.8778 89.7334 73.4944V34.5053ZM83.2352 34.5053C83.2352 32.7109 81.7806 31.2562 79.9861 31.2562H28.0006C26.2062 31.2562 24.7515 32.7109 24.7515 34.5053V73.4944C24.7515 75.2888 26.2062 76.7435 28.0006 76.7435H79.9861C81.7806 76.7435 83.2352 75.2888 83.2352 73.4944V34.5053Z" fill="#241A56"/>
<path fill-rule="evenodd" clip-rule="evenodd" d="M40.9961 41.0043C35.6128 41.0043 31.2488 45.3683 31.2488 50.7514V63.7478C31.2488 65.5423 32.7035 66.9969 34.4979 66.9969C36.2923 66.9969 37.747 65.5423 37.747 63.7478V60.4987H44.2452V63.7478C44.2452 65.5423 45.6999 66.9969 47.4943 66.9969C49.2888 66.9969 50.7434 65.5423 50.7434 63.7478V50.7514C50.7434 45.3683 46.3794 41.0043 40.9961 41.0043ZM44.2452 54.0005V50.7514C44.2452 48.9573 42.7905 47.5023 40.9961 47.5023C39.2017 47.5023 37.747 48.9573 37.747 50.7514V54.0005H44.2452Z" fill="#49D3D3"/>
<path fill-rule="evenodd" clip-rule="evenodd" d="M57.2398 45.8779C57.2398 43.1863 59.4219 41.0043 62.1135 41.0043H66.22C69.9119 41.0043 73.2871 43.0902 74.9383 46.3925L75.0192 46.5544C76.1473 48.8101 76.7344 51.2976 76.7344 53.8196V54.1818C76.7344 56.7038 76.1473 59.1913 75.0192 61.4468L74.9383 61.6089C73.2871 64.911 69.9119 66.9969 66.22 66.9969H62.1135C59.4219 66.9969 57.2398 64.8151 57.2398 62.1233V45.8779ZM63.738 47.5023H66.22C67.4507 47.5023 68.5759 48.1977 69.1263 49.2984L69.2072 49.4606C69.884 50.8138 70.2362 52.3065 70.2362 53.8196V54.1818C70.2362 55.6949 69.884 57.1872 69.2072 58.5408L69.1263 58.703C68.5759 59.8034 67.4507 60.4987 66.22 60.4987H63.738V47.5023Z" fill="#49D3D3"/>
</svg>
