<svg width="109" height="108" viewBox="0 0 109 108" fill="none" xmlns="http://www.w3.org/2000/svg">
<rect x="0.200012" width="108" height="108" rx="10" fill="#FAFAFA"/>
<path fill-rule="evenodd" clip-rule="evenodd" d="M28.1955 58.2878L32.3688 56.411V40.0857C32.3688 39.8121 32.419 39.5623 32.5129 39.332C32.6527 38.9877 32.8907 38.6866 33.1878 38.4769C33.487 38.2684 33.8321 38.1487 34.2252 38.1475H70.8427C71.1048 38.1475 71.345 38.2011 71.5635 38.2992C71.8953 38.4451 72.1837 38.6925 72.3846 39.0037C72.5835 39.3163 72.6992 39.6765 72.6992 40.0857L72.699 56.411L76.8704 58.2877V40.0857C76.8726 39.2226 76.7022 38.3891 76.3963 37.6355C75.9377 36.5021 75.1755 35.5456 74.2148 34.8671C73.2559 34.19 72.0831 33.7898 70.8427 33.7908H61.5742V21.2955C61.5742 20.7539 61.4672 20.2283 61.2727 19.7529C60.9845 19.0392 60.5062 18.4382 59.9013 18.0106C59.2986 17.5843 58.5583 17.3333 57.7786 17.3333H47.2893C46.7695 17.3333 46.2651 17.444 45.8108 17.6457C45.1273 17.9479 44.5507 18.4472 44.1422 19.0778C43.7339 19.7083 43.4936 20.4825 43.4936 21.2955V33.7908H34.2252C33.3975 33.7908 32.6005 33.9675 31.8776 34.2868C30.7921 34.7669 29.8771 35.5615 29.2263 36.565C28.5777 37.5672 28.1955 38.7895 28.1955 40.0858V58.2878ZM57.4007 25.0774H47.6671V29.4342H57.4007V25.0774Z" fill="#241A56"/>
<path d="M81.4193 60.3321L76.8704 58.2877L72.699 56.411L55.1316 48.5129C53.4741 47.7671 51.5937 47.7671 49.934 48.5129L32.3688 56.411L28.1955 58.2878L23.6486 60.3321C21.3925 61.3456 20.2983 64.0307 21.1611 66.4308L30.7463 90.6666H52.5329H74.3219L83.9049 66.4308C84.7695 64.0307 83.6732 61.3456 81.4193 60.3321Z" fill="#49D3D3"/>
</svg>
