<svg width="109" height="108" viewBox="0 0 109 108" fill="none" xmlns="http://www.w3.org/2000/svg">
<rect x="0.400024" width="108" height="108" rx="10" fill="#FAFAFA"/>
<path d="M84.2633 47.9008L61.4522 27.6242C58.9557 25.4053 57.7077 24.2959 56.2993 23.8745C55.0582 23.5033 53.7361 23.5033 52.495 23.8745C51.0867 24.2959 49.8386 25.4053 47.3422 27.6242L24.531 47.9008H84.2633Z" fill="#241A56"/>
<path d="M32.1514 57.8572C32.1514 56.5688 33.1972 55.5237 34.4854 55.5232C35.7741 55.5232 36.8194 56.5685 36.8194 57.8572V72.115H45.4262V57.8572C45.4262 56.5685 46.4715 55.5232 47.7602 55.5232C49.0488 55.5232 50.0942 56.5685 50.0942 57.8572V72.115H58.7009V57.8572C58.7009 56.5685 59.7462 55.5232 61.0349 55.5232C62.3232 55.5236 63.3689 56.5688 63.3689 57.8572V72.115H71.9757V57.8572C71.9757 56.569 73.0184 55.524 74.3064 55.5232C75.5951 55.5232 76.6404 56.5685 76.6404 57.8572V72.115H80.9438L81.4158 72.1638C82.4786 72.3817 83.2778 73.3217 83.2778 74.449C83.2775 75.5761 82.4785 76.5163 81.4158 76.7341L80.9438 76.783H27.8481C26.5602 76.7822 25.5176 75.7369 25.5173 74.449C25.5173 73.1608 26.56 72.1158 27.8481 72.115H32.1514V57.8572Z" fill="#49D3D3"/>
<path fill-rule="evenodd" clip-rule="evenodd" d="M52.4607 21.4737C53.9491 21.1447 55.5018 21.2009 56.9692 21.6397L57.7504 21.9229C58.507 22.2498 59.1955 22.6961 59.8793 23.2153C60.7219 23.8549 61.6753 24.7025 62.8127 25.7138L63.0011 25.8813L85.8136 46.158C86.537 46.8015 86.7889 47.8245 86.4451 48.7296C86.1009 49.6349 85.2325 50.2332 84.2641 50.2335H24.531C23.5623 50.2335 22.6943 49.6351 22.35 48.7296C22.006 47.8242 22.2577 46.8015 22.9815 46.158L45.7908 25.8813L47.4802 24.3936C47.9969 23.9483 48.4718 23.5523 48.9158 23.2153C49.8273 22.5234 50.7471 21.9626 51.8259 21.6397L52.4607 21.4737ZM53.7758 25.9757L53.1638 26.1091C52.8349 26.2076 52.4259 26.4106 51.738 26.9327C51.3824 27.2027 50.9899 27.5295 50.5271 27.9288L48.893 29.3676L30.6671 45.5688H78.128L59.9021 29.3676C58.627 28.2343 57.7685 27.4728 57.057 26.9327C56.5408 26.5408 56.181 26.3298 55.8949 26.2068L55.6313 26.1091C55.0276 25.9286 54.3942 25.8854 53.7758 25.9757ZM52.8513 36.2198C53.8046 35.3527 55.2817 35.4228 56.1488 36.3761C57.0149 37.329 56.9445 38.8033 55.9926 39.6703L55.9666 39.6931C55.0132 40.5602 53.5394 40.4902 52.6723 39.5369C51.8053 38.5836 51.8753 37.1097 52.8285 36.2426L52.8513 36.2198Z" fill="#241A56"/>
<path d="M84.2641 82.0694L84.7328 82.1182C85.7963 82.3355 86.5979 83.2758 86.5981 84.4034C86.5981 85.5311 85.7963 86.4712 84.7328 86.6886L84.2641 86.7374H24.531C23.2423 86.7374 22.197 85.6921 22.197 84.4034C22.1973 83.1149 23.2425 82.0694 24.531 82.0694H84.2641Z" fill="#49D3D3"/>
</svg>
