<svg width="343" height="56" viewBox="0 0 343 56" fill="none" xmlns="http://www.w3.org/2000/svg">
<path d="M48.7431 19.8101H37.159C36.9474 18.3033 36.5154 16.9649 35.8631 15.7949C35.2107 14.6072 34.3732 13.5967 33.3505 12.7635C32.3279 11.9304 31.1466 11.2922 29.8065 10.849C28.4842 10.4058 27.0472 10.1842 25.4956 10.1842C22.6921 10.1842 20.2501 10.8845 18.1696 12.2849C16.089 13.6676 14.4757 15.6885 13.3296 18.3476C12.1836 20.9889 11.6105 24.1975 11.6105 27.9734C11.6105 31.8557 12.1836 35.1174 13.3296 37.7588C14.4933 40.4001 16.1155 42.3944 18.196 43.7417C20.2766 45.089 22.6833 45.7626 25.4162 45.7626C26.9502 45.7626 28.3696 45.5587 29.6743 45.151C30.9967 44.7433 32.1692 44.1494 33.1918 43.3694C34.2145 42.5717 35.0608 41.6056 35.7308 40.471C36.4185 39.3365 36.8945 38.0424 37.159 36.5888L48.7431 36.642C48.4433 39.1415 47.694 41.5524 46.495 43.8746C45.3137 46.1792 43.718 48.2444 41.708 50.0703C39.7156 51.8784 37.3353 53.3143 34.5671 54.378C31.8166 55.4239 28.7046 55.9468 25.2311 55.9468C20.4 55.9468 16.0802 54.8477 12.2717 52.6496C8.48089 50.4514 5.48349 47.2694 3.27951 43.1035C1.09317 38.9376 0 33.8943 0 27.9734C0 22.0348 1.1108 16.9826 3.33241 12.8167C5.55401 8.65084 8.56905 5.47768 12.3775 3.29725C16.186 1.09908 20.4705 0 25.2311 0C28.3696 0 31.2788 0.443178 33.9588 1.32954C36.6565 2.21589 39.0456 3.50997 41.1262 5.21177C43.2067 6.89585 44.8994 8.96106 46.2041 11.4074C47.5265 13.8538 48.3728 16.6546 48.7431 19.8101Z" fill="#3B2F77"/>
<path d="M75.0982 56C70.99 56 67.4372 55.1225 64.4398 53.3675C61.46 51.5948 59.1591 49.1307 57.5369 45.9753C55.9148 42.8022 55.1037 39.1238 55.1037 34.9402C55.1037 30.7211 55.9148 27.0339 57.5369 23.8784C59.1591 20.7053 61.46 18.2412 64.4398 16.4862C67.4372 14.7135 70.99 13.8272 75.0982 13.8272C79.2064 13.8272 82.7504 14.7135 85.7302 16.4862C88.7276 18.2412 91.0373 20.7053 92.6595 23.8784C94.2816 27.0339 95.0927 30.7211 95.0927 34.9402C95.0927 39.1238 94.2816 42.8022 92.6595 45.9753C91.0373 49.1307 88.7276 51.5948 85.7302 53.3675C82.7504 55.1225 79.2064 56 75.0982 56ZM75.1511 47.2251C77.0201 47.2251 78.5805 46.6933 79.8323 45.6296C81.0842 44.5483 82.0275 43.0769 82.6622 41.2156C83.3146 39.3542 83.6408 37.2358 83.6408 34.8604C83.6408 32.485 83.3146 30.3666 82.6622 28.5052C82.0275 26.6439 81.0842 25.1725 79.8323 24.0912C78.5805 23.0098 77.0201 22.4691 75.1511 22.4691C73.2645 22.4691 71.6776 23.0098 70.3905 24.0912C69.121 25.1725 68.1601 26.6439 67.5077 28.5052C66.873 30.3666 66.5556 32.485 66.5556 34.8604C66.5556 37.2358 66.873 39.3542 67.5077 41.2156C68.1601 43.0769 69.121 44.5483 70.3905 45.6296C71.6776 46.6933 73.2645 47.2251 75.1511 47.2251Z" fill="#3B2F77"/>
<path d="M113.685 0.74454V55.2023H102.419V0.74454H113.685Z" fill="#3B2F77"/>
<path d="M133.977 0.74454V55.2023H122.711V0.74454H133.977Z" fill="#3B2F77"/>
<path d="M154.587 55.9734C151.995 55.9734 149.685 55.5214 147.657 54.6173C145.63 53.6955 144.025 52.3394 142.844 50.5489C141.68 48.7407 141.098 46.4894 141.098 43.7949C141.098 41.5258 141.513 39.6201 142.341 38.0779C143.17 36.5356 144.299 35.2947 145.727 34.3552C147.155 33.4156 148.777 32.7066 150.593 32.2279C152.427 31.7493 154.349 31.4125 156.359 31.2175C158.721 30.9693 160.626 30.7388 162.071 30.5261C163.517 30.2957 164.566 29.9588 165.219 29.5157C165.871 29.0725 166.197 28.4166 166.197 27.548V27.3884C166.197 25.7043 165.668 24.4014 164.61 23.4796C163.57 22.5578 162.089 22.0969 160.167 22.0969C158.14 22.0969 156.526 22.5489 155.327 23.453C154.128 24.3394 153.335 25.4562 152.947 26.8034L142.527 25.9525C143.056 23.4707 144.096 21.3257 145.647 19.5176C147.199 17.6917 149.2 16.2912 151.651 15.3162C154.119 14.3235 156.976 13.8272 160.22 13.8272C162.477 13.8272 164.637 14.0931 166.7 14.6249C168.78 15.1567 170.623 15.981 172.227 17.0978C173.849 18.2146 175.128 19.6505 176.062 21.4055C176.997 23.1428 177.464 25.2257 177.464 27.6543V55.2023H166.779V49.5385H166.462C165.809 50.8148 164.937 51.9405 163.843 52.9155C162.75 53.8727 161.437 54.6261 159.903 55.1757C158.369 55.7075 156.597 55.9734 154.587 55.9734ZM157.813 48.1557C159.471 48.1557 160.934 47.8278 162.204 47.1719C163.473 46.4983 164.469 45.5942 165.192 44.4596C165.915 43.3251 166.277 42.0399 166.277 40.604V36.2697C165.924 36.5002 165.439 36.7129 164.822 36.9079C164.222 37.0852 163.544 37.2536 162.785 37.4131C162.027 37.5549 161.269 37.6879 160.511 37.812C159.753 37.9183 159.065 38.0158 158.448 38.1045C157.126 38.2995 155.971 38.6097 154.983 39.0351C153.996 39.4606 153.229 40.0367 152.682 40.7635C152.136 41.4726 151.863 42.359 151.863 43.4226C151.863 44.9649 152.418 46.1437 153.529 46.9592C154.657 47.7569 156.085 48.1557 157.813 48.1557Z" fill="#3B2F77"/>
<path d="M186.417 55.2023V0.74454H197.683V21.2194H198.027C198.521 20.1203 199.235 19.0035 200.169 17.8689C201.121 16.7167 202.356 15.7594 203.872 14.9972C205.406 14.2172 207.31 13.8272 209.585 13.8272C212.547 13.8272 215.28 14.6072 217.783 16.1671C220.287 17.7094 222.288 20.0405 223.787 23.1605C225.286 26.2627 226.035 30.1538 226.035 34.8338C226.035 39.3897 225.303 43.2365 223.84 46.3742C222.394 49.4941 220.419 51.8607 217.916 53.4739C215.43 55.0693 212.644 55.867 209.558 55.867C207.372 55.867 205.512 55.5036 203.978 54.7768C202.461 54.05 201.218 53.1371 200.249 52.038C199.279 50.9212 198.538 49.7955 198.027 48.661H197.525V55.2023H186.417ZM197.445 34.7806C197.445 37.2092 197.78 39.3276 198.45 41.1358C199.12 42.944 200.09 44.3533 201.359 45.3637C202.629 46.3564 204.172 46.8528 205.988 46.8528C207.822 46.8528 209.373 46.3476 210.643 45.3371C211.912 44.309 212.873 42.8908 213.525 41.0826C214.195 39.2567 214.53 37.1561 214.53 34.7806C214.53 32.4229 214.204 30.3488 213.552 28.5584C212.899 26.768 211.939 25.3675 210.669 24.3571C209.4 23.3466 207.839 22.8414 205.988 22.8414C204.154 22.8414 202.602 23.3289 201.333 24.3039C200.081 25.2789 199.12 26.6616 198.45 28.452C197.78 30.2425 197.445 32.352 197.445 34.7806Z" fill="#3B2F77"/>
<path d="M251.908 56C247.799 56 244.247 55.1225 241.249 53.3675C238.269 51.5948 235.968 49.1307 234.346 45.9753C232.724 42.8022 231.913 39.1238 231.913 34.9402C231.913 30.7211 232.724 27.0339 234.346 23.8784C235.968 20.7053 238.269 18.2412 241.249 16.4862C244.247 14.7135 247.799 13.8272 251.908 13.8272C256.016 13.8272 259.56 14.7135 262.54 16.4862C265.537 18.2412 267.847 20.7053 269.469 23.8784C271.091 27.0339 271.902 30.7211 271.902 34.9402C271.902 39.1238 271.091 42.8022 269.469 45.9753C267.847 49.1307 265.537 51.5948 262.54 53.3675C259.56 55.1225 256.016 56 251.908 56ZM251.96 47.2251C253.829 47.2251 255.39 46.6933 256.642 45.6296C257.894 44.5483 258.837 43.0769 259.472 41.2156C260.124 39.3542 260.45 37.2358 260.45 34.8604C260.45 32.485 260.124 30.3666 259.472 28.5052C258.837 26.6439 257.894 25.1725 256.642 24.0912C255.39 23.0098 253.829 22.4691 251.96 22.4691C250.074 22.4691 248.487 23.0098 247.2 24.0912C245.93 25.1725 244.969 26.6439 244.317 28.5052C243.682 30.3666 243.365 32.485 243.365 34.8604C243.365 37.2358 243.682 39.3542 244.317 41.2156C244.969 43.0769 245.93 44.5483 247.2 45.6296C248.487 46.6933 250.074 47.2251 251.96 47.2251Z" fill="#3B2F77"/>
<path d="M279.228 55.2023V14.359H290.151V21.4853H290.574C291.315 18.9503 292.558 17.0358 294.303 15.7417C296.049 14.4299 298.059 13.774 300.333 13.774C300.897 13.774 301.506 13.8094 302.158 13.8803C302.811 13.9513 303.384 14.0488 303.877 14.1728V24.2241C303.348 24.0646 302.617 23.9228 301.682 23.7987C300.748 23.6746 299.892 23.6125 299.117 23.6125C297.459 23.6125 295.978 23.9759 294.673 24.7028C293.386 25.4118 292.364 26.4046 291.606 27.6809C290.865 28.9573 290.495 30.4286 290.495 32.095V55.2023H279.228Z" fill="#3B2F77"/>
<path d="M320.123 55.9734C317.531 55.9734 315.221 55.5214 313.193 54.6173C311.166 53.6955 309.561 52.3394 308.38 50.5489C307.216 48.7407 306.634 46.4894 306.634 43.7949C306.634 41.5258 307.049 39.6201 307.878 38.0779C308.706 36.5356 309.835 35.2947 311.263 34.3552C312.691 33.4156 314.313 32.7066 316.129 32.2279C317.963 31.7493 319.885 31.4125 321.895 31.2175C324.257 30.9693 326.162 30.7388 327.607 30.5261C329.053 30.2957 330.102 29.9588 330.755 29.5157C331.407 29.0725 331.733 28.4166 331.733 27.548V27.3884C331.733 25.7043 331.204 24.4014 330.146 23.4796C329.106 22.5578 327.625 22.0969 325.703 22.0969C323.676 22.0969 322.062 22.5489 320.863 23.453C319.664 24.3394 318.871 25.4562 318.483 26.8034L308.063 25.9525C308.592 23.4707 309.632 21.3257 311.183 19.5176C312.735 17.6917 314.736 16.2912 317.187 15.3162C319.656 14.3235 322.512 13.8272 325.756 13.8272C328.013 13.8272 330.173 14.0931 332.236 14.6249C334.316 15.1567 336.159 15.981 337.763 17.0978C339.385 18.2146 340.664 19.6505 341.598 21.4055C342.533 23.1428 343 25.2257 343 27.6543V55.2023H332.315V49.5385H331.998C331.345 50.8148 330.473 51.9405 329.379 52.9155C328.286 53.8727 326.973 54.6261 325.439 55.1757C323.905 55.7075 322.133 55.9734 320.123 55.9734ZM323.349 48.1557C325.007 48.1557 326.47 47.8278 327.74 47.1719C329.009 46.4983 330.005 45.5942 330.728 44.4596C331.451 43.3251 331.813 42.0399 331.813 40.604V36.2697C331.46 36.5002 330.975 36.7129 330.358 36.9079C329.759 37.0852 329.08 37.2536 328.322 37.4131C327.563 37.5549 326.805 37.6879 326.047 37.812C325.289 37.9183 324.601 38.0158 323.984 38.1045C322.662 38.2995 321.507 38.6097 320.519 39.0351C319.532 39.4606 318.765 40.0367 318.219 40.7635C317.672 41.4726 317.399 42.359 317.399 43.4226C317.399 44.9649 317.954 46.1437 319.065 46.9592C320.193 47.7569 321.621 48.1557 323.349 48.1557Z" fill="#3B2F77"/>
</svg>
