<svg width="107" height="107" viewBox="0 0 107 107" fill="none" xmlns="http://www.w3.org/2000/svg">
<path fill-rule="evenodd" clip-rule="evenodd" d="M58.5434 20.867C58.4422 20.9496 58.3363 21.0266 58.2261 21.0977C58.3295 21.0177 58.4353 20.9408 58.5434 20.867Z" fill="#49D3D3"/>
<path fill-rule="evenodd" clip-rule="evenodd" d="M58.2628 31.5363C58.3567 31.5975 58.4475 31.6632 58.5349 31.7329C58.4425 31.6697 58.3517 31.6041 58.2628 31.5363Z" fill="#49D3D3"/>
<path d="M68.8232 26.3029C68.8232 22.6706 65.8787 19.7261 62.2465 19.7261C60.8731 19.7261 59.5981 20.1471 58.5434 20.867C58.4422 20.9496 58.3363 21.0266 58.2261 21.0977C57.6789 21.4506 57.0271 21.6555 56.3274 21.6555C54.3902 21.6555 52.9017 20.0875 52.9017 18.1503L52.9017 1.18411C52.9017 0.530145 52.3716 -7.19124e-07 51.7176 -7.4771e-07L16.7899 -2.27445e-06C7.79536 -2.27445e-06 0.310112 7.29036 0.310111 16.2849L0.3365 51.4019C0.3365 52.0559 0.866644 52.586 1.52061 52.586L1.56201 52.5853L18.2349 52.5849C19.2545 52.5849 20.0811 51.7583 20.0811 50.7386C20.0811 50.6665 20.077 50.5953 20.069 50.5254C20.0004 49.9292 19.5935 49.6408 19.029 48.5708C18.4061 47.3903 18.1745 46.6089 18.1745 45.1813C18.1745 40.4961 21.9726 36.6979 26.6579 36.6979C31.3431 36.6979 35.1413 40.4961 35.1413 45.1813C35.1413 46.6312 35.0177 47.556 34.3514 48.7359C33.882 49.567 33.4067 49.9133 33.3201 50.4338C33.3036 50.5331 33.295 50.6351 33.295 50.739C33.295 51.7587 34.1216 52.5853 35.1413 52.5853L51.7093 52.5864C52.3633 52.5864 52.8934 52.0563 52.8934 51.4023L52.8934 34.4715C52.8934 32.5343 54.4112 30.9683 56.3484 30.9683C57.0547 30.9683 57.7123 31.177 58.2628 31.5363C58.3567 31.5975 58.4475 31.6632 58.5349 31.7329C59.5912 32.4564 60.8694 32.8796 62.2465 32.8796C65.8787 32.8796 68.8232 29.9351 68.8232 26.3029Z" fill="#49D3D3"/>
<path fill-rule="evenodd" clip-rule="evenodd" d="M48.588 85.8077C48.6892 85.7251 48.7951 85.6481 48.9052 85.577C48.8019 85.657 48.6961 85.7339 48.588 85.8077Z" fill="#3B2F77"/>
<path fill-rule="evenodd" clip-rule="evenodd" d="M48.8685 75.1384C48.7747 75.0771 48.6839 75.0115 48.5965 74.9417C48.6889 75.005 48.7796 75.0706 48.8685 75.1384Z" fill="#3B2F77"/>
<path d="M38.3081 80.3718C38.3081 84.004 41.2526 86.9486 44.8849 86.9486C46.2582 86.9486 47.5332 86.5276 48.588 85.8077C48.6892 85.7251 48.7951 85.6481 48.9052 85.577C49.4525 85.224 50.1043 85.0192 50.8039 85.0192C52.7411 85.0192 54.2296 86.5872 54.2296 88.5243L54.2296 105.491C54.2296 106.145 54.7598 106.675 55.4137 106.675L90.3415 106.675C99.336 106.675 106.821 99.3843 106.821 90.3898L106.795 55.2728C106.795 54.6188 106.265 54.0887 105.611 54.0887L105.569 54.0894L88.8965 54.0898C87.8768 54.0898 87.0502 54.9164 87.0502 55.9361C87.0502 56.0082 87.0543 56.0794 87.0624 56.1493C87.1309 56.7455 87.5378 57.0339 88.1024 58.1038C88.7253 59.2844 88.9569 60.0657 88.9569 61.4934C88.9569 66.1786 85.1587 69.9768 80.4735 69.9768C75.7882 69.9768 71.99 66.1786 71.99 61.4934C71.99 60.0434 72.1136 59.1187 72.78 57.9388C73.2493 57.1077 73.7246 56.7614 73.8112 56.2409C73.8277 56.1416 73.8363 56.0396 73.8363 55.9357C73.8363 54.916 73.0097 54.0894 71.99 54.0894L55.422 54.0882C54.7681 54.0882 54.2379 54.6184 54.2379 55.2724L54.2379 72.2032C54.2379 74.1404 52.7201 75.7064 50.7829 75.7064C50.0766 75.7064 49.419 75.4976 48.8685 75.1384C48.7747 75.0771 48.6839 75.0115 48.5965 74.9417C47.5401 74.2183 46.2619 73.7951 44.8849 73.7951C41.2526 73.7951 38.3081 76.7396 38.3081 80.3718Z" fill="#3B2F77"/>
<path fill-rule="evenodd" clip-rule="evenodd" d="M21.177 48.4416C21.2596 48.5428 21.3367 48.6487 21.4077 48.7589C21.3278 48.6555 21.2508 48.5497 21.177 48.4416Z" fill="#8771F8"/>
<path fill-rule="evenodd" clip-rule="evenodd" d="M31.8463 48.7222C31.9076 48.6283 31.9733 48.5375 32.043 48.4501C31.9797 48.5425 31.9141 48.6332 31.8463 48.7222Z" fill="#8771F8"/>
<path d="M26.6129 38.1617C22.9807 38.1617 20.0362 41.1063 20.0362 44.7385C20.0362 46.1118 20.4571 47.3869 21.177 48.4416C21.2596 48.5428 21.3367 48.6487 21.4077 48.7589C21.7607 49.3061 21.9655 49.9579 21.9655 50.6576C21.9655 52.5948 20.3976 54.0832 18.4604 54.0832H1.49417C0.840205 54.0832 0.310059 54.6134 0.310059 55.2674L0.310059 90.1951C0.310059 99.1896 7.60042 106.675 16.5949 106.675L51.712 106.648C52.3659 106.648 52.8961 106.118 52.8961 105.464L52.8954 105.423L52.8949 88.7501C52.8949 87.7304 52.0683 86.9038 51.0486 86.9038C50.9765 86.9038 50.9054 86.908 50.8354 86.916C50.2392 86.9846 49.9508 87.3914 48.8809 87.956C47.7004 88.5789 46.919 88.8105 45.4914 88.8105C40.8061 88.8105 37.008 85.0123 37.008 80.3271C37.008 75.6418 40.8061 71.8437 45.4914 71.8437C46.9413 71.8437 47.866 71.9673 49.0459 72.6336C49.8771 73.103 50.2234 73.5783 50.7439 73.6649C50.8432 73.6814 50.9451 73.69 51.0491 73.69C52.0688 73.69 52.8954 72.8634 52.8954 71.8437L52.8965 55.2757C52.8965 54.6217 52.3664 54.0915 51.7124 54.0915H34.7815C32.8443 54.0915 31.2783 52.5738 31.2783 50.6366C31.2783 49.9302 31.4871 49.2727 31.8463 48.7222C31.9076 48.6283 31.9733 48.5375 32.043 48.4501C32.7665 47.3937 33.1897 46.1155 33.1897 44.7385C33.1897 41.1063 30.2452 38.1617 26.6129 38.1617Z" fill="#8771F8"/>
<path fill-rule="evenodd" clip-rule="evenodd" d="M85.9533 58.3107C85.8707 58.2094 85.7937 58.1035 85.7227 57.9934C85.8026 58.0967 85.8795 58.2025 85.9533 58.3107Z" fill="#A68DFF"/>
<path fill-rule="evenodd" clip-rule="evenodd" d="M75.284 58.0301C75.2228 58.124 75.1571 58.2148 75.0874 58.3021C75.1507 58.2097 75.2162 58.119 75.284 58.0301Z" fill="#A68DFF"/>
<path d="M80.5174 68.5905C84.1497 68.5905 87.0942 65.646 87.0942 62.0138C87.0942 60.6404 86.6732 59.3654 85.9533 58.3107C85.8707 58.2094 85.7937 58.1035 85.7227 57.9934C85.3697 57.4461 85.1648 56.7943 85.1648 56.0947C85.1648 54.1575 86.7328 52.669 88.67 52.669H105.636C106.29 52.669 106.82 52.1389 106.82 51.4849V16.5571C106.82 7.56263 99.53 0.0773849 90.5354 0.0773849L55.4184 0.103775C54.7644 0.103775 54.2343 0.633919 54.2343 1.28789L54.235 1.32928L54.2354 18.0021C54.2354 19.0218 55.062 19.8484 56.0817 19.8484C56.1538 19.8484 56.225 19.8443 56.2949 19.8362C56.8911 19.7677 57.1795 19.3608 58.2495 18.7963C59.43 18.1733 60.2114 17.9418 61.639 17.9418C66.3242 17.9418 70.1224 21.7399 70.1224 26.4252C70.1224 31.1104 66.3242 34.9086 61.639 34.9086C60.1891 34.9086 59.2643 34.785 58.0844 34.1187C57.2533 33.6493 56.907 33.174 56.3865 33.0874C56.2872 33.0709 56.1853 33.0623 56.0813 33.0623C55.0616 33.0623 54.235 33.8889 54.235 34.9086L54.2339 51.4766C54.2339 52.1306 54.764 52.6607 55.418 52.6607H72.3489C74.2861 52.6607 75.8521 54.1785 75.8521 56.1157C75.8521 56.822 75.6433 57.4796 75.284 58.0301C75.2228 58.124 75.1571 58.2148 75.0874 58.3021C74.3639 59.3585 73.9407 60.6367 73.9407 62.0138C73.9407 65.646 76.8852 68.5905 80.5174 68.5905Z" fill="#A68DFF"/>
<path d="M26.9527 94.5654C27.6487 94.894 28.0354 95.4934 28.0354 96.3053C28.0354 97.562 27.1074 98.316 25.5221 98.316H22.0615V90.9695H25.5028C27.0107 90.9695 27.9001 91.7041 27.9001 92.9221C27.9001 93.6761 27.5521 94.2367 26.9527 94.5654ZM25.2321 92.3034H23.6468V93.9274H25.2321C25.9281 93.9274 26.2761 93.6567 26.2761 93.1154C26.2761 92.5741 25.9281 92.3034 25.2321 92.3034ZM25.2515 96.982C26.0054 96.982 26.3921 96.692 26.3921 96.0927C26.3921 95.4934 26.0054 95.2034 25.2515 95.2034H23.6468V96.982H25.2515Z" fill="white"/>
<path d="M17.3056 97.0206H20.6309V98.3159H15.1597V97.3106L17.7696 95.068C18.6976 94.2947 18.9683 93.734 18.9683 93.154C18.9683 92.5547 18.5236 92.1487 17.8856 92.1487C17.151 92.1487 16.6483 92.5934 16.629 93.5987L15.179 93.386C15.2757 91.8201 16.3583 90.8534 17.9823 90.8728C19.4902 90.8921 20.5149 91.7621 20.5149 93.0187C20.5149 94.198 19.8576 94.9133 18.3109 96.1893L17.3056 97.0206Z" fill="white"/>
<path d="M13.2652 94.5654C13.9612 94.894 14.3479 95.4934 14.3479 96.3053C14.3479 97.562 13.4199 98.316 11.8346 98.316H8.37402V90.9695H11.8153C13.3232 90.9695 14.2126 91.7041 14.2126 92.9221C14.2126 93.6761 13.8646 94.2367 13.2652 94.5654ZM11.5446 92.3034H9.95932V93.9274H11.5446C12.2406 93.9274 12.5886 93.6567 12.5886 93.1154C12.5886 92.5741 12.2406 92.3034 11.5446 92.3034ZM11.564 96.982C12.3179 96.982 12.7046 96.692 12.7046 96.0927C12.7046 95.4934 12.3179 95.2034 11.564 95.2034H9.95932V96.982H11.564Z" fill="white"/>
<path d="M96.8696 16.1276V8.06378H98.6946V16.1276H96.8696Z" fill="white"/>
<path d="M93.7292 16.1276L93.1563 14.536H89.6337L89.0607 16.1276H87.1509L90.2915 8.06378H92.5409L95.6815 16.1276H93.7292ZM90.2066 12.9657H92.5833L91.395 9.65531L90.2066 12.9657Z" fill="white"/>
</svg>
