<svg width="194" height="194" viewBox="0 0 194 194" fill="none" xmlns="http://www.w3.org/2000/svg">
<circle cx="97" cy="97" r="97" fill="#241A56"/>
<circle cx="97" cy="97" r="84" fill="white"/>
<path d="M91.2178 104.864L81.3398 95.019C80.8264 94.5056 80.2013 94.2306 79.4643 94.194C78.7236 94.1573 78.0508 94.4433 77.4458 95.052C76.8591 95.6386 76.5658 96.2876 76.5658 96.999C76.5658 97.7103 76.8591 98.3593 77.4458 98.946L88.1048 109.605C88.9958 110.492 90.0334 110.936 91.2178 110.936C92.4021 110.936 93.4398 110.492 94.3308 109.605L116.54 87.396C117.075 86.8606 117.356 86.23 117.381 85.504C117.407 84.7743 117.126 84.107 116.54 83.502C115.935 82.897 115.28 82.589 114.576 82.578C113.872 82.567 113.22 82.864 112.618 83.469L91.2178 104.864ZM78.6778 144.387L71.4398 132.287L57.7943 129.405C56.7016 129.203 55.8308 128.617 55.1818 127.645C54.5328 126.677 54.2651 125.647 54.3788 124.554L55.6823 110.496L46.4258 99.936C45.6484 99.1403 45.2598 98.1613 45.2598 96.999C45.2598 95.8366 45.6484 94.8576 46.4258 94.062L55.6823 83.502L54.3788 69.4495C54.2688 68.3531 54.5364 67.321 55.1818 66.353C55.8308 65.385 56.7016 64.7983 57.7943 64.593L71.4343 61.7165L78.6723 49.6165C79.2663 48.6338 80.0638 47.9555 81.0648 47.5815C82.0658 47.2038 83.1016 47.2533 84.1723 47.73L96.9928 53.1475L109.808 47.73C110.882 47.2533 111.92 47.2038 112.921 47.5815C113.922 47.9555 114.719 48.6338 115.313 49.6165L122.546 61.7165L136.191 64.593C137.284 64.7983 138.155 65.385 138.804 66.353C139.453 67.321 139.72 68.3531 139.607 69.4495L138.309 83.502L147.56 94.062C148.337 94.8576 148.726 95.8366 148.726 96.999C148.726 98.1613 148.337 99.1421 147.56 99.9415L138.309 110.496L139.607 124.548C139.717 125.645 139.449 126.677 138.804 127.645C138.155 128.617 137.284 129.203 136.191 129.405L122.551 132.287L115.313 144.387C114.719 145.366 113.922 146.044 112.921 146.422C111.92 146.8 110.884 146.748 109.813 146.268L96.9928 140.85L84.1778 146.268C83.1034 146.745 82.0658 146.794 81.0648 146.416C80.0638 146.042 79.2663 145.364 78.6723 144.381" fill="#49D3D3"/>
</svg>
