<svg width="120" height="125" viewBox="0 0 120 125" fill="none" xmlns="http://www.w3.org/2000/svg">
<line x1="58.4602" y1="11.236" x2="58.4602" y2="113.764" stroke="#3B2F77" stroke-width="0.4"/>
<line x1="102.713" y1="36.6659" x2="13.9215" y2="87.9299" stroke="#3B2F77" stroke-width="0.4"/>
<line x1="102.599" y1="87.9296" x2="13.8075" y2="36.6655" stroke="#3B2F77" stroke-width="0.4"/>
<circle cx="99.9504" cy="87.3158" r="11.036" transform="rotate(-15 99.9504 87.3158)" fill="white" stroke="black" stroke-width="0.4"/>
<circle cx="11.236" cy="11.236" r="11.036" transform="matrix(-0.965926 -0.258819 -0.258819 0.965926 30.1496 80.0499)" fill="white" stroke="black" stroke-width="0.4"/>
<circle cx="58.2602" cy="113.764" r="11.036" fill="white" stroke="black" stroke-width="0.4"/>
<circle cx="102.941" cy="36.303" r="11.036" transform="rotate(15 102.941 36.303)" fill="white" stroke="black" stroke-width="0.4"/>
<circle cx="11.236" cy="11.236" r="11.036" transform="matrix(-0.965926 0.258819 0.258819 0.965926 21.7062 23.2201)" fill="white" stroke="black" stroke-width="0.4"/>
<circle cx="58.2602" cy="11.236" r="11.036" fill="white" stroke="black" stroke-width="0.4"/>
<path d="M9.22922 31.0641C8.83054 31.0641 8.50435 31.3979 8.50435 31.7966V35.8024C8.40707 35.8702 8.31264 35.9398 8.22203 36.0161C8.11235 36.1086 8.099 36.2727 8.19151 36.3823C8.28403 36.492 8.44808 36.5054 8.55776 36.4129C9.15769 35.9083 9.92548 35.6041 10.7705 35.6041C12.6771 35.6041 14.2194 37.1473 14.2194 39.0529C14.2098 39.1502 14.2566 39.2446 14.3395 39.2961C14.4225 39.3486 14.5274 39.3486 14.6104 39.2961C14.6934 39.2446 14.7401 39.1502 14.7306 39.0529C14.7306 38.9938 14.7258 38.9356 14.723 38.8774H15.7759C16.1956 38.309 17.7827 37.9822 18.7059 38.7553C18.7546 38.7286 18.7975 38.6962 18.8433 38.6638C19.014 38.5398 19.1657 38.3805 19.24 38.1754L19.9497 36.2374C20.0317 36.0142 19.9306 35.7681 19.7818 35.6422C19.633 35.5163 19.4518 35.4591 19.2629 35.4591H17.5538V33.9941C17.5538 33.5286 17.6587 33.3608 17.714 33.3074C17.7417 33.2807 17.7646 33.2797 17.775 33.2768C17.8456 33.2797 17.9133 33.253 17.9639 33.2044C18.0144 33.1557 18.0431 33.088 18.0421 33.0174V32.5291C18.0431 32.4604 18.0154 32.3937 17.9668 32.345C17.9181 32.2964 17.8513 32.2687 17.7827 32.2697C17.4679 32.2697 17.0521 32.3269 16.6916 32.5749C16.331 32.8228 16.0583 33.2759 16.0583 33.9483V35.4591H14.7993L13.7921 31.7432C13.7911 31.7375 13.7854 31.7336 13.7845 31.7279C13.7492 31.5715 13.6843 31.4189 13.5708 31.293C13.4535 31.1623 13.2685 31.0641 13.0672 31.0641H9.22922Z" fill="#3B2F77"/>
<path fill-rule="evenodd" clip-rule="evenodd" d="M10.7018 36.1916C9.08711 36.1916 7.77185 37.5068 7.77185 39.1216C7.77185 40.7363 9.08711 42.0516 10.7018 42.0516C12.3166 42.0516 13.6318 40.7363 13.6318 39.1216C13.6318 37.5068 12.3166 36.1916 10.7018 36.1916ZM10.7018 38.267H10.6866C10.2202 38.2756 9.84727 38.6533 9.84727 39.1216C9.84727 39.5947 10.2288 39.9762 10.7018 39.9762C11.1749 39.9762 11.5564 39.5947 11.5564 39.1216C11.5564 38.6485 11.1759 38.267 10.7018 38.267Z" fill="#49D3D3"/>
<circle cx="17.4503" cy="39.9255" r="2.12594" fill="#49D3D3"/>
<ellipse cx="17.4513" cy="39.9256" rx="0.650928" ry="0.650927" fill="white"/>
<rect x="9.32751" y="31.8533" width="3.87928" height="2.19224" rx="1" fill="#3B2F77"/>
<path d="M60.9331 15.3937C61.7532 15.3937 62.418 14.7289 62.418 13.9088C62.418 13.0887 61.7532 12.4239 60.9331 12.4239C60.113 12.4239 59.4482 13.0887 59.4482 13.9088C59.4482 14.7289 60.113 15.3937 60.9331 15.3937Z" fill="#49D3D3"/>
<path d="M55.5874 10.048C56.4075 10.048 57.0723 9.38316 57.0723 8.56306C57.0723 7.74296 56.4075 7.07814 55.5874 7.07814C54.7673 7.07814 54.1024 7.74296 54.1024 8.56306C54.1024 9.38316 54.7673 10.048 55.5874 10.048Z" fill="#49D3D3"/>
<path d="M60.8845 9.10826L60.6359 8.86024L60.3879 8.61164L55.6359 13.3636L55.8845 13.6116L56.1326 13.8602L60.8845 9.10826Z" fill="#3B2F77"/>
<path fill-rule="evenodd" clip-rule="evenodd" d="M62.1212 9.21113C63.1351 9.21103 63.9568 8.38889 63.9568 7.37493C63.9567 6.36106 63.1351 5.53941 62.1212 5.53931C61.1072 5.53931 60.2851 6.361 60.285 7.37493C60.285 7.80529 60.4342 8.20031 60.6822 8.51334C60.5776 8.49952 60.4682 8.53135 60.3879 8.61164L60.8845 9.10826C60.965 9.02775 60.9963 8.91811 60.9822 8.81337C61.2954 9.06164 61.6906 9.21113 62.1212 9.21113ZM63.6059 7.37512C63.6059 8.19522 62.9411 8.86005 62.121 8.86005C61.3009 8.86005 60.6361 8.19522 60.6361 7.37512C60.6361 6.55502 61.3009 5.8902 62.121 5.8902C62.9411 5.8902 63.6059 6.55502 63.6059 7.37512Z" fill="#3B2F77"/>
<path fill-rule="evenodd" clip-rule="evenodd" d="M62.0669 13.9088C62.0669 13.2826 61.5593 12.7749 60.9331 12.7749C60.3069 12.7749 59.7992 13.2826 59.7992 13.9088C59.7992 14.535 60.3069 15.0426 60.9331 15.0426C61.5593 15.0426 62.0669 14.535 62.0669 13.9088ZM56.7212 8.56306C56.7212 7.93688 56.2135 7.42922 55.5874 7.42922C54.9612 7.42922 54.4535 7.93688 54.4535 8.56306C54.4535 9.18924 54.9612 9.6969 55.5874 9.6969C56.2135 9.6969 56.7212 9.18924 56.7212 8.56306ZM62.7693 13.9088C62.7693 14.9228 61.9471 15.745 60.9331 15.745C60.5027 15.745 60.1077 15.5958 59.7947 15.3478C59.8084 15.4523 59.7767 15.5618 59.6964 15.6421L58.5082 16.8297C58.3711 16.9668 58.1493 16.9668 58.0122 16.8297C57.8751 16.6925 57.8751 16.4707 58.0122 16.3336L59.1997 15.1455L59.2552 15.1003C59.3267 15.0532 59.4115 15.036 59.4935 15.0466C59.2458 14.7337 59.0969 14.3389 59.0969 13.9088C59.0969 12.8948 59.9191 12.0726 60.9331 12.0726C61.9471 12.0726 62.7693 12.8948 62.7693 13.9088ZM57.4236 8.56306C57.4236 9.57708 56.6014 10.3993 55.5874 10.3993C54.5733 10.3993 53.7512 9.57708 53.7512 8.56306C53.7512 7.54904 54.5733 6.72686 55.5874 6.72686C56.0174 6.72686 56.4123 6.8758 56.7252 7.12348C56.7116 7.01913 56.7439 6.90989 56.8241 6.82973L58.0122 5.64217C58.1493 5.50505 58.3711 5.50505 58.5082 5.64217C58.6454 5.7793 58.6454 6.00111 58.5082 6.13823L57.3207 7.32636L57.2652 7.3715C57.1935 7.41879 57.1085 7.43548 57.0264 7.42465C57.2743 7.73769 57.4236 8.13269 57.4236 8.56306Z" fill="#49D3D3"/>
<path d="M63.255 7.37493C63.2549 6.7489 62.7472 6.2412 62.1212 6.2411C61.4951 6.2411 60.9875 6.74884 60.9874 7.37493C60.9874 8.00111 61.495 8.50877 62.1212 8.50877C62.7473 8.50867 63.255 8.00105 63.255 7.37493Z" fill="#3B2F77"/>
<path fill-rule="evenodd" clip-rule="evenodd" d="M62.121 8.86005C62.9411 8.86005 63.6059 8.19522 63.6059 7.37512C63.6059 6.55502 62.9411 5.8902 62.121 5.8902C61.3009 5.8902 60.6361 6.55502 60.6361 7.37512C60.6361 8.19522 61.3009 8.86005 62.121 8.86005ZM62.1212 6.2411C62.7472 6.2412 63.2549 6.7489 63.255 7.37493C63.255 8.00105 62.7473 8.50867 62.1212 8.50877C61.495 8.50877 60.9874 8.00111 60.9874 7.37493C60.9875 6.74884 61.4951 6.2411 62.1212 6.2411Z" fill="#3B2F77"/>
<path fill-rule="evenodd" clip-rule="evenodd" d="M54.3994 16.5816C55.2195 16.5816 55.8843 15.9168 55.8843 15.0967C55.8843 14.2766 55.2195 13.6118 54.3994 13.6118C53.5793 13.6118 52.9145 14.2766 52.9145 15.0967C52.9145 15.9168 53.5793 16.5816 54.3994 16.5816ZM54.3992 13.9631C55.0254 13.9631 55.5331 14.4707 55.5331 15.0969C55.533 15.723 55.0253 16.2307 54.3992 16.2307C53.7732 16.2306 53.2655 15.7229 53.2654 15.0969C53.2654 14.4708 53.7731 13.9632 54.3992 13.9631Z" fill="#3B2F77"/>
<path d="M55.5331 15.0969C55.5331 14.4707 55.0254 13.9631 54.3992 13.9631C53.7731 13.9632 53.2654 14.4708 53.2654 15.0969C53.2655 15.7229 53.7732 16.2306 54.3992 16.2307C55.0253 16.2307 55.533 15.723 55.5331 15.0969Z" fill="#3B2F77"/>
<path fill-rule="evenodd" clip-rule="evenodd" d="M54.3992 16.9325C55.4132 16.9325 56.2353 16.1108 56.2354 15.0969C56.2354 14.6663 56.0859 14.2711 55.8377 13.9579C55.9424 13.972 56.052 13.9407 56.1326 13.8602L55.6359 13.3636C55.5556 13.4439 55.5238 13.5534 55.5376 13.6579C55.2246 13.4099 54.8296 13.2607 54.3992 13.2607C53.3853 13.2608 52.5636 14.083 52.5636 15.0969C52.5637 16.1108 53.3854 16.9324 54.3992 16.9325ZM55.8843 15.0967C55.8843 15.9168 55.2195 16.5816 54.3994 16.5816C53.5793 16.5816 52.9145 15.9168 52.9145 15.0967C52.9145 14.2766 53.5793 13.6118 54.3994 13.6118C55.2195 13.6118 55.8843 14.2766 55.8843 15.0967Z" fill="#3B2F77"/>
<path d="M103.249 39.0711V41.8802H99.5039V40.9438V39.0711H101.377H103.249ZM100.44 40.9438H102.313V40.0075H100.44V40.9438Z" fill="#3B2F77"/>
<path d="M101.377 37.1985V38.1397V39.0711V40.0075H97.6319V37.1985H101.377ZM98.5683 39.0712H100.441V38.1348H98.5683V39.0712Z" fill="#3B2F77"/>
<path d="M102.778 35.3307V38.1348V38.1397H101.377H99.0329V35.3307H102.778ZM99.9692 37.2034H101.842V36.267H99.9692V37.2034Z" fill="#3B2F77"/>
<path d="M104.181 37.1985V40.0075H100.435V37.1985H104.181ZM101.372 39.0712L101.377 39.0711L103.244 39.0712V38.1348H102.778H101.372V39.0712Z" fill="#3B2F77"/>
<path d="M106.99 37.1985V40.0075H103.245V37.1985H106.99ZM104.181 39.0712H106.054V38.1348H104.181V39.0712Z" fill="#3B2F77"/>
<path d="M106.054 39.0712L106.054 41.8802H102.309V39.0711L106.054 39.0712ZM103.245 40.9438H105.118V40.0075L103.245 40.0075L103.245 40.9438Z" fill="#3B2F77"/>
<path d="M108.862 39.0711V41.8802H105.117V39.0711H108.862ZM106.053 40.9438H107.926V40.0075H106.053V40.9438Z" fill="#3B2F77"/>
<path d="M105.121 32.9872L105.15 32.9874C105.759 32.9966 106.341 33.243 106.772 33.6749C107.21 34.1138 107.455 34.7083 107.455 35.328L107.455 35.6447L105.132 36.5764C104.955 36.6491 104.76 36.6673 104.573 36.6285C104.385 36.5896 104.214 36.4953 104.08 36.358C103.946 36.2242 103.855 36.0536 103.818 35.8678C103.781 35.6825 103.799 35.4904 103.871 35.3157L104.803 32.9863L105.121 32.9872ZM104.74 35.6637L104.739 35.6675L104.737 35.6713C104.735 35.6754 104.735 35.6799 104.736 35.6842C104.737 35.688 104.738 35.6915 104.741 35.6944L104.742 35.6956L104.747 35.7003L104.752 35.7052C104.755 35.7085 104.759 35.7107 104.763 35.7116C104.767 35.7125 104.772 35.712 104.776 35.7103L104.78 35.7088L106.486 35.0247C106.429 34.766 106.299 34.5267 106.109 34.3362C105.919 34.146 105.681 34.0158 105.423 33.9577L104.74 35.6637Z" fill="#49D3D3"/>
<path d="M108.655 31.5068L107.456 32.3042V33.648L106.855 34.2554L106.19 33.5968L106.52 33.263V31.8026L108.136 30.7273L108.655 31.5068Z" fill="#49D3D3"/>
<path d="M101.377 39.0711H102.309L103.244 39.0712V38.1348H102.778V38.1397H101.377V39.0711Z" fill="#3B2F77"/>
<path fill-rule="evenodd" clip-rule="evenodd" d="M99.9723 41.8801V40.9438H99.5039V41.8802L99.9723 41.8801Z" fill="#3B2F77"/>
<path d="M97.629 41.8801L99.5039 41.8802V40.9438H97.629V41.8801Z" fill="#3B2F77"/>
<path d="M104.74 35.6637L104.739 35.6675L104.737 35.6713C104.735 35.6754 104.735 35.6799 104.736 35.6842C104.737 35.688 104.738 35.6915 104.741 35.6944L104.742 35.6956L104.747 35.7003L104.752 35.7052C104.755 35.7085 104.759 35.7107 104.763 35.7116C104.767 35.7125 104.772 35.712 104.776 35.7103L104.78 35.7088L106.486 35.0247C106.429 34.766 106.299 34.5267 106.109 34.3362C105.919 34.146 105.681 34.0158 105.423 33.9577L104.74 35.6637Z" fill="#49D3D3"/>
<path fill-rule="evenodd" clip-rule="evenodd" d="M104.993 83.1104C104.495 82.24 103.365 81.9731 102.531 82.5292L101.979 82.8966C100.661 83.7754 99.1126 84.2443 97.5284 84.2443H96.4269C95.0577 84.2443 93.9478 85.3542 93.9478 86.7234C93.9478 88.0346 94.9657 89.1081 96.2545 89.1967C96.6529 89.1528 96.9664 89.1647 97.5307 89.2026C98.1303 89.2027 98.7248 89.2701 99.3036 89.4014C99.7983 89.4847 100.092 89.573 100.521 89.7815C101.03 89.986 101.519 90.243 101.979 90.5502L102.531 90.9177C103.365 91.4737 104.495 91.2068 104.993 90.3365C106.272 88.0977 106.272 85.3492 104.993 83.1104ZM104.408 85.4473C104.408 86.1355 103.85 86.6933 103.162 86.6933C102.474 86.6933 101.916 86.1355 101.916 85.4473C101.916 84.7592 102.474 84.2013 103.162 84.2013C103.85 84.2013 104.408 84.7592 104.408 85.4473Z" fill="#3B2F77"/>
<path d="M96.2545 89.1967L96.0436 90.0403C95.8494 90.8169 96.1644 91.6317 96.8305 92.0758C97.7304 92.6757 98.949 92.4016 99.5055 91.4742L100.521 89.7815C100.092 89.573 99.7983 89.4847 99.3036 89.4014L98.4425 90.8365C98.2502 91.157 97.8291 91.2517 97.5181 91.0444C97.2879 90.8909 97.179 90.6093 97.2461 90.3409L97.5307 89.2026C96.9664 89.1647 96.6529 89.1528 96.2545 89.1967Z" fill="#49D3D3"/>
<path fill-rule="evenodd" clip-rule="evenodd" d="M58.8455 112.008L61.1865 107.911H57.0897L54.1634 113.764H57.675L58.8455 112.008Z" fill="#3B2F77"/>
<path d="M62.357 112.008H58.8455L57.675 113.764L55.9192 119.617L62.357 112.008Z" fill="#49D3D3"/>
<path d="M16.3886 90.403C16.0351 90.403 15.6902 90.3241 15.3896 90.1745L12.0803 88.5282V91.3631C12.0803 92.2021 14.0101 92.8813 16.3885 92.8813C18.7679 92.8813 20.6975 92.2021 20.6975 91.3631V88.5282L17.3883 90.1745C17.0877 90.3241 16.742 90.403 16.3886 90.403Z" fill="#49D3D3"/>
<path fill-rule="evenodd" clip-rule="evenodd" d="M22.6027 86.0531L16.9293 83.2308C16.7632 83.1486 16.5759 83.1073 16.3886 83.1073C16.2013 83.1073 16.0138 83.1486 15.8487 83.2308L10.1753 86.0531C10.0238 86.1284 9.93179 86.2614 9.93179 86.4046C9.93179 86.5479 10.0238 86.6809 10.1753 86.7564L15.8487 89.5787C16.0138 89.661 16.2012 89.7022 16.3885 89.7022C16.5759 89.7022 16.7632 89.6609 16.9293 89.5787L22.6027 86.7564C22.7541 86.681 22.8462 86.5479 22.8462 86.4046C22.8462 86.2614 22.7542 86.1284 22.6027 86.0531Z" fill="#3B2F77"/>
<path d="M22.3071 92.5393C22.4112 92.5393 22.5098 92.5016 22.5754 92.4365C22.641 92.3715 22.6666 92.2861 22.6451 92.2043L22.4275 91.3769C22.5514 91.2806 22.6293 91.1461 22.6293 90.9966C22.6293 90.8392 22.5421 90.6996 22.4067 90.6026V87.7296L21.5346 88.1633V90.6026C21.3992 90.6996 21.3119 90.8392 21.3119 90.9966C21.3119 91.1462 21.3898 91.2806 21.5137 91.3769L21.2961 92.2043C21.2746 92.2862 21.3002 92.3715 21.3658 92.4365C21.4314 92.5015 21.53 92.5393 21.6341 92.5393H22.3071Z" fill="#49D3D3"/>
<circle cx="58.2598" cy="62.4993" r="23.7402" fill="#49D3D3"/>
<path fill-rule="evenodd" clip-rule="evenodd" d="M59.5558 54.0784C59.5295 54.0999 59.502 54.1199 59.4733 54.1384C59.5002 54.1176 59.5277 54.0976 59.5558 54.0784Z" fill="white"/>
<path fill-rule="evenodd" clip-rule="evenodd" d="M59.4829 56.8529C59.5073 56.8688 59.5309 56.8859 59.5536 56.904C59.5296 56.8875 59.506 56.8705 59.4829 56.8529Z" fill="white"/>
<path d="M62.229 55.492C62.229 54.5475 61.4633 53.7818 60.5188 53.7818C60.1616 53.7818 59.8301 53.8912 59.5558 54.0784C59.5295 54.0999 59.502 54.1199 59.4733 54.1384C59.331 54.2302 59.1615 54.2835 58.9796 54.2835C58.4758 54.2835 58.0888 53.8757 58.0888 53.372L58.0888 48.9601C58.0888 48.7901 57.9509 48.6522 57.7809 48.6522L48.6983 48.6522C46.3594 48.6522 44.4129 50.548 44.4129 52.8869L44.4198 62.0187C44.4198 62.1887 44.5576 62.3266 44.7277 62.3266L44.7385 62.3264L49.0741 62.3263C49.3392 62.3263 49.5542 62.1114 49.5542 61.8462C49.5542 61.8275 49.5531 61.8089 49.551 61.7908C49.5332 61.6357 49.4274 61.5607 49.2806 61.2825C49.1186 60.9755 49.0584 60.7723 49.0584 60.4011C49.0584 59.1828 50.046 58.1951 51.2644 58.1951C52.4827 58.1951 53.4704 59.1828 53.4704 60.4011C53.4704 60.7781 53.4382 61.0186 53.265 61.3254C53.1429 61.5415 53.0193 61.6316 52.9968 61.767C52.9925 61.7928 52.9903 61.8193 52.9903 61.8463C52.9903 62.1115 53.2052 62.3264 53.4704 62.3264L57.7787 62.3267C57.9488 62.3267 58.0866 62.1889 58.0866 62.0188L58.0866 57.6161C58.0866 57.1124 58.4813 56.7052 58.985 56.7052C59.1687 56.7052 59.3397 56.7594 59.4829 56.8529C59.5073 56.8688 59.5309 56.8859 59.5536 56.904C59.8283 57.0921 60.1607 57.2022 60.5188 57.2022C61.4633 57.2022 62.229 56.4365 62.229 55.492Z" fill="white"/>
<path fill-rule="evenodd" clip-rule="evenodd" d="M56.9663 70.9661C56.9926 70.9446 57.0201 70.9246 57.0488 70.9061C57.0219 70.9269 56.9944 70.9469 56.9663 70.9661Z" fill="white"/>
<path fill-rule="evenodd" clip-rule="evenodd" d="M57.0392 68.1917C57.0148 68.1758 56.9912 68.1587 56.9685 68.1406C56.9925 68.157 57.0161 68.1741 57.0392 68.1917Z" fill="white"/>
<path d="M54.2931 69.5526C54.2931 70.4971 55.0588 71.2628 56.0033 71.2628C56.3605 71.2628 56.692 71.1533 56.9663 70.9661C56.9926 70.9446 57.0201 70.9246 57.0488 70.9061C57.1911 70.8143 57.3606 70.7611 57.5425 70.7611C58.0463 70.7611 58.4333 71.1688 58.4333 71.6726L58.4333 76.0844C58.4333 76.2545 58.5712 76.3923 58.7412 76.3923L67.8238 76.3923C70.1627 76.3923 72.1092 74.4966 72.1092 72.1576L72.1023 63.0259C72.1023 62.8558 71.9644 62.718 71.7944 62.718L71.7836 62.7181L67.448 62.7182C67.1829 62.7182 66.9679 62.9332 66.9679 63.1984C66.9679 63.2171 66.969 63.2356 66.9711 63.2538C66.9889 63.4088 67.0947 63.4838 67.2415 63.762C67.4035 64.069 67.4637 64.2722 67.4637 64.6435C67.4637 65.8618 66.4761 66.8495 65.2577 66.8495C64.0394 66.8495 63.0517 65.8618 63.0517 64.6435C63.0517 64.2664 63.0839 64.026 63.2571 63.7191C63.3792 63.503 63.5028 63.413 63.5253 63.2776C63.5296 63.2518 63.5318 63.2253 63.5318 63.1982C63.5318 62.9331 63.3169 62.7181 63.0517 62.7181L58.7434 62.7178C58.5733 62.7178 58.4355 62.8557 58.4355 63.0258L58.4355 67.4284C58.4355 67.9322 58.0408 68.3394 57.5371 68.3394C57.3534 68.3394 57.1824 68.2851 57.0392 68.1917C57.0148 68.1758 56.9912 68.1587 56.9685 68.1406C56.6938 67.9524 56.3614 67.8424 56.0033 67.8424C55.0588 67.8424 54.2931 68.6081 54.2931 69.5526Z" fill="white"/>
<path fill-rule="evenodd" clip-rule="evenodd" d="M49.8389 61.2496C49.8604 61.2759 49.8804 61.3034 49.8989 61.3321C49.8781 61.3052 49.8581 61.2777 49.8389 61.2496Z" fill="white"/>
<path fill-rule="evenodd" clip-rule="evenodd" d="M52.6134 61.3225C52.6293 61.2981 52.6464 61.2745 52.6645 61.2518C52.648 61.2758 52.631 61.2994 52.6134 61.3225Z" fill="white"/>
<path d="M51.2525 58.5764C50.308 58.5764 49.5423 59.3421 49.5423 60.2866C49.5423 60.6437 49.6517 60.9753 49.8389 61.2496C49.8604 61.2759 49.8804 61.3034 49.8989 61.3321C49.9907 61.4744 50.044 61.6439 50.044 61.8258C50.044 62.3296 49.6362 62.7166 49.1325 62.7166H44.7206C44.5506 62.7166 44.4127 62.8545 44.4127 63.0245V72.1071C44.4127 74.446 46.3085 76.3925 48.6474 76.3925L57.7792 76.3856C57.9492 76.3856 58.0871 76.2477 58.0871 76.0777L58.0869 76.0669L58.0868 71.7313C58.0868 71.4662 57.8719 71.2512 57.6067 71.2512C57.5879 71.2512 57.5694 71.2523 57.5513 71.2544C57.3962 71.2722 57.3212 71.378 57.043 71.5248C56.736 71.6868 56.5328 71.747 56.1616 71.747C54.9433 71.747 53.9556 70.7594 53.9556 69.541C53.9556 68.3227 54.9433 67.335 56.1616 67.335C56.5386 67.335 56.7791 67.3671 57.0859 67.5404C57.302 67.6625 57.3921 67.7861 57.5275 67.8086C57.5533 67.8129 57.5798 67.8151 57.6068 67.8151C57.872 67.8151 58.0869 67.6002 58.0869 67.335L58.0872 63.0267C58.0872 62.8566 57.9494 62.7188 57.7793 62.7188H53.3766C52.8729 62.7188 52.4657 62.3241 52.4657 61.8204C52.4657 61.6367 52.5199 61.4657 52.6134 61.3225C52.6293 61.2981 52.6464 61.2745 52.6645 61.2518C52.8526 60.9771 52.9627 60.6447 52.9627 60.2866C52.9627 59.3421 52.197 58.5764 51.2525 58.5764Z" fill="white"/>
</svg>
