<svg width="345" height="345" viewBox="0 0 345 345" fill="none" xmlns="http://www.w3.org/2000/svg">
<path fill-rule="evenodd" clip-rule="evenodd" d="M188.762 67.2814C188.435 67.5477 188.094 67.7961 187.739 68.0252C188.072 67.7674 188.413 67.5193 188.762 67.2814Z" fill="#49D3D3"/>
<path fill-rule="evenodd" clip-rule="evenodd" d="M187.857 101.682C188.16 101.88 188.452 102.092 188.734 102.317C188.436 102.112 188.144 101.901 187.857 101.682Z" fill="#49D3D3"/>
<path d="M221.907 84.8083C221.907 73.0969 212.413 63.6029 200.701 63.6029C196.273 63.6029 192.162 64.9602 188.762 67.2814C188.435 67.5477 188.094 67.7961 187.739 68.0252C185.974 69.1633 183.872 69.8237 181.617 69.8237C175.371 69.8237 170.571 64.7682 170.571 58.5221L170.571 3.81794C170.571 1.70935 168.862 -2.31867e-06 166.753 -2.41084e-06L54.1357 -7.33351e-06C25.1347 -7.33351e-06 1.00001 23.5063 1.00003 52.5073L1.08509 165.735C1.08509 167.844 2.79444 169.553 4.90304 169.553L5.03652 169.551L58.7948 169.549C62.0825 169.549 64.7477 166.884 64.7477 163.596C64.7477 163.364 64.7344 163.134 64.7085 162.909C64.4875 160.987 63.1756 160.057 61.3553 156.607C59.3468 152.801 58.6001 150.281 58.6001 145.678C58.6001 130.571 70.8465 118.325 85.9532 118.325C101.06 118.325 113.306 130.571 113.306 145.678C113.306 150.353 112.908 153.335 110.759 157.139C109.246 159.819 107.713 160.935 107.434 162.614C107.381 162.934 107.353 163.263 107.353 163.598C107.353 166.885 110.018 169.551 113.306 169.551L166.726 169.554C168.835 169.554 170.544 167.845 170.544 165.736L170.544 111.146C170.544 104.9 175.438 99.8509 181.684 99.8509C183.962 99.8509 186.082 100.524 187.857 101.682C188.16 101.88 188.452 102.092 188.734 102.317C192.14 104.649 196.261 106.014 200.701 106.014C212.413 106.014 221.907 96.5198 221.907 84.8083Z" fill="#49D3D3"/>
<path fill-rule="evenodd" clip-rule="evenodd" d="M156.662 276.67C156.988 276.404 157.33 276.155 157.685 275.926C157.352 276.184 157.01 276.432 156.662 276.67Z" fill="#3B2F77"/>
<path fill-rule="evenodd" clip-rule="evenodd" d="M157.567 242.269C157.264 242.071 156.971 241.86 156.689 241.635C156.987 241.839 157.28 242.05 157.567 242.269Z" fill="#3B2F77"/>
<path d="M123.516 259.143C123.516 270.854 133.01 280.348 144.722 280.348C149.15 280.348 153.261 278.991 156.662 276.67C156.988 276.404 157.33 276.155 157.685 275.926C159.449 274.788 161.551 274.127 163.807 274.127C170.053 274.127 174.852 279.183 174.852 285.429L174.852 340.133C174.852 342.242 176.562 343.951 178.67 343.951L291.288 343.951C320.289 343.951 344.423 320.445 344.423 291.444L344.338 178.216C344.338 176.108 342.629 174.398 340.52 174.398L340.387 174.4L286.629 174.402C283.341 174.402 280.676 177.067 280.676 180.355C280.676 180.587 280.689 180.817 280.715 181.042C280.936 182.965 282.248 183.894 284.068 187.344C286.077 191.151 286.823 193.67 286.823 198.273C286.823 213.38 274.577 225.626 259.47 225.626C244.364 225.626 232.117 213.38 232.117 198.273C232.117 193.598 232.516 190.616 234.664 186.812C236.177 184.132 237.71 183.016 237.989 181.337C238.042 181.017 238.07 180.689 238.07 180.353C238.07 177.066 235.405 174.4 232.117 174.4L178.697 174.397C176.588 174.397 174.879 176.106 174.879 178.215L174.879 232.805C174.879 239.051 169.985 244.1 163.739 244.1C161.462 244.1 159.341 243.427 157.567 242.269C157.264 242.071 156.971 241.86 156.689 241.635C153.283 239.302 149.162 237.937 144.722 237.937C133.01 237.937 123.516 247.431 123.516 259.143Z" fill="#3B2F77"/>
<path fill-rule="evenodd" clip-rule="evenodd" d="M68.282 156.19C68.5483 156.517 68.7967 156.858 69.0258 157.213C68.768 156.88 68.5199 156.539 68.282 156.19Z" fill="#8771F8"/>
<path fill-rule="evenodd" clip-rule="evenodd" d="M102.683 157.095C102.881 156.792 103.092 156.499 103.317 156.218C103.113 156.516 102.902 156.808 102.683 157.095Z" fill="#8771F8"/>
<path d="M85.8089 123.045C74.0975 123.045 64.6035 132.539 64.6035 144.25C64.6035 148.678 65.9608 152.789 68.282 156.19C68.5483 156.517 68.7967 156.858 69.0258 157.213C70.1639 158.978 70.8243 161.079 70.8243 163.335C70.8243 169.581 65.7688 174.381 59.5227 174.381H4.81855C2.70996 174.381 1.00061 176.09 1.00061 178.199L1.00061 290.816C1.00061 319.817 24.5069 343.952 53.5079 343.952L166.736 343.867C168.844 343.867 170.554 342.157 170.554 340.049L170.551 339.915L170.55 286.157C170.55 282.869 167.885 280.204 164.597 280.204C164.364 280.204 164.135 280.217 163.91 280.243C161.987 280.464 161.057 281.776 157.608 283.596C153.801 285.605 151.282 286.352 146.679 286.352C131.572 286.352 119.326 274.105 119.326 258.999C119.326 243.892 131.572 231.646 146.679 231.646C151.354 231.646 154.335 232.044 158.14 234.193C160.819 235.706 161.936 237.238 163.614 237.518C163.934 237.571 164.263 237.599 164.598 237.599C167.886 237.599 170.551 234.933 170.551 231.646L170.555 178.225C170.555 176.117 168.846 174.407 166.737 174.407H112.147C105.901 174.407 100.852 169.514 100.852 163.268C100.852 160.99 101.525 158.87 102.683 157.095C102.881 156.792 103.092 156.499 103.317 156.218C105.65 152.812 107.014 148.69 107.014 144.25C107.014 132.539 97.5204 123.045 85.8089 123.045Z" fill="#8771F8"/>
<path fill-rule="evenodd" clip-rule="evenodd" d="M277.142 188.011C276.875 187.685 276.627 187.343 276.398 186.988C276.656 187.321 276.904 187.662 277.142 188.011Z" fill="#A68DFF"/>
<path fill-rule="evenodd" clip-rule="evenodd" d="M242.741 187.106C242.543 187.409 242.331 187.702 242.106 187.983C242.311 187.685 242.522 187.393 242.741 187.106Z" fill="#A68DFF"/>
<path d="M259.615 221.156C271.326 221.156 280.82 211.662 280.82 199.951C280.82 195.523 279.463 191.412 277.142 188.011C276.875 187.685 276.627 187.343 276.398 186.988C275.26 185.223 274.599 183.122 274.599 180.866C274.599 174.62 279.655 169.821 285.901 169.821H340.605C342.714 169.821 344.423 168.111 344.423 166.003V53.3851C344.423 24.3841 320.917 0.249405 291.916 0.24942L178.688 0.334488C176.579 0.334488 174.87 2.04384 174.87 4.15244L174.872 4.28592L174.874 58.0442C174.874 61.3319 177.539 63.9971 180.827 63.9971C181.059 63.9971 181.288 63.9838 181.514 63.9579C183.436 63.7368 184.366 62.425 187.816 60.6047C191.622 58.5962 194.142 57.8495 198.745 57.8495C213.852 57.8495 226.098 70.0959 226.098 85.2026C226.098 100.309 213.852 112.556 198.745 112.556C194.07 112.556 191.088 112.157 187.284 110.009C184.604 108.495 183.488 106.963 181.809 106.684C181.489 106.63 181.16 106.603 180.825 106.603C177.537 106.603 174.872 109.268 174.872 112.556L174.869 165.976C174.869 168.084 176.578 169.794 178.687 169.794H233.277C239.523 169.794 244.572 174.688 244.572 180.934C244.572 183.211 243.899 185.331 242.741 187.106C242.543 187.409 242.331 187.702 242.106 187.983C239.774 191.39 238.409 195.511 238.409 199.951C238.409 211.662 247.903 221.156 259.615 221.156Z" fill="#A68DFF"/>
<path d="M290.831 75.364L288.273 67.6905H271.282L268.724 75.364H259.65L274.57 32.7334H284.984L299.966 75.364H290.831ZM273.961 59.8343H285.654L279.808 42.4166L273.961 59.8343Z" fill="white"/>
<path d="M304.105 32.7334H312.51V75.364H304.105V32.7334Z" fill="white"/>
</svg>
