<svg width="113" height="96" viewBox="0 0 113 96" fill="none" xmlns="http://www.w3.org/2000/svg">
<rect x="0.2" y="15.2488" width="42.3689" height="42.3689" rx="21.1845" fill="white" stroke="black" stroke-width="0.4"/>
<path fill-rule="evenodd" clip-rule="evenodd" d="M21.3855 25.2831C21.3047 25.2831 21.2234 25.302 21.1499 25.3405L10.5052 30.9163C10.3384 31.004 10.2339 31.1772 10.2339 31.3658V32.3796C10.2339 32.6594 10.461 32.8864 10.7408 32.8864H32.0302C32.3105 32.8864 32.5371 32.6594 32.5371 32.3796V31.3658C32.5371 31.1772 32.4331 31.004 32.2659 30.9163L21.6211 25.3405C21.5476 25.302 21.4664 25.2831 21.3855 25.2831ZM21.3855 28.3244C22.2249 28.3244 22.9062 29.0052 22.9062 29.8451C22.9062 30.685 22.2249 31.3658 21.3855 31.3658C20.5456 31.3658 19.8648 30.685 19.8648 29.8451C19.8648 29.0052 20.5456 28.3244 21.3855 28.3244ZM12.7684 33.9002C12.4886 33.9002 12.2615 34.1273 12.2615 34.4071V41.5036H15.3028V34.4071C15.3028 34.1273 15.0757 33.9002 14.7959 33.9002H12.7684ZM17.8373 33.9002C17.5575 33.9002 17.3304 34.1273 17.3304 34.4071V41.5036H20.3717V34.4071C20.3717 34.1273 20.1446 33.9002 19.8648 33.9002H17.8373ZM22.9062 33.9002C22.6264 33.9002 22.3993 34.1273 22.3993 34.4071V41.5036H25.3664C24.6385 40.8989 24.1734 39.9875 24.1734 38.9691C24.1734 37.9173 24.6707 36.981 25.4406 36.3773V34.4071C25.4406 34.1273 25.2136 33.9002 24.9338 33.9002H22.9062ZM27.9751 33.9002C27.6953 33.9002 27.4682 34.1273 27.4682 34.4071V35.6743C28.8368 35.6743 30.0123 36.5132 30.5096 37.7039V34.4071C30.5096 34.1273 30.2825 33.9002 30.0027 33.9002H27.9751ZM11.2477 42.5174C10.9679 42.5174 10.7408 42.744 10.7408 43.0243V44.0381H10.2339C9.95411 44.0381 9.72702 44.2646 9.72702 44.5449V46.0656C9.72702 46.3459 9.95411 46.5725 10.2339 46.5725H21.8924V45.335C21.8924 44.2163 22.3828 43.2174 23.1507 42.5174H11.2477Z" fill="#3B2F77"/>
<path d="M27.4682 36.6881C26.2106 36.6881 25.1872 37.7115 25.1872 38.9691C25.1872 40.2267 26.2106 41.2501 27.4682 41.2501C28.7258 41.2501 29.7492 40.2267 29.7492 38.9691C29.7492 37.7115 28.7258 36.6881 27.4682 36.6881Z" fill="#49D3D3"/>
<path d="M25.7238 42.5174C24.1697 42.5174 22.9062 43.7808 22.9062 45.335V47.5863C22.9062 47.8666 23.1328 48.0932 23.4131 48.0932H31.5233C31.8036 48.0932 32.0302 47.8666 32.0302 47.5863V45.335C32.0302 43.7808 30.7662 42.5174 29.2126 42.5174H25.7238Z" fill="#49D3D3"/>
<rect x="35.2793" y="17.9121" width="44.4304" height="44.4304" rx="22.2152" fill="#49D3D3"/>
<path d="M65.2944 46.8333C66.8446 45.0327 67.7816 42.6892 67.7816 40.1267C67.7816 37.5643 66.8446 35.2207 65.2944 33.42L60.9 37.8145C61.3485 38.4734 61.6107 39.2695 61.6107 40.1267C61.6107 40.9839 61.3485 41.78 60.9 42.4389L65.2944 46.8333Z" fill="white"/>
<path d="M64.2034 47.9258C62.4027 49.476 60.0592 50.413 57.4968 50.413C54.9343 50.413 52.5908 49.476 50.7901 47.9258L55.1845 43.5314C55.8435 43.9799 56.6395 44.2422 57.4968 44.2422C58.354 44.2422 59.15 43.9799 59.809 43.5314L64.2034 47.9258Z" fill="white"/>
<path d="M49.6985 46.8333L54.0929 42.4389C53.6443 41.78 53.3821 40.9839 53.3821 40.1267C53.3821 39.2695 53.6443 38.4734 54.0929 37.8145L49.6985 33.42C48.1483 35.2207 47.2112 37.5643 47.2112 40.1267C47.2112 42.6892 48.1483 45.0327 49.6985 46.8333Z" fill="white"/>
<path d="M57.4969 36.013C56.6396 36.013 55.8436 36.2753 55.1846 36.7239L50.7902 32.3294C52.5909 30.7793 54.9344 29.8422 57.4969 29.8422C60.0593 29.8422 62.4028 30.7793 64.2035 32.3294L59.8091 36.7239C59.1501 36.2753 58.3541 36.013 57.4969 36.013Z" fill="white"/>
<rect x="69.8978" y="0.2" width="42.3689" height="42.3689" rx="21.1845" fill="white" stroke="black" stroke-width="0.4"/>
<path d="M99.887 30.1929C99.9449 31.4611 98.9321 32.5214 97.6624 32.5214H84.5036C83.2339 32.5214 82.2203 31.4611 82.2782 30.1929L82.8834 16.8952C82.9012 16.4979 83.2279 16.1861 83.6252 16.1861H98.5416C98.9388 16.1861 99.2655 16.4979 99.2833 16.8952L99.887 30.1929Z" fill="#3B2F77"/>
<path d="M91.2204 10.2482C88.6973 10.1724 86.6279 12.195 86.6279 14.701V15.4435H88.1129V14.701C88.1129 13.0608 89.4428 11.731 91.083 11.731C92.7232 11.731 94.0531 13.0608 94.0531 14.701V15.4435H95.5381V14.8881C95.5381 12.4482 93.658 10.3209 91.2204 10.2482Z" fill="#49D3D3"/>
<rect x="53.2659" y="53.2664" width="42.3689" height="42.3689" rx="21.1845" fill="white" stroke="black" stroke-width="0.4"/>
<path d="M74.4504 70.4899C76.3315 70.4899 77.9155 71.777 78.3115 73.559C78.4105 74.054 79.0045 74.45 79.4996 74.252C79.9946 74.153 80.3906 73.559 80.1926 73.064C79.5986 70.2919 77.2225 68.5099 74.4504 68.5099C71.1834 68.5099 68.5103 71.1829 68.5103 74.45C68.5103 77.5191 70.8864 80.0931 73.9554 80.3901H74.0544C74.5494 80.3901 74.9455 79.9941 75.0445 79.4991C75.1435 79.0041 74.6484 78.5091 74.1534 78.4101C72.1734 78.2121 70.4904 76.4301 70.4904 74.45C70.4904 72.272 72.2724 70.4899 74.4504 70.4899Z" fill="#3B2F77"/>
<path d="M74.451 82.3712C70.0949 82.3712 66.5308 78.8071 66.5308 74.451C66.5308 70.0949 70.0949 66.5308 74.451 66.5308C78.6091 66.5308 82.0742 69.7979 82.3712 73.956C82.3712 74.55 82.8662 74.946 83.4602 74.847C84.0542 74.847 84.4502 74.352 84.3512 73.758C83.9552 68.6099 79.6981 64.5508 74.451 64.5508C69.0059 64.5508 64.5508 69.0059 64.5508 74.451C64.5508 79.8961 69.0059 84.3512 74.451 84.3512C75.045 84.3512 75.441 83.9552 75.441 83.3612C75.441 82.7672 75.045 82.3712 74.451 82.3712Z" fill="#3B2F77"/>
<path d="M83.6573 76.9265C83.5583 76.8275 83.3603 76.7285 83.2613 76.7285L76.8262 74.5505C76.2322 74.3525 75.5392 74.5505 75.0442 75.0455C74.5491 75.5405 74.4501 76.2335 74.7471 76.8275L77.7172 83.3617C78.0142 83.9557 78.6082 84.3517 79.2022 84.3517C79.3012 84.3517 79.4002 84.3517 79.4992 84.3517C80.2913 84.2527 80.7863 83.6587 80.8853 82.8667L81.1823 80.4906L83.1623 79.8966C83.7563 79.6986 84.2514 79.2036 84.3504 78.5106C84.4494 77.9166 84.1523 77.2235 83.6573 76.9265ZM80.4893 78.6096C79.7963 78.8076 79.4002 79.3026 79.3012 79.9956L79.1032 81.4806L76.9252 76.6295L81.6773 78.2136L80.4893 78.6096Z" fill="#49D3D3"/>
</svg>
