<svg width="30" height="30" viewBox="0 0 30 30" fill="none" xmlns="http://www.w3.org/2000/svg">
<path fill-rule="evenodd" clip-rule="evenodd" d="M26.5485 10.2165C27.0489 11.4245 27.3559 12.7017 27.46 14.0011C27.5042 14.5516 27.0523 15 26.5 15H26.0001C25.4478 15 25.0052 14.5511 24.9501 14.0016C24.8527 13.0306 24.6136 12.0773 24.2388 11.1725C23.4818 9.34537 22.2 7.78373 20.5555 6.68504C19.1892 5.77215 17.6234 5.21294 15.9984 5.04993C15.4489 4.99481 15 4.55227 15 3.99998V3.5C15 2.94772 15.4484 2.49584 15.9989 2.53998C17.2983 2.64415 18.5755 2.9511 19.7835 3.45151C21.3001 4.07969 22.6781 5.00043 23.8388 6.16117C24.9996 7.3219 25.9203 8.69989 26.5485 10.2165Z" fill="#49D3D3"/>
<path d="M2.5 12.5V6.25C2.5 5.91848 2.6317 5.60054 2.86612 5.36612C3.10054 5.1317 3.41848 5 3.75 5H10C10.3315 5 10.6495 5.1317 10.8839 5.36612C11.1183 5.60054 11.25 5.91848 11.25 6.25V11.25C11.25 11.5815 11.1183 11.8995 10.8839 12.1339C10.6495 12.3683 10.3315 12.5 10 12.5H7.5C7.5 15.1522 8.55357 17.6957 10.4289 19.5711C12.3043 21.4464 14.8478 22.5 17.5 22.5V20C17.5 19.6685 17.6317 19.3505 17.8661 19.1161C18.1005 18.8817 18.4185 18.75 18.75 18.75H23.75C24.0815 18.75 24.3995 18.8817 24.6339 19.1161C24.8683 19.3505 25 19.6685 25 20V26.25C25 26.5815 24.8683 26.8995 24.6339 27.1339C24.3995 27.3683 24.0815 27.5 23.75 27.5H17.5C9.21625 27.5 2.5 20.7838 2.5 12.5Z" fill="#241A56"/>
<path d="M21.9287 12.13C22.1778 12.7311 22.3471 13.3607 22.4333 14.0028C22.5068 14.5503 22.0522 15 21.4999 15H21.25C20.6977 15 20.2596 14.5483 20.1551 14.006C19.9579 12.9835 19.4593 12.0346 18.7123 11.2877C17.9654 10.5407 17.0165 10.0421 15.994 9.84494C15.4517 9.74036 15 9.30228 15 8.75V8.50005C15 7.94775 15.4497 7.49317 15.9971 7.56663C17.1268 7.71822 18.2116 8.126 19.1666 8.76413C20.3999 9.58826 21.3611 10.7596 21.9287 12.13Z" fill="#49D3D3"/>
</svg>
