<svg width="30" height="30" viewBox="0 0 30 30" fill="none" xmlns="http://www.w3.org/2000/svg">
<path fill-rule="evenodd" clip-rule="evenodd" d="M12.075 17.5H17.925L17.3875 20H12.6125C13.125 21.7875 13.9625 23.45 15 24.95L12.9022 27.3227C11.983 27.1662 11.082 26.907 10.2165 26.5485C8.69989 25.9203 7.3219 24.9996 6.16117 23.8388C3.81696 21.4946 2.5 18.3152 2.5 15C2.5 8.66757 7.24037 3.39564 13.3903 2.60295L15 5.0375C13.9625 6.5375 13.125 8.2125 12.6125 10H17.3875L17.925 12.5H12.075C11.95 13.3125 11.875 14.15 11.875 15C11.875 15.85 11.95 16.675 12.075 17.5ZM6.35 10H10C10.4375 8.4375 11 6.9375 11.75 5.55C9.46832 6.32655 7.5483 7.90879 6.35 10ZM10 20H6.35C7.55536 22.0852 9.47283 23.6654 11.75 24.45C11 23.0625 10.4375 21.5625 10 20ZM5 15C5 15.8625 5.125 16.7 5.325 17.5H9.55C9.45 16.675 9.375 15.85 9.375 15C9.375 14.15 9.45 13.325 9.55 12.5H5.325C5.125 13.3 5 14.1375 5 15Z" fill="#241A56"/>
<path fill-rule="evenodd" clip-rule="evenodd" d="M18.125 15C18.125 14.15 18.0375 13.3125 17.925 12.5L17.3875 10C16.875 8.2125 16.0375 6.5375 15 5.0375L13.3903 2.60295C13.9172 2.53503 14.4545 2.5 15 2.5C16.6415 2.5 18.267 2.82332 19.7835 3.45151C21.3001 4.07969 22.6781 5.00043 23.8388 6.16117C24.9996 7.3219 25.9203 8.69989 26.5485 10.2165C27.1767 11.733 27.5 13.3585 27.5 15C27.5 18.3152 26.183 21.4946 23.8388 23.8388C21.4946 26.183 18.3152 27.5 15 27.5C14.2953 27.5 13.5936 27.4404 12.9022 27.3227L15 24.95C16.0375 23.45 16.875 21.7875 17.3875 20L17.925 17.5C18.0375 16.675 18.125 15.85 18.125 15ZM18.2375 24.45C18.9875 23.0625 19.5625 21.5625 19.9625 20H23.65C22.439 22.0853 20.5176 23.665 18.2375 24.45ZM23.65 10H19.9625C19.5707 8.45201 18.9914 6.95763 18.2375 5.55C20.5375 6.3375 22.45 7.925 23.65 10ZM20.625 15C20.625 15.85 20.55 16.675 20.45 17.5H24.675C24.875 16.7 25 15.8625 25 15C25 14.1375 24.875 13.3 24.675 12.5H20.45C20.55 13.325 20.625 14.15 20.625 15Z" fill="#49D3D3"/>
</svg>
