<svg width="120" height="125" viewBox="0 0 120 125" fill="none" xmlns="http://www.w3.org/2000/svg">
<path d="M85 74.7C85 70.4446 81.4303 67 77.0348 67H53.9652C49.5632 67 46 70.4446 46 74.7V89H65.5065H85V74.7Z" fill="#49D3D3"/>
<path d="M52 76.7793C52 74.1857 50.9728 71.6983 49.1443 69.8643C47.3158 68.0303 44.8359 67 42.25 67H9.75C7.16414 67 4.68419 68.0303 2.85571 69.8643C1.02723 71.6983 0 74.1857 0 76.7793V77.2683V98H52V77.3921V76.7793Z" fill="#3B2F77"/>
<path d="M65 60C68.4478 60 71.7544 58.6304 74.1924 56.1924C76.6304 53.7544 78 50.4478 78 47C78 43.5522 76.6304 40.2456 74.1924 37.8076C71.7544 35.3696 68.4478 34 65 34C61.5522 34 58.2456 35.3696 55.8076 37.8076C53.3696 40.2456 52 43.5522 52 47C52 50.4478 53.3696 53.7544 55.8076 56.1924C58.2456 58.6304 61.5522 60 65 60Z" fill="#49D3D3"/>
<path d="M43 43.5C43 47.8761 41.2616 52.0729 38.1673 55.1673C35.0729 58.2616 30.8761 60 26.5 60C22.1239 60 17.9271 58.2616 14.8327 55.1673C11.7384 52.0729 10 47.8761 10 43.5C10 39.1239 11.7384 34.9271 14.8327 31.8327C17.9271 28.7384 22.1239 27 26.5 27C30.8761 27 35.0729 28.7384 38.1673 31.8327C41.2616 34.9271 43 39.1239 43 43.5Z" fill="#3B2F77"/>
</svg>
