<svg width="168" height="168" viewBox="0 0 168 168" fill="none" xmlns="http://www.w3.org/2000/svg">
<circle cx="84" cy="84" r="84" fill="#49D3D3" fill-opacity="0.21"/>
<circle cx="84" cy="84" r="55" fill="#49D3D3" fill-opacity="0.21"/>
<path d="M62.6552 105.499C60.3319 107.823 56.5652 107.823 54.2419 105.499C51.9186 103.176 51.9186 99.4092 54.2419 97.0859L55.9374 95.3904C56.7118 94.616 56.7118 93.3604 55.9374 92.586L49.5225 86.171C48.2975 84.946 48.2975 82.9598 49.5225 81.7348L71.2997 59.9576C72.5247 58.7325 74.5108 58.7325 75.7359 59.9576L82.7366 66.9584L91.2324 58.4626C92.4715 57.2235 94.4804 57.2235 95.7195 58.4626L118.982 81.7255C120.221 82.9646 120.221 84.9735 118.982 86.2126L95.4365 109.759C94.1974 110.998 92.1885 110.998 90.9494 109.759L88.487 107.296C88.3572 106.684 87.6222 106.231 87.271 106.08L80.5694 112.782C79.3443 114.007 77.3582 114.007 76.1332 112.782L67.1382 103.821C66.3638 103.046 65.1082 103.046 64.3338 103.821L62.6552 105.499Z" fill="#3B2F77"/>
<path d="M88.6602 97.6986C87.5803 96.6188 86.7231 95.8425 86.0333 95.1902C85.3977 94.5893 84.7867 93.9921 84.4468 93.3747C84.2565 93.029 84.1196 92.627 84.1192 92.1702C84.1188 91.7165 84.253 91.3139 84.4371 90.9654C84.7712 90.3328 85.3781 89.6937 86.0554 89.0164L89.9944 85.0774L90.33 84.7408C90.6202 84.448 90.8191 84.2398 90.9589 84.0701C90.7921 83.8708 90.5324 83.6081 90.1112 83.187L87.3503 80.4261C86.716 79.7917 86.2856 79.438 85.9705 79.2549C85.6917 79.0929 85.5999 79.119 85.5754 79.1237C85.4899 79.14 85.2879 79.2161 84.873 79.5587C84.4634 79.8969 83.9807 80.3778 83.3068 81.0518C82.6708 81.6877 82.0871 82.2629 81.539 82.6432C80.948 83.0533 80.2323 83.3541 79.3747 83.1942C78.6232 83.054 77.9732 82.5889 77.3897 82.0915C76.7833 81.5746 76.0573 80.8485 75.1693 79.9622C74.2836 79.0783 73.5561 78.3532 73.0483 77.7436C72.5577 77.1547 72.0933 76.4725 72.0143 75.66C71.9289 74.7805 72.3165 74.0683 72.7535 73.4942C73.1792 72.935 73.8106 72.3071 74.5277 71.59L83.6419 62.4758L85.4265 64.2605L76.3124 73.3746C75.543 74.144 75.0594 74.6319 74.7617 75.0228C74.6212 75.2075 74.5627 75.3202 74.5389 75.3811C74.5308 75.4019 74.5277 75.414 74.5267 75.4187C74.531 75.4455 74.5754 75.6338 74.9876 76.1285C75.4033 76.6276 76.0309 77.2563 76.9522 78.1759C77.8713 79.0931 78.5143 79.734 79.0269 80.1709C79.5623 80.6273 79.7815 80.7027 79.8376 80.7131C79.8376 80.7131 79.8315 80.7152 79.8443 80.7114C79.8722 80.7032 79.9514 80.6727 80.1002 80.5695C80.4254 80.3439 80.8423 79.9469 81.5221 79.2671C82.164 78.6252 82.7425 78.0446 83.2659 77.6124C83.7839 77.1847 84.3868 76.7808 85.1043 76.6444C85.8827 76.4965 86.592 76.697 87.2385 77.0727C87.8489 77.4273 88.4685 77.975 89.1347 78.6412L91.8958 81.4023C92.3174 81.8239 92.716 82.219 92.9938 82.5715C93.2708 82.9229 93.6063 83.4459 93.5846 84.1283C93.5637 84.788 93.2152 85.2955 92.9353 85.6406C92.7177 85.9089 92.4313 86.2068 92.1104 86.5302L87.8401 90.8011C87.1131 91.528 86.795 91.9053 86.6689 92.144C86.6655 92.1505 86.6631 92.157 86.6604 92.1625C86.7765 92.3702 87.07 92.6967 87.7674 93.356C88.416 93.9693 89.3318 94.801 90.4448 95.914C91.5129 96.9821 92.4162 97.8827 93.0092 98.6876C93.625 99.5233 94.0601 100.457 93.8951 101.572C93.7444 102.589 93.1195 103.511 92.3393 104.432C91.5382 105.378 90.3909 106.524 88.9388 107.976L87.1541 106.191C88.6389 104.707 89.6964 103.648 90.4137 102.801C91.1517 101.93 91.3587 101.471 91.3986 101.202C91.4241 101.03 91.4081 100.769 90.9774 100.185C90.5239 99.5692 89.7847 98.8232 88.6602 97.6986Z" fill="#B9EDED"/>
<path d="M90.4484 90.8235C91.1712 91.5464 91.1712 92.7184 90.4484 93.4413C89.7255 94.1641 88.5535 94.1641 87.8307 93.4413C87.1078 92.7184 87.1078 91.5464 87.8307 90.8235C88.5535 90.1007 89.7255 90.1007 90.4484 90.8235Z" fill="#3B2F77"/>
<path d="M78.4401 74.0416C79.2147 74.8162 79.2147 76.0721 78.4401 76.8467C77.6655 77.6213 76.4096 77.6213 75.635 76.8467C74.8604 76.0721 74.8604 74.8162 75.635 74.0416C76.4096 73.267 77.6655 73.267 78.4401 74.0416Z" fill="#3B2F77"/>
<path d="M75.635 76.8467C74.8604 76.0721 74.8604 74.8162 75.635 74.0416L75.562 73.793L74.0716 75.2833L75.635 76.8467Z" fill="#B9EDED"/>
<path d="M81.1926 76.7941C80.418 76.0195 79.1621 76.0195 78.3875 76.7941C77.6129 77.5687 77.6129 78.8246 78.3875 79.5992C79.1621 80.3738 80.418 80.3738 81.1926 79.5992C81.9671 78.8246 81.9671 77.5687 81.1926 76.7941Z" fill="#3B2F77"/>
<path d="M78.3875 79.5992C79.1621 80.3738 80.418 80.3738 81.1926 79.5992L81.4412 79.6722L79.9509 81.1626L78.3875 79.5992Z" fill="#B9EDED"/>
<path d="M84.2357 82.934C85.0103 83.7086 86.2661 83.7086 87.0407 82.934C87.8153 82.1594 87.8153 80.9035 87.0407 80.1289C86.2661 79.3543 85.0103 79.3543 84.2357 80.1289C83.4611 80.9035 83.4611 82.1594 84.2357 82.934Z" fill="#3B2F77"/>
<path d="M87.0407 80.1289C86.2661 79.3543 85.0103 79.3543 84.2357 80.1289L83.987 80.0559L85.4774 78.5656L87.0407 80.1289Z" fill="#B9EDED"/>
<path d="M86.792 85.4704C86.0174 84.6958 86.0174 83.44 86.792 82.6654C87.5666 81.8908 88.8225 81.8908 89.5971 82.6654C90.3717 83.44 90.3717 84.6958 89.5971 85.4704C88.8225 86.245 87.5666 86.245 86.792 85.4704Z" fill="#3B2F77"/>
<path d="M89.5971 82.6654C90.3717 83.44 90.3717 84.6958 89.5971 85.4704L89.6701 85.7191L91.1605 84.2287L89.5971 82.6654Z" fill="#B9EDED"/>
<path d="M90.7002 90.7325C91.4748 91.5071 91.4795 92.7583 90.7107 93.5272C89.9418 94.296 88.6907 94.2913 87.9161 93.5167C87.1415 92.7421 87.1368 91.4909 87.9056 90.7221C88.6744 89.9533 89.9256 89.9579 90.7002 90.7325Z" fill="#3B2F77"/>
<path d="M87.9161 93.5167C87.1415 92.7421 87.1368 91.4909 87.9056 90.7221L87.8319 90.4741L86.3527 91.9533L87.9161 93.5167Z" fill="#B9EDED"/>
<path d="M87.8051 102.571C87.0305 101.797 87.0305 100.541 87.8051 99.7662C88.5797 98.9916 89.8356 98.9916 90.6102 99.7662C91.3848 100.541 91.3848 101.797 90.6102 102.571C89.8356 103.346 88.5797 103.346 87.8051 102.571Z" fill="#3B2F77"/>
<path d="M90.6102 99.7662C91.3848 100.541 91.3848 101.797 90.6102 102.571L90.6832 102.82L92.1735 101.33L90.6102 99.7662Z" fill="#B9EDED"/>
</svg>
