<svg width="130" height="30" viewBox="0 0 130 30" fill="none" xmlns="http://www.w3.org/2000/svg">
<path d="M8.36745 21.606C7.50938 22.4641 6.11816 22.4641 5.26009 21.606C4.40201 20.7479 4.40201 19.3567 5.26009 18.4986L5.88631 17.8724C6.17233 17.5864 6.17233 17.1227 5.88631 16.8366L3.51703 14.4674C3.06458 14.0149 3.06458 13.2813 3.51703 12.8289L11.5602 4.78569C12.0126 4.33324 12.7462 4.33324 13.1987 4.78569L15.7843 7.37135L18.9221 4.23353C19.3798 3.77589 20.1218 3.77589 20.5794 4.23353L29.1713 12.8255C29.6289 13.2831 29.6289 14.0251 29.1713 14.4827L20.4749 23.1792C20.0172 23.6368 19.2752 23.6368 18.8176 23.1792L17.9082 22.2697C17.8602 22.0437 17.5888 21.8761 17.459 21.8206L14.9839 24.2958C14.5314 24.7482 13.7978 24.7482 13.3454 24.2958L10.0232 20.9861C9.73718 20.7 9.27344 20.7 8.98742 20.9861L8.36745 21.606Z" fill="#3B2F77"/>
<path d="M17.9721 18.7249C17.5733 18.3261 17.2567 18.0394 17.0019 17.7985C16.7672 17.5765 16.5415 17.356 16.416 17.128C16.3457 17.0003 16.2951 16.8518 16.2949 16.6831C16.2948 16.5155 16.3444 16.3668 16.4124 16.2381C16.5358 16.0045 16.7599 15.7684 17.0101 15.5183L18.4649 14.0634L18.5889 13.9391C18.696 13.831 18.7695 13.7541 18.8211 13.6914C18.7595 13.6178 18.6636 13.5208 18.508 13.3652L17.4883 12.3455C17.254 12.1112 17.0951 11.9806 16.9787 11.913C16.8758 11.8531 16.8418 11.8628 16.8328 11.8645C16.8012 11.8705 16.7266 11.8986 16.5734 12.0251C16.4221 12.1501 16.2438 12.3277 15.9949 12.5766C15.76 12.8115 15.5444 13.0239 15.342 13.1644C15.1237 13.3159 14.8594 13.4269 14.5426 13.3679C14.2651 13.3161 14.025 13.1443 13.8095 12.9606C13.5855 12.7697 13.3174 12.5015 12.9894 12.1742C12.6623 11.8477 12.3936 11.5799 12.206 11.3548C12.0249 11.1373 11.8533 10.8853 11.8242 10.5852C11.7926 10.2604 11.9357 9.99733 12.0972 9.78528C12.2544 9.57878 12.4876 9.34685 12.7524 9.082L16.1187 5.71577L16.7778 6.37491L13.4116 9.74114C13.1274 10.0253 12.9488 10.2055 12.8389 10.3499C12.787 10.4181 12.7654 10.4597 12.7566 10.4822C12.7536 10.4899 12.7524 10.4943 12.7521 10.4961C12.7537 10.506 12.7701 10.5755 12.9223 10.7583C13.0758 10.9426 13.3076 11.1748 13.6479 11.5144C13.9874 11.8532 14.2249 12.0899 14.4142 12.2513C14.6119 12.4198 14.6929 12.4477 14.7136 12.4515C14.7136 12.4515 14.7114 12.4523 14.7161 12.4509C14.7264 12.4479 14.7556 12.4366 14.8106 12.3985C14.9307 12.3151 15.0847 12.1685 15.3358 11.9175C15.5728 11.6804 15.7865 11.4659 15.9798 11.3063C16.1711 11.1483 16.3938 10.9992 16.6588 10.9488C16.9463 10.8942 17.2083 10.9682 17.4471 11.107C17.6725 11.2379 17.9013 11.4402 18.1474 11.6863L19.1672 12.7061C19.3229 12.8618 19.4701 13.0077 19.5727 13.1379C19.675 13.2677 19.7989 13.4609 19.7909 13.7129C19.7832 13.9566 19.6545 14.144 19.5511 14.2714C19.4707 14.3705 19.365 14.4806 19.2464 14.6L17.6692 16.1774C17.4007 16.4459 17.2832 16.5853 17.2367 16.6734C17.2354 16.6758 17.2345 16.6782 17.2335 16.6802C17.2764 16.757 17.3848 16.8775 17.6424 17.1211C17.8819 17.3476 18.2202 17.6547 18.6313 18.0658C19.0258 18.4603 19.3594 18.7929 19.5784 19.0902C19.8058 19.3988 19.9665 19.7438 19.9056 20.1554C19.8499 20.5312 19.6191 20.8717 19.3309 21.2119C19.0351 21.5612 18.6114 21.9845 18.075 22.5208L17.4159 21.8617C17.9643 21.3133 18.3548 20.9221 18.6198 20.6094C18.8923 20.2876 18.9688 20.1184 18.9835 20.0189C18.993 19.9552 18.9871 19.8591 18.8279 19.6431C18.6605 19.4158 18.3875 19.1403 17.9721 18.7249Z" fill="white"/>
<path d="M18.6326 16.1857C18.8995 16.4527 18.8995 16.8855 18.6326 17.1525C18.3656 17.4195 17.9327 17.4195 17.6657 17.1525C17.3988 16.8855 17.3988 16.4527 17.6657 16.1857C17.9327 15.9187 18.3656 15.9187 18.6326 16.1857Z" fill="#3B2F77"/>
<path d="M14.1974 9.98749C14.4835 10.2736 14.4835 10.7374 14.1974 11.0235C13.9113 11.3096 13.4475 11.3096 13.1614 11.0235C12.8753 10.7374 12.8753 10.2736 13.1614 9.98749C13.4475 9.7014 13.9113 9.7014 14.1974 9.98749Z" fill="#3B2F77"/>
<path d="M13.1614 11.0235C12.8753 10.7374 12.8753 10.2736 13.1614 9.98749L13.1344 9.89565L12.584 10.4461L13.1614 11.0235Z" fill="white"/>
<path d="M15.214 11.0041C14.9279 10.718 14.4641 10.718 14.178 11.0041C13.8919 11.2902 13.8919 11.754 14.178 12.0401C14.4641 12.3262 14.9279 12.3262 15.214 12.0401C15.5001 11.754 15.5001 11.2902 15.214 11.0041Z" fill="#3B2F77"/>
<path d="M14.178 12.0401C14.4641 12.3262 14.9279 12.3262 15.214 12.0401L15.3059 12.0671L14.7554 12.6175L14.178 12.0401Z" fill="white"/>
<path d="M16.338 13.2718C16.6241 13.5579 17.0879 13.5579 17.374 13.2718C17.6601 12.9857 17.6601 12.5219 17.374 12.2358C17.0879 11.9497 16.6241 11.9497 16.338 12.2358C16.0519 12.5219 16.0519 12.9857 16.338 13.2718Z" fill="#3B2F77"/>
<path d="M17.374 12.2358C17.0879 11.9497 16.6241 11.9497 16.338 12.2358L16.2461 12.2088L16.7966 11.6583L17.374 12.2358Z" fill="white"/>
<path d="M17.2821 14.2086C16.996 13.9225 16.996 13.4587 17.2821 13.1726C17.5682 12.8865 18.0321 12.8865 18.3182 13.1726C18.6042 13.4587 18.6042 13.9225 18.3182 14.2086C18.0321 14.4947 17.5682 14.4947 17.2821 14.2086Z" fill="#3B2F77"/>
<path d="M18.3182 13.1726C18.6042 13.4587 18.6042 13.9225 18.3182 14.2086L18.3451 14.3004L18.8956 13.75L18.3182 13.1726Z" fill="white"/>
<path d="M18.7256 16.1521C19.0117 16.4382 19.0134 16.9003 18.7294 17.1843C18.4455 17.4682 17.9834 17.4665 17.6973 17.1804C17.4112 16.8943 17.4095 16.4322 17.6934 16.1482C17.9774 15.8643 18.4395 15.866 18.7256 16.1521Z" fill="#3B2F77"/>
<path d="M17.6973 17.1804C17.4112 16.8943 17.4095 16.4322 17.6934 16.1482L17.6662 16.0566L17.1199 16.603L17.6973 17.1804Z" fill="white"/>
<path d="M17.6563 20.5246C17.3702 20.2385 17.3702 19.7747 17.6563 19.4886C17.9424 19.2025 18.4062 19.2025 18.6923 19.4886C18.9784 19.7747 18.9784 20.2385 18.6923 20.5246C18.4062 20.8107 17.9424 20.8107 17.6563 20.5246Z" fill="#3B2F77"/>
<path d="M18.6923 19.4886C18.9784 19.7747 18.9784 20.2385 18.6923 20.5246L18.7193 20.6164L19.2697 20.066L18.6923 19.4886Z" fill="white"/>
<path d="M48.7359 12.6341H45.5665C45.5086 12.2208 45.3904 11.8536 45.2119 11.5327C45.0335 11.2069 44.8043 10.9297 44.5245 10.7012C44.2447 10.4726 43.9215 10.2975 43.5549 10.176C43.1931 10.0544 42.7999 9.99363 42.3754 9.99363C41.6084 9.99363 40.9403 10.1857 40.371 10.5699C39.8018 10.9492 39.3604 11.5035 39.0469 12.2329C38.7333 12.9575 38.5765 13.8376 38.5765 14.8734C38.5765 15.9383 38.7333 16.8331 39.0469 17.5576C39.3652 18.2822 39.809 18.8292 40.3783 19.1988C40.9475 19.5684 41.606 19.7531 42.3537 19.7531C42.7734 19.7531 43.1617 19.6972 43.5187 19.5854C43.8805 19.4735 44.2013 19.3106 44.4811 19.0967C44.7609 18.8778 44.9924 18.6128 45.1758 18.3016C45.3639 17.9904 45.4941 17.6354 45.5665 17.2367L48.7359 17.2513C48.6539 17.9369 48.4488 18.5982 48.1208 19.2353C47.7976 19.8674 47.361 20.4339 46.8111 20.9348C46.266 21.4308 45.6147 21.8247 44.8574 22.1164C44.1048 22.4033 43.2534 22.5468 42.3031 22.5468C40.9813 22.5468 39.7994 22.2453 38.7574 21.6423C37.7203 21.0393 36.9002 20.1665 36.2972 19.0237C35.699 17.881 35.3999 16.4975 35.3999 14.8734C35.3999 13.2444 35.7038 11.8585 36.3116 10.7157C36.9195 9.573 37.7444 8.70257 38.7864 8.10445C39.8283 7.50147 41.0006 7.19998 42.3031 7.19998C43.1617 7.19998 43.9577 7.32155 44.6909 7.56469C45.429 7.80782 46.0827 8.1628 46.6519 8.62963C47.2211 9.09159 47.6842 9.6581 48.0412 10.3292C48.403 11.0002 48.6346 11.7685 48.7359 12.6341Z" fill="#3B2F77"/>
<path d="M55.9466 22.5614C54.8226 22.5614 53.8505 22.3207 53.0305 21.8393C52.2152 21.353 51.5857 20.6771 51.1419 19.8115C50.698 18.9411 50.4761 17.932 50.4761 16.7844C50.4761 15.6271 50.698 14.6157 51.1419 13.7501C51.5857 12.8797 52.2152 12.2037 53.0305 11.7223C53.8505 11.2361 54.8226 10.9929 55.9466 10.9929C57.0706 10.9929 58.0402 11.2361 58.8554 11.7223C59.6755 12.2037 60.3075 12.8797 60.7513 13.7501C61.1951 14.6157 61.417 15.6271 61.417 16.7844C61.417 17.932 61.1951 18.9411 60.7513 19.8115C60.3075 20.6771 59.6755 21.353 58.8554 21.8393C58.0402 22.3207 57.0706 22.5614 55.9466 22.5614ZM55.961 20.1543C56.4724 20.1543 56.8993 20.0084 57.2418 19.7167C57.5843 19.42 57.8424 19.0164 58.0161 18.5058C58.1946 17.9953 58.2838 17.4142 58.2838 16.7626C58.2838 16.111 58.1946 15.5299 58.0161 15.0193C57.8424 14.5087 57.5843 14.1051 57.2418 13.8084C56.8993 13.5118 56.4724 13.3635 55.961 13.3635C55.4449 13.3635 55.0107 13.5118 54.6586 13.8084C54.3112 14.1051 54.0483 14.5087 53.8698 15.0193C53.6962 15.5299 53.6093 16.111 53.6093 16.7626C53.6093 17.4142 53.6962 17.9953 53.8698 18.5058C54.0483 19.0164 54.3112 19.42 54.6586 19.7167C55.0107 20.0084 55.4449 20.1543 55.961 20.1543Z" fill="#3B2F77"/>
<path d="M66.5039 7.40422V22.3426H63.4214V7.40422H66.5039Z" fill="#3B2F77"/>
<path d="M72.0557 7.40422V22.3426H68.9732V7.40422H72.0557Z" fill="#3B2F77"/>
<path d="M77.6944 22.5541C76.9853 22.5541 76.3533 22.4301 75.7986 22.1821C75.2438 21.9292 74.8048 21.5572 74.4816 21.0661C74.1632 20.5701 74.004 19.9525 74.004 19.2134C74.004 18.5909 74.1174 18.0682 74.3441 17.6451C74.5709 17.2221 74.8796 16.8817 75.2703 16.624C75.6611 16.3662 76.1049 16.1717 76.6018 16.0404C77.1035 15.9091 77.6293 15.8168 78.1792 15.7633C78.8256 15.6952 79.3466 15.632 79.7422 15.5736C80.1378 15.5104 80.4248 15.418 80.6033 15.2964C80.7818 15.1749 80.871 14.995 80.871 14.7567V14.7129C80.871 14.251 80.7263 13.8935 80.4369 13.6407C80.1522 13.3878 79.747 13.2614 79.2212 13.2614C78.6664 13.2614 78.225 13.3854 77.897 13.6334C77.569 13.8765 77.3519 14.1829 77.2458 14.5524L74.3948 14.319C74.5395 13.6382 74.8241 13.0499 75.2486 12.5539C75.6731 12.053 76.2207 11.6688 76.8912 11.4014C77.5666 11.1291 78.3481 10.9929 79.2357 10.9929C79.8532 10.9929 80.4441 11.0659 81.0085 11.2117C81.5777 11.3576 82.0818 11.5837 82.5208 11.8901C82.9646 12.1964 83.3144 12.5903 83.57 13.0717C83.8257 13.5483 83.9536 14.1197 83.9536 14.7859V22.3426H81.0302V20.7889H80.9434C80.7649 21.139 80.5261 21.4478 80.227 21.7153C79.9279 21.9778 79.5685 22.1845 79.1488 22.3353C78.7292 22.4811 78.2443 22.5541 77.6944 22.5541ZM78.5772 20.4096C79.0307 20.4096 79.431 20.3197 79.7784 20.1397C80.1257 19.9549 80.3983 19.7069 80.596 19.3957C80.7938 19.0845 80.8927 18.732 80.8927 18.3381V17.1491C80.7962 17.2124 80.6636 17.2707 80.4947 17.3242C80.3307 17.3728 80.145 17.419 79.9376 17.4628C79.7301 17.5017 79.5227 17.5382 79.3153 17.5722C79.1078 17.6014 78.9197 17.6281 78.7509 17.6524C78.3891 17.7059 78.0731 17.791 77.8029 17.9077C77.5328 18.0244 77.323 18.1825 77.1734 18.3819C77.0239 18.5764 76.9491 18.8195 76.9491 19.1113C76.9491 19.5343 77.1011 19.8577 77.405 20.0814C77.7137 20.3002 78.1045 20.4096 78.5772 20.4096Z" fill="#3B2F77"/>
<path d="M86.403 22.3426V7.40422H89.4855V13.0207H89.5796C89.7146 12.7192 89.91 12.4128 90.1657 12.1016C90.4262 11.7855 90.7639 11.523 91.1787 11.3139C91.5984 11.0999 92.1194 10.9929 92.7417 10.9929C93.5521 10.9929 94.2999 11.2069 94.9849 11.6348C95.6699 12.0579 96.2174 12.6973 96.6274 13.5532C97.0375 14.4041 97.2425 15.4715 97.2425 16.7553C97.2425 18.005 97.0423 19.0602 96.6419 19.9209C96.2463 20.7767 95.7061 21.4259 95.021 21.8684C94.3409 22.3061 93.5787 22.5249 92.7345 22.5249C92.1363 22.5249 91.6273 22.4252 91.2077 22.2258C90.7928 22.0265 90.4527 21.776 90.1874 21.4746C89.9221 21.1682 89.7195 20.8594 89.5796 20.5482H89.4421V22.3426H86.403ZM89.4204 16.7407C89.4204 17.4069 89.512 17.988 89.6953 18.484C89.8786 18.98 90.144 19.3666 90.4913 19.6437C90.8386 19.916 91.2607 20.0522 91.7576 20.0522C92.2593 20.0522 92.6838 19.9136 93.0311 19.6364C93.3785 19.3544 93.6414 18.9654 93.8199 18.4694C94.0032 17.9685 94.0948 17.3923 94.0948 16.7407C94.0948 16.0939 94.0056 15.525 93.8271 15.0339C93.6486 14.5427 93.3857 14.1586 93.0384 13.8814C92.691 13.6042 92.2641 13.4656 91.7576 13.4656C91.2559 13.4656 90.8314 13.5993 90.4841 13.8668C90.1416 14.1342 89.8786 14.5135 89.6953 15.0047C89.512 15.4958 89.4204 16.0745 89.4204 16.7407Z" fill="#3B2F77"/>
<path d="M104.321 22.5614C103.197 22.5614 102.225 22.3207 101.405 21.8393C100.59 21.353 99.9602 20.6771 99.5164 19.8115C99.0726 18.9411 98.8507 17.932 98.8507 16.7844C98.8507 15.6271 99.0726 14.6157 99.5164 13.7501C99.9602 12.8797 100.59 12.2037 101.405 11.7223C102.225 11.2361 103.197 10.9929 104.321 10.9929C105.445 10.9929 106.415 11.2361 107.23 11.7223C108.05 12.2037 108.682 12.8797 109.126 13.7501C109.57 14.6157 109.792 15.6271 109.792 16.7844C109.792 17.932 109.57 18.9411 109.126 19.8115C108.682 20.6771 108.05 21.353 107.23 21.8393C106.415 22.3207 105.445 22.5614 104.321 22.5614ZM104.336 20.1543C104.847 20.1543 105.274 20.0084 105.616 19.7167C105.959 19.42 106.217 19.0164 106.391 18.5058C106.569 17.9953 106.658 17.4142 106.658 16.7626C106.658 16.111 106.569 15.5299 106.391 15.0193C106.217 14.5087 105.959 14.1051 105.616 13.8084C105.274 13.5118 104.847 13.3635 104.336 13.3635C103.819 13.3635 103.385 13.5118 103.033 13.8084C102.686 14.1051 102.423 14.5087 102.244 15.0193C102.071 15.5299 101.984 16.111 101.984 16.7626C101.984 17.4142 102.071 17.9953 102.244 18.5058C102.423 19.0164 102.686 19.42 103.033 19.7167C103.385 20.0084 103.819 20.1543 104.336 20.1543Z" fill="#3B2F77"/>
<path d="M111.796 22.3426V11.1388H114.784V13.0936H114.9C115.103 12.3982 115.443 11.8731 115.92 11.5181C116.398 11.1583 116.948 10.9783 117.57 10.9783C117.725 10.9783 117.891 10.9881 118.07 11.0075C118.248 11.027 118.405 11.0537 118.54 11.0877V13.8449C118.395 13.8011 118.195 13.7622 117.939 13.7282C117.684 13.6942 117.45 13.6771 117.237 13.6771C116.784 13.6771 116.379 13.7768 116.022 13.9762C115.67 14.1707 115.39 14.443 115.182 14.7931C114.98 15.1433 114.878 15.5469 114.878 16.004V22.3426H111.796Z" fill="#3B2F77"/>
<path d="M122.985 22.5541C122.275 22.5541 121.644 22.4301 121.089 22.1821C120.534 21.9292 120.095 21.5572 119.772 21.0661C119.453 20.5701 119.294 19.9525 119.294 19.2134C119.294 18.5909 119.408 18.0682 119.634 17.6451C119.861 17.2221 120.17 16.8817 120.561 16.624C120.951 16.3662 121.395 16.1717 121.892 16.0404C122.394 15.9091 122.919 15.8168 123.469 15.7633C124.116 15.6952 124.637 15.632 125.032 15.5736C125.428 15.5104 125.715 15.418 125.894 15.2964C126.072 15.1749 126.161 14.995 126.161 14.7567V14.7129C126.161 14.251 126.017 13.8935 125.727 13.6407C125.442 13.3878 125.037 13.2614 124.511 13.2614C123.957 13.2614 123.515 13.3854 123.187 13.6334C122.859 13.8765 122.642 14.1829 122.536 14.5524L119.685 14.319C119.83 13.6382 120.114 13.0499 120.539 12.5539C120.963 12.053 121.511 11.6688 122.181 11.4014C122.857 11.1291 123.638 10.9929 124.526 10.9929C125.143 10.9929 125.734 11.0659 126.299 11.2117C126.868 11.3576 127.372 11.5837 127.811 11.8901C128.255 12.1964 128.605 12.5903 128.86 13.0717C129.116 13.5483 129.244 14.1197 129.244 14.7859V22.3426H126.32V20.7889H126.234C126.055 21.139 125.816 21.4478 125.517 21.7153C125.218 21.9778 124.859 22.1845 124.439 22.3353C124.019 22.4811 123.535 22.5541 122.985 22.5541ZM123.867 20.4096C124.321 20.4096 124.721 20.3197 125.069 20.1397C125.416 19.9549 125.688 19.7069 125.886 19.3957C126.084 19.0845 126.183 18.732 126.183 18.3381V17.1491C126.086 17.2124 125.954 17.2707 125.785 17.3242C125.621 17.3728 125.435 17.419 125.228 17.4628C125.02 17.5017 124.813 17.5382 124.605 17.5722C124.398 17.6014 124.21 17.6281 124.041 17.6524C123.679 17.7059 123.363 17.791 123.093 17.9077C122.823 18.0244 122.613 18.1825 122.464 18.3819C122.314 18.5764 122.239 18.8195 122.239 19.1113C122.239 19.5343 122.391 19.8577 122.695 20.0814C123.004 20.3002 123.395 20.4096 123.867 20.4096Z" fill="#3B2F77"/>
</svg>
