<svg width="456" height="345" viewBox="0 0 456 345" fill="none" xmlns="http://www.w3.org/2000/svg">
<path d="M241.708 106.946L241.108 107.668C241.136 107.63 241.162 107.591 241.187 107.551C241.22 107.499 241.253 107.447 241.292 107.399C241.425 107.24 241.563 107.089 241.708 106.946ZM242.978 116.804L242.713 116.599C242.354 116.321 242.014 116.057 241.693 115.805C241.835 115.948 241.986 116.086 242.145 116.218C242.172 116.241 242.2 116.263 242.228 116.286C242.248 116.302 242.268 116.318 242.288 116.334C242.51 116.508 242.741 116.665 242.978 116.804ZM240.92 107.895L241.043 107.746C241.037 107.754 241.03 107.762 241.023 107.769C240.987 107.81 240.95 107.85 240.92 107.895Z" fill="#241A56"/>
<path d="M254.265 142.428C253.985 142.923 253.639 143.481 253.215 144.115C253.245 144.08 253.275 144.045 253.304 144.01C253.711 143.52 254.03 142.987 254.265 142.428Z" fill="#241A56"/>
<path d="M244.866 90.5973L245.096 90.336C245.021 90.4257 244.945 90.5128 244.866 90.5973Z" fill="#49D3D3"/>
<path fill-rule="evenodd" clip-rule="evenodd" d="M197.229 58.9381C197.489 58.6129 197.77 58.2676 198.072 57.8993C197.931 58.0394 197.796 58.1873 197.667 58.343C197.507 58.5351 197.361 58.7338 197.229 58.9381ZM198.119 66.8652C198.163 66.908 198.21 66.9478 198.257 66.9877L198.318 67.0391C198.34 67.0587 198.382 67.0979 198.404 67.1186C198.431 67.1457 198.459 67.1728 198.489 67.1977C198.538 67.2379 198.587 67.2772 198.636 67.3157C198.535 67.2285 198.415 67.1239 198.318 67.0391L198.119 66.8652ZM207.68 74.8093C207.778 74.9019 207.88 74.9919 207.985 75.0792C208.182 75.2427 208.386 75.3922 208.596 75.5278C208.304 75.3019 207.999 75.0626 207.68 74.8093ZM216.556 74.5763C216.653 74.4737 216.748 74.3672 216.84 74.2566C216.91 74.1723 216.977 74.0868 217.042 74C216.874 74.2004 216.712 74.3924 216.556 74.5763ZM227.006 74.593C226.816 74.8083 226.619 75.0339 226.416 75.2702C226.45 75.2256 226.484 75.1814 226.519 75.1374L226.563 75.0828L226.601 75.0366C226.73 74.8809 226.866 74.733 227.006 74.593ZM244.614 81.7793L243.902 81.1886C244.027 81.2776 244.149 81.3717 244.269 81.4711C244.389 81.5704 244.504 81.6732 244.614 81.7793Z" fill="#241A56"/>
<path d="M235.372 74.1458C235.4 74.1688 235.427 74.1916 235.456 74.214C235.445 74.2052 235.435 74.1965 235.424 74.1878C235.407 74.1737 235.389 74.1597 235.372 74.1458ZM244.866 90.5973L245.096 90.336C245.021 90.4257 244.945 90.5128 244.866 90.5973Z" fill="#49D3D3"/>
<path d="M253.215 144.115C253.639 143.481 253.985 142.923 254.265 142.428C255.309 139.943 254.664 136.967 252.481 135.155L253.15 135.71C251.528 134.037 249.14 132.039 245.72 129.201C242.934 126.888 240.59 125.075 238.595 123.531C237.922 123.011 237.289 122.521 236.692 122.053C234.509 120.342 232.405 118.636 231.152 116.787C230.45 115.752 229.899 114.523 229.764 113.081C229.63 111.649 229.936 110.338 230.414 109.184C231.284 107.09 233.012 104.894 234.951 102.558L244.866 90.5973L245.096 90.336C247.214 87.7834 246.969 84.0416 244.614 81.7793L243.902 81.1886L236.52 75.0612C236.254 74.8404 235.995 74.6371 235.747 74.4431C235.648 74.3654 235.551 74.2892 235.456 74.214C235.427 74.1916 235.4 74.1688 235.372 74.1458C232.859 72.1301 229.252 72.3551 227.006 74.593C226.816 74.8083 226.619 75.0339 226.416 75.2702C225.693 76.1106 224.881 77.087 223.939 78.222C222.118 80.416 220.445 82.4028 218.826 83.7639C217.08 85.2319 214.91 86.3912 212.156 86.1378C209.742 85.9158 207.554 84.6381 205.566 83.2391C203.534 81.8089 201.077 79.7737 198.082 77.2924L197.933 77.1689L197.838 77.0903C194.826 74.5952 192.35 72.5445 190.587 70.7874C188.866 69.0721 187.2 67.0551 186.712 64.5132C186.185 61.7621 187.199 59.4002 188.41 57.4597C189.56 55.6174 191.309 53.5111 193.299 51.1142L193.453 50.9287L211.837 28.7794L193.855 13.8548C189.629 10.3471 183.359 10.9295 179.852 15.1557L117.494 90.2847C113.987 94.5109 114.569 100.781 118.795 104.288L140.926 122.657C143.598 124.875 143.966 128.838 141.748 131.51L136.893 137.359C130.241 145.374 131.345 157.265 139.36 163.917C147.375 170.57 159.266 169.465 165.918 161.45L170.725 155.659C172.942 152.987 176.906 152.619 179.577 154.837L210.599 180.486C214.825 183.994 221.095 183.412 224.603 179.186L243.456 156.451C247.707 151.329 250.735 147.676 252.751 144.793C252.915 144.558 253.07 144.332 253.215 144.115Z" fill="#49D3D3"/>
<path d="M198.119 66.8652C198.208 66.9386 198.259 66.9855 198.318 67.0391L198.119 66.8652ZM198.318 67.0391L198.636 67.3157C198.535 67.2285 198.415 67.1239 198.318 67.0391Z" fill="#241A56"/>
<path d="M241.043 107.746L241.108 107.668C241.088 107.695 241.066 107.721 241.043 107.746Z" fill="#241A56"/>
<path d="M241.693 115.805C242.014 116.057 242.354 116.321 242.713 116.599L242.978 116.804L243.408 117.137C245.419 118.693 247.922 120.631 250.83 123.044L250.967 123.158C254.592 126.167 257.656 128.71 259.738 131.047C261.927 133.505 263.574 136.325 263.38 139.892C263.203 143.147 261.501 146.241 259.308 149.377C257.116 152.513 253.943 156.344 249.939 161.168L256.482 166.599C260.757 170.147 267.098 169.558 270.646 165.283L338.068 84.0519C341.616 79.7772 341.027 73.4357 336.753 69.8877L256.498 3.27586C252.224 -0.27214 245.882 0.316934 242.334 4.59159L218.007 33.9011L199.609 56.0389C199.044 56.7196 198.533 57.3363 198.072 57.8993C197.77 58.2676 197.489 58.6129 197.229 58.9381C195.603 61.4392 195.964 64.7716 198.119 66.8652C198.208 66.9386 198.259 66.9855 198.318 67.0391L198.636 67.3157C199.827 68.3458 201.277 69.5488 203.037 71.0071C204.873 72.528 206.39 73.7833 207.68 74.8093C207.999 75.0626 208.304 75.3019 208.596 75.5278C211.115 77.1543 214.47 76.772 216.556 74.5763C216.712 74.3924 216.874 74.2004 217.042 74C217.276 73.7206 217.523 73.4248 217.783 73.1117L217.902 72.9684C219.692 70.811 221.31 68.8621 222.802 67.3772C224.312 65.8751 226.097 64.4233 228.321 63.7824C230.735 63.0871 233.033 63.5121 235.184 64.5084C237.215 65.4489 239.331 66.996 241.629 68.9037L251.155 76.81L251.338 76.9622C252.725 78.1123 254.025 79.191 254.964 80.1787C255.941 81.2067 257.154 82.7594 257.285 84.9199C257.413 87.0085 256.462 88.7124 255.679 89.884C255.071 90.7947 254.254 91.819 253.336 92.934L241.708 106.946L241.108 107.668C241.088 107.695 241.066 107.721 241.043 107.746L240.92 107.895C240.816 108.049 240.72 108.207 240.631 108.367C239.305 110.769 239.714 113.815 241.693 115.805Z" fill="#241A56"/>
<path d="M64.7431 247.635H49.3565C49.0755 245.628 48.5017 243.846 47.6352 242.288C46.7687 240.706 45.6563 239.361 44.2979 238.251C42.9396 237.141 41.3705 236.292 39.5906 235.701C37.8341 235.111 35.9255 234.816 33.8645 234.816C30.1409 234.816 26.8973 235.749 24.1338 237.614C21.3703 239.455 19.2274 242.146 17.7051 245.687C16.1829 249.205 15.4217 253.478 15.4217 258.506C15.4217 263.676 16.1829 268.02 17.7051 271.538C19.2508 275.055 21.4054 277.711 24.1689 279.505C26.9324 281.299 30.1291 282.196 33.7592 282.196C35.7967 282.196 37.6819 281.925 39.415 281.382C41.1714 280.839 42.7288 280.048 44.0871 279.009C45.4455 277.947 46.5696 276.66 47.4596 275.149C48.3729 273.639 49.0052 271.915 49.3565 269.979L64.7431 270.05C64.345 273.379 63.3497 276.59 61.7571 279.682C60.188 282.751 58.0686 285.501 55.3988 287.933C52.7523 290.341 49.5907 292.253 45.9139 293.67C42.2604 295.062 38.1269 295.759 33.5133 295.759C27.0963 295.759 21.3586 294.295 16.2999 291.368C11.2648 288.441 7.28345 284.203 4.35602 278.655C1.45201 273.107 0 266.391 0 258.506C0 250.598 1.47543 243.87 4.42628 238.322C7.37713 232.774 11.3819 228.548 16.4405 225.645C21.4991 222.717 27.19 221.254 33.5133 221.254C37.6819 221.254 41.5461 221.844 45.1059 223.024C48.6891 224.205 51.8624 225.928 54.6259 228.194C57.3894 230.437 59.6377 233.187 61.3707 236.445C63.1272 239.703 64.2513 243.433 64.7431 247.635Z" fill="#5337AC"/>
<path d="M99.7494 295.83C94.2926 295.83 89.5736 294.661 85.5923 292.324C81.6344 289.963 78.5782 286.682 76.4236 282.48C74.269 278.254 73.1917 273.355 73.1917 267.784C73.1917 262.165 74.269 257.255 76.4236 253.053C78.5782 248.827 81.6344 245.546 85.5923 243.209C89.5736 240.848 94.2926 239.667 99.7494 239.667C105.206 239.667 109.913 240.848 113.871 243.209C117.853 245.546 120.921 248.827 123.075 253.053C125.23 257.255 126.307 262.165 126.307 267.784C126.307 273.355 125.23 278.254 123.075 282.48C120.921 286.682 117.853 289.963 113.871 292.324C109.913 294.661 105.206 295.83 99.7494 295.83ZM99.8196 284.144C102.302 284.144 104.375 283.436 106.037 282.019C107.7 280.579 108.953 278.62 109.796 276.141C110.663 273.662 111.096 270.841 111.096 267.678C111.096 264.514 110.663 261.693 109.796 259.214C108.953 256.736 107.7 254.776 106.037 253.336C104.375 251.896 102.302 251.176 99.8196 251.176C97.3137 251.176 95.206 251.896 93.4964 253.336C91.8102 254.776 90.5338 256.736 89.6673 259.214C88.8242 261.693 88.4026 264.514 88.4026 267.678C88.4026 270.841 88.8242 273.662 89.6673 276.141C90.5338 278.62 91.8102 280.579 93.4964 282.019C95.206 283.436 97.3137 284.144 99.8196 284.144Z" fill="#5337AC"/>
<path d="M151.003 222.245V294.767H136.038V222.245H151.003Z" fill="#5337AC"/>
<path d="M177.956 222.245V294.767H162.991V222.245H177.956Z" fill="#5337AC"/>
<path d="M205.33 295.794C201.887 295.794 198.82 295.192 196.126 293.988C193.433 292.761 191.302 290.955 189.733 288.57C188.187 286.162 187.414 283.164 187.414 279.576C187.414 276.554 187.965 274.016 189.065 271.962C190.166 269.909 191.665 268.256 193.562 267.005C195.459 265.754 197.613 264.809 200.026 264.172C202.461 263.535 205.014 263.086 207.684 262.826C210.822 262.496 213.351 262.189 215.272 261.906C217.192 261.599 218.586 261.15 219.452 260.56C220.319 259.97 220.752 259.096 220.752 257.94V257.727C220.752 255.484 220.049 253.749 218.644 252.522C217.262 251.294 215.295 250.68 212.742 250.68C210.049 250.68 207.906 251.282 206.314 252.486C204.721 253.667 203.667 255.154 203.152 256.948L189.311 255.815C190.014 252.51 191.396 249.653 193.457 247.245C195.517 244.814 198.176 242.949 201.431 241.65C204.71 240.328 208.504 239.667 212.813 239.667C215.81 239.667 218.679 240.022 221.419 240.73C224.183 241.438 226.63 242.536 228.761 244.023C230.916 245.51 232.614 247.423 233.855 249.76C235.096 252.073 235.717 254.847 235.717 258.081V294.767H221.525V287.225H221.103C220.237 288.924 219.077 290.424 217.625 291.722C216.173 292.997 214.429 294 212.391 294.732C210.354 295.44 208 295.794 205.33 295.794ZM209.616 285.383C211.817 285.383 213.761 284.947 215.447 284.073C217.134 283.176 218.457 281.972 219.417 280.461C220.377 278.95 220.857 277.239 220.857 275.327V269.555C220.389 269.861 219.745 270.145 218.925 270.404C218.129 270.64 217.227 270.865 216.22 271.077C215.213 271.266 214.206 271.443 213.199 271.608C212.192 271.75 211.279 271.88 210.459 271.998C208.703 272.258 207.169 272.671 205.857 273.237C204.546 273.804 203.527 274.571 202.801 275.539C202.075 276.483 201.712 277.664 201.712 279.08C201.712 281.134 202.45 282.704 203.925 283.79C205.424 284.852 207.321 285.383 209.616 285.383Z" fill="#5337AC"/>
<path d="M247.608 294.767V222.245H262.573V249.512H263.03C263.686 248.048 264.634 246.561 265.875 245.05C267.14 243.515 268.779 242.241 270.793 241.226C272.831 240.187 275.36 239.667 278.381 239.667C282.316 239.667 285.946 240.706 289.271 242.784C292.597 244.837 295.255 247.942 297.246 252.097C299.236 256.228 300.232 261.41 300.232 267.642C300.232 273.709 299.26 278.832 297.316 283.011C295.396 287.166 292.773 290.317 289.447 292.466C286.145 294.59 282.445 295.653 278.346 295.653C275.442 295.653 272.971 295.169 270.934 294.201C268.92 293.233 267.269 292.017 265.981 290.553C264.693 289.066 263.709 287.567 263.03 286.056H262.362V294.767H247.608ZM262.257 267.571C262.257 270.806 262.702 273.627 263.592 276.035C264.482 278.443 265.77 280.32 267.456 281.665C269.142 282.987 271.192 283.648 273.604 283.648C276.039 283.648 278.1 282.975 279.787 281.63C281.473 280.261 282.749 278.372 283.616 275.964C284.506 273.532 284.951 270.735 284.951 267.571C284.951 264.432 284.517 261.67 283.651 259.285C282.784 256.901 281.508 255.036 279.822 253.69C278.135 252.345 276.063 251.672 273.604 251.672C271.168 251.672 269.107 252.321 267.421 253.619C265.758 254.918 264.482 256.759 263.592 259.144C262.702 261.528 262.257 264.337 262.257 267.571Z" fill="#5337AC"/>
<path d="M334.597 295.83C329.14 295.83 324.421 294.661 320.44 292.324C316.482 289.963 313.426 286.682 311.271 282.48C309.116 278.254 308.039 273.355 308.039 267.784C308.039 262.165 309.116 257.255 311.271 253.053C313.426 248.827 316.482 245.546 320.44 243.209C324.421 240.848 329.14 239.667 334.597 239.667C340.054 239.667 344.761 240.848 348.719 243.209C352.7 245.546 355.768 248.827 357.923 253.053C360.077 257.255 361.155 262.165 361.155 267.784C361.155 273.355 360.077 278.254 357.923 282.48C355.768 286.682 352.7 289.963 348.719 292.324C344.761 294.661 340.054 295.83 334.597 295.83ZM334.667 284.144C337.15 284.144 339.222 283.436 340.885 282.019C342.548 280.579 343.801 278.62 344.644 276.141C345.51 273.662 345.944 270.841 345.944 267.678C345.944 264.514 345.51 261.693 344.644 259.214C343.801 256.736 342.548 254.776 340.885 253.336C339.222 251.896 337.15 251.176 334.667 251.176C332.161 251.176 330.053 251.896 328.344 253.336C326.658 254.776 325.381 256.736 324.515 259.214C323.672 261.693 323.25 264.514 323.25 267.678C323.25 270.841 323.672 273.662 324.515 276.141C325.381 278.62 326.658 280.579 328.344 282.019C330.053 283.436 332.161 284.144 334.667 284.144Z" fill="#5337AC"/>
<path d="M370.885 294.767V240.376H385.394V249.866H385.956C386.939 246.49 388.59 243.94 390.909 242.217C393.227 240.47 395.897 239.597 398.918 239.597C399.668 239.597 400.476 239.644 401.342 239.738C402.209 239.833 402.97 239.963 403.626 240.128V253.513C402.923 253.301 401.951 253.112 400.71 252.947C399.469 252.781 398.333 252.699 397.302 252.699C395.101 252.699 393.134 253.183 391.401 254.151C389.691 255.095 388.333 256.417 387.326 258.117C386.342 259.816 385.85 261.776 385.85 263.995V294.767H370.885Z" fill="#5337AC"/>
<path d="M425.204 295.794C421.761 295.794 418.693 295.192 416 293.988C413.307 292.761 411.176 290.955 409.606 288.57C408.061 286.162 407.288 283.164 407.288 279.576C407.288 276.554 407.838 274.016 408.939 271.962C410.04 269.909 411.539 268.256 413.436 267.005C415.333 265.754 417.487 264.809 419.899 264.172C422.335 263.535 424.888 263.086 427.557 262.826C430.696 262.496 433.225 262.189 435.145 261.906C437.066 261.599 438.459 261.15 439.326 260.56C440.192 259.97 440.626 259.096 440.626 257.94V257.727C440.626 255.484 439.923 253.749 438.518 252.522C437.136 251.294 435.169 250.68 432.616 250.68C429.923 250.68 427.78 251.282 426.187 252.486C424.595 253.667 423.541 255.154 423.026 256.948L409.185 255.815C409.888 252.51 411.269 249.653 413.33 247.245C415.391 244.814 418.049 242.949 421.305 241.65C424.583 240.328 428.377 239.667 432.686 239.667C435.684 239.667 438.553 240.022 441.293 240.73C444.057 241.438 446.504 242.536 448.635 244.023C450.79 245.51 452.487 247.423 453.729 249.76C454.97 252.073 455.591 254.847 455.591 258.081V294.767H441.398V287.225H440.977C440.11 288.924 438.951 290.424 437.499 291.722C436.047 292.997 434.302 294 432.265 294.732C430.227 295.44 427.874 295.794 425.204 295.794ZM429.49 285.383C431.691 285.383 433.635 284.947 435.321 284.073C437.007 283.176 438.33 281.972 439.291 280.461C440.251 278.95 440.731 277.239 440.731 275.327V269.555C440.263 269.861 439.618 270.145 438.799 270.404C438.003 270.64 437.101 270.865 436.094 271.077C435.087 271.266 434.08 271.443 433.073 271.608C432.066 271.75 431.152 271.88 430.333 271.998C428.576 272.258 427.042 272.671 425.731 273.237C424.419 273.804 423.401 274.571 422.675 275.539C421.949 276.483 421.586 277.664 421.586 279.08C421.586 281.134 422.323 282.704 423.799 283.79C425.298 284.852 427.194 285.383 429.49 285.383Z" fill="#5337AC"/>
<path d="M387.662 322.879C392.031 322.879 395.104 326.02 395.104 330.73V343.702H391.007V331.823C391.007 328.341 389.301 326.361 386.502 326.361C383.293 326.361 380.699 328.682 380.699 331.959V343.702H376.602V323.221H380.152L380.426 326.429C381.996 324.245 384.59 322.879 387.662 322.879Z" fill="#5337AC"/>
<path d="M361.309 344.043C355.029 344.043 350.932 339.879 350.932 333.461C350.932 327.18 355.165 322.879 361.309 322.879C367.59 322.879 371.687 327.044 371.687 333.461C371.687 339.742 367.454 344.043 361.309 344.043ZM361.309 340.561C365.064 340.561 367.522 337.762 367.522 333.461C367.522 329.16 365.064 326.361 361.309 326.361C357.555 326.361 355.097 329.16 355.097 333.461C355.097 337.762 357.555 340.561 361.309 340.561Z" fill="#5337AC"/>
<path d="M341.375 320.353V316.257H345.881V320.353H341.375ZM341.58 343.702V323.221H345.676V343.702H341.58Z" fill="#5337AC"/>
<path d="M336.391 326.703H330.11V337.489C330.11 339.606 331.066 340.22 333.046 340.22C334.138 340.22 335.026 340.152 336.391 339.811V343.565C335.026 343.907 333.592 344.043 332.226 344.043C328.199 344.043 326.014 342.063 326.014 338.309V326.703H321.986V323.221H326.014L326.56 317.759H330.11V323.221H336.391V326.703Z" fill="#5337AC"/>
<path d="M310.789 344.043C304.713 344.043 300.549 339.742 300.549 333.461C300.549 327.18 304.713 322.879 310.789 322.879C315.227 322.879 318.777 325.132 319.938 329.024L316.046 330.253C315.159 327.863 313.315 326.361 310.789 326.361C307.035 326.361 304.713 329.16 304.713 333.461C304.713 337.762 307.035 340.561 310.789 340.561C313.247 340.561 315.159 339.059 316.046 336.67L319.938 337.899C318.777 341.79 315.159 344.043 310.789 344.043Z" fill="#5337AC"/>
<path d="M297.067 340.152H297.818V343.702C297.614 343.77 297.067 343.838 296.385 343.838C293.859 343.838 292.698 342.951 292.425 340.561C290.991 342.678 288.261 344.043 285.257 344.043C281.229 344.043 278.566 341.585 278.566 338.035C278.566 332.983 283.413 331.891 287.373 331.277C290.445 330.867 291.947 330.594 291.947 329.024C291.947 327.385 290.24 326.293 287.646 326.293C285.325 326.293 283.14 327.317 281.502 329.024L278.976 326.361C281.365 324.108 284.301 322.879 287.851 322.879C292.766 322.879 295.77 325.405 295.77 329.638V338.855C295.77 339.742 296.18 340.152 297.067 340.152ZM285.939 340.698C289.08 340.698 291.811 338.513 291.811 335.919V333.256C291.06 333.734 289.831 333.939 287.851 334.281C285.257 334.69 282.594 335.1 282.594 337.762C282.594 339.674 283.823 340.698 285.939 340.698Z" fill="#5337AC"/>
<path d="M275.699 322.879C276.245 322.879 276.723 322.948 277.269 323.084V326.976C276.382 326.907 275.426 326.839 274.538 326.839C271.261 326.839 268.804 328.955 268.804 332.232V343.702H264.707V323.221H268.257L268.531 326.498C270.032 324.313 272.627 322.879 275.699 322.879Z" fill="#5337AC"/>
<path d="M244.021 334.758C244.499 338.308 246.752 340.561 250.37 340.561C253.374 340.561 255.286 339.401 256.447 337.899L259.246 340.357C257.539 342.405 254.671 344.043 250.37 344.043C243.612 344.043 239.925 339.537 239.925 333.461C239.925 327.18 244.021 322.879 250.029 322.879C256.037 322.879 259.928 327.044 259.928 333.461C259.928 333.939 259.928 334.281 259.792 334.758H244.021ZM250.029 326.293C246.82 326.293 244.704 328.341 244.09 331.618H255.764C255.218 328.273 253.101 326.293 250.029 326.293Z" fill="#5337AC"/>
<path d="M237.604 326.703H231.323V337.489C231.323 339.606 232.279 340.22 234.259 340.22C235.351 340.22 236.238 340.152 237.604 339.811V343.565C236.238 343.907 234.805 344.043 233.439 344.043C229.411 344.043 227.227 342.063 227.227 338.309V326.703H223.199V323.221H227.227L227.773 317.759H231.323V323.221H237.604V326.703Z" fill="#5337AC"/>
<path d="M212.48 322.879C216.85 322.879 219.922 326.02 219.922 330.73V343.702H215.826V331.823C215.826 328.341 214.119 326.361 211.32 326.361C208.111 326.361 205.517 328.682 205.517 331.959V343.702H201.421V323.221H204.971L205.244 326.429C206.814 324.245 209.408 322.879 212.48 322.879Z" fill="#5337AC"/>
<path d="M190.02 343.702V317.759H194.321V343.702H190.02Z" fill="#5337AC"/>
<path d="M167.9 343.702V316.394H171.996V343.702H167.9Z" fill="#5337AC"/>
<path d="M162.575 340.152H163.326V343.702C163.121 343.77 162.575 343.838 161.892 343.838C159.366 343.838 158.206 342.951 157.933 340.561C156.499 342.678 153.768 344.043 150.764 344.043C146.736 344.043 144.074 341.585 144.074 338.035C144.074 332.983 148.921 331.891 152.881 331.277C155.953 330.867 157.455 330.594 157.455 329.024C157.455 327.385 155.748 326.293 153.154 326.293C150.833 326.293 148.648 327.317 147.009 329.024L144.483 326.361C146.873 324.108 149.808 322.879 153.359 322.879C158.274 322.879 161.278 325.405 161.278 329.638V338.855C161.278 339.742 161.688 340.152 162.575 340.152ZM151.447 340.698C154.587 340.698 157.318 338.513 157.318 335.919V333.256C156.567 333.734 155.338 333.939 153.359 334.281C150.764 334.69 148.102 335.1 148.102 337.762C148.102 339.674 149.331 340.698 151.447 340.698Z" fill="#5337AC"/>
<path d="M125.641 334.758C126.119 338.308 128.372 340.561 131.99 340.561C134.994 340.561 136.905 339.401 138.066 337.899L140.865 340.357C139.158 342.405 136.291 344.043 131.99 344.043C125.231 344.043 121.545 339.537 121.545 333.461C121.545 327.18 125.641 322.879 131.649 322.879C137.656 322.879 141.548 327.044 141.548 333.461C141.548 333.939 141.548 334.281 141.411 334.758H125.641ZM131.649 326.293C128.44 326.293 126.324 328.341 125.709 331.618H137.383C136.837 328.273 134.721 326.293 131.649 326.293Z" fill="#5337AC"/>
<path d="M112.533 316.394H116.629V343.702H113.079L112.806 340.493C111.167 342.746 108.71 344.043 105.774 344.043C100.381 344.043 96.8306 339.879 96.8306 333.461C96.8306 327.18 100.517 322.879 105.774 322.879C108.573 322.879 110.963 323.972 112.533 325.952V316.394ZM106.866 340.561C110.485 340.561 112.806 337.762 112.806 333.461C112.806 329.16 110.485 326.361 106.866 326.361C103.248 326.361 100.995 329.16 100.995 333.461C100.995 337.762 103.248 340.561 106.866 340.561Z" fill="#5337AC"/>
<path d="M86.9315 343.702V317.759H91.2325V343.702H86.9315Z" fill="#5337AC"/>
<path d="M77.988 343.702L75.6668 337.694H63.2416L60.9204 343.702H56.4146L66.86 317.759H72.1168L82.5621 343.702H77.988ZM64.7436 333.871H74.1649L69.4542 321.719L64.7436 333.871Z" fill="#5337AC"/>
</svg>
