<svg width="109" height="108" viewBox="0 0 109 108" fill="none" xmlns="http://www.w3.org/2000/svg">
<path fill-rule="evenodd" clip-rule="evenodd" d="M59.5204 21.0454C59.4183 21.1287 59.3115 21.2064 59.2004 21.2781C59.3047 21.1975 59.4114 21.1199 59.5204 21.0454Z" fill="#49D3D3"/>
<path fill-rule="evenodd" clip-rule="evenodd" d="M59.2374 31.806C59.3321 31.8678 59.4237 31.934 59.5118 32.0043C59.4186 31.9405 59.3271 31.8743 59.2374 31.806Z" fill="#49D3D3"/>
<path d="M69.8882 26.5278C69.8882 22.8645 66.9185 19.8948 63.2552 19.8948C61.8701 19.8948 60.5842 20.3194 59.5204 21.0454C59.4183 21.1287 59.3115 21.2064 59.2004 21.2781C58.6485 21.6341 57.9911 21.8407 57.2855 21.8407C55.3317 21.8407 53.8305 20.2593 53.8305 18.3056L53.8305 1.19424C53.8305 0.534679 53.2958 -7.25274e-07 52.6363 -7.54105e-07L17.4098 -2.2939e-06C8.33838 -2.2939e-06 0.789123 7.3527 0.789123 16.4241L0.815733 51.8415C0.815733 52.501 1.35042 53.0357 2.00998 53.0357L2.05172 53.035L18.8672 53.0346C19.8956 53.0346 20.7292 52.2009 20.7292 51.1725C20.7292 51.0998 20.7251 51.028 20.717 50.9575C20.6478 50.3562 20.2375 50.0653 19.6681 48.9862C19.0398 47.7956 18.8063 47.0075 18.8063 45.5677C18.8063 40.8424 22.6369 37.0118 27.3622 37.0118C32.0876 37.0118 35.9182 40.8424 35.9182 45.5677C35.9182 47.03 35.7936 47.9627 35.1215 49.1527C34.6481 49.9909 34.1688 50.3402 34.0814 50.8651C34.0648 50.9653 34.0561 51.0681 34.0561 51.1729C34.0561 52.2013 34.8898 53.035 35.9182 53.035L52.6279 53.0362C53.2875 53.0362 53.8221 52.5015 53.8221 51.8419L53.8221 34.7663C53.8221 32.8125 55.3529 31.2331 57.3067 31.2331C58.019 31.2331 58.6822 31.4437 59.2374 31.806C59.3321 31.8678 59.4237 31.934 59.5118 32.0043C60.5772 32.734 61.8664 33.1608 63.2552 33.1608C66.9185 33.1608 69.8882 30.1911 69.8882 26.5278Z" fill="#49D3D3"/>
<path fill-rule="evenodd" clip-rule="evenodd" d="M49.4801 86.542C49.5822 86.4587 49.689 86.381 49.8001 86.3094C49.6958 86.39 49.5891 86.4676 49.4801 86.542Z" fill="#241A56"/>
<path fill-rule="evenodd" clip-rule="evenodd" d="M49.7631 75.7815C49.6684 75.7197 49.5768 75.6535 49.4887 75.5831C49.5819 75.647 49.6734 75.7131 49.7631 75.7815Z" fill="#241A56"/>
<path d="M39.1123 81.0596C39.1123 84.7229 42.082 87.6926 45.7453 87.6926C47.1304 87.6926 48.4163 87.2681 49.4801 86.542C49.5822 86.4587 49.689 86.381 49.8001 86.3094C50.352 85.9534 51.0094 85.7468 51.715 85.7468C53.6687 85.7468 55.17 87.3281 55.17 89.2819L55.17 106.393C55.17 107.053 55.7046 107.587 56.3642 107.587L91.5907 107.587C100.662 107.587 108.211 100.235 108.211 91.1633L108.185 55.746C108.185 55.0864 107.65 54.5517 106.991 54.5517L106.949 54.5525L90.1333 54.5529C89.1049 54.5529 88.2712 55.3866 88.2712 56.415C88.2712 56.4877 88.2754 56.5594 88.2835 56.63C88.3527 57.2313 88.763 57.5222 89.3324 58.6012C89.9606 59.7919 90.1942 60.5799 90.1942 62.0198C90.1942 66.7451 86.3636 70.5757 81.6383 70.5757C76.9129 70.5757 73.0823 66.7451 73.0823 62.0198C73.0823 60.5574 73.2069 59.6248 73.879 58.4348C74.3524 57.5966 74.8317 57.2473 74.9191 56.7223C74.9357 56.6222 74.9444 56.5194 74.9444 56.4145C74.9444 55.3861 74.1107 54.5524 73.0823 54.5524L56.3726 54.5513C55.713 54.5513 55.1783 55.086 55.1783 55.7455L55.1783 72.8212C55.1783 74.775 53.6476 76.3544 51.6938 76.3544C50.9814 76.3544 50.3182 76.1438 49.7631 75.7815C49.6684 75.7197 49.5768 75.6535 49.4887 75.5831C48.4233 74.8535 47.1341 74.4267 45.7453 74.4267C42.082 74.4267 39.1123 77.3963 39.1123 81.0596Z" fill="#241A56"/>
<path fill-rule="evenodd" clip-rule="evenodd" d="M21.834 48.8559C21.9173 48.9579 21.995 49.0648 22.0667 49.1759C21.986 49.0716 21.9084 48.9649 21.834 48.8559Z" fill="#8771F8"/>
<path fill-rule="evenodd" clip-rule="evenodd" d="M32.5945 49.1389C32.6563 49.0442 32.7226 48.9526 32.7929 48.8645C32.7291 48.9577 32.6629 49.0492 32.5945 49.1389Z" fill="#8771F8"/>
<path d="M27.3164 38.4881C23.6531 38.4881 20.6834 41.4578 20.6834 45.1211C20.6834 46.5062 21.1079 47.7921 21.834 48.8559C21.9173 48.9579 21.995 49.0648 22.0667 49.1759C22.4227 49.7278 22.6292 50.3852 22.6292 51.0908C22.6292 53.0445 21.0479 54.5458 19.0941 54.5458H1.98282C1.32325 54.5458 0.788574 55.0804 0.788574 55.74L0.788574 90.9665C0.788575 100.038 8.14128 107.587 17.2127 107.587L52.6301 107.561C53.2896 107.561 53.8243 107.026 53.8243 106.366L53.8236 106.325L53.8232 89.5091C53.8232 88.4807 52.9895 87.647 51.9611 87.647C51.8884 87.647 51.8166 87.6512 51.746 87.6593C51.1448 87.7285 50.8539 88.1388 49.7748 88.7082C48.5842 89.3364 47.7961 89.57 46.3563 89.57C41.631 89.57 37.8003 85.7394 37.8003 81.014C37.8003 76.2887 41.631 72.4581 46.3563 72.4581C47.8186 72.4581 48.7513 72.5827 49.9412 73.2548C50.7795 73.7282 51.1287 74.2075 51.6537 74.2948C51.7538 74.3115 51.8567 74.3202 51.9615 74.3202C52.9899 74.3202 53.8236 73.4865 53.8236 72.4581L53.8247 55.7484C53.8247 55.0888 53.2901 54.5541 52.6305 54.5541H35.5548C33.6011 54.5541 32.0217 53.0234 32.0217 51.0696C32.0217 50.3572 32.2322 49.694 32.5945 49.1389C32.6563 49.0442 32.7226 48.9526 32.7929 48.8645C33.5225 47.799 33.9494 46.5099 33.9494 45.1211C33.9494 41.4578 30.9797 38.4881 27.3164 38.4881Z" fill="#8771F8"/>
<path fill-rule="evenodd" clip-rule="evenodd" d="M87.1635 58.7316C87.0803 58.6295 87.0026 58.5227 86.9309 58.4116C87.0115 58.5158 87.0891 58.6226 87.1635 58.7316Z" fill="#9A82D8"/>
<path fill-rule="evenodd" clip-rule="evenodd" d="M76.403 58.4486C76.3412 58.5433 76.275 58.6349 76.2047 58.723C76.2685 58.6298 76.3346 58.5383 76.403 58.4486Z" fill="#9A82D8"/>
<path d="M81.6812 69.0994C85.3445 69.0994 88.3142 66.1297 88.3142 62.4664C88.3142 61.0813 87.8896 59.7953 87.1635 58.7316C87.0803 58.6295 87.0026 58.5227 86.9309 58.4116C86.5749 57.8597 86.3683 57.2023 86.3683 56.4967C86.3683 54.5429 87.9497 53.0417 89.9034 53.0417H107.015C107.674 53.0417 108.209 52.507 108.209 51.8475V16.621C108.209 7.54956 100.856 0.000305176 91.7848 0.000305176L56.3675 0.0269165C55.7079 0.0269165 55.1733 0.5616 55.1733 1.22116L55.174 1.26291L55.1744 18.0784C55.1744 19.1067 56.0081 19.9404 57.0365 19.9404C57.1092 19.9404 57.181 19.9363 57.2515 19.9281C57.8528 19.859 58.1437 19.4486 59.2228 18.8793C60.4134 18.251 61.2014 18.0175 62.6413 18.0175C67.3666 18.0175 71.1972 21.8481 71.1972 26.5734C71.1972 31.2987 67.3666 35.1294 62.6413 35.1294C61.1789 35.1294 60.2463 35.0047 59.0563 34.3327C58.2181 33.8593 57.8688 33.3799 57.3438 33.2926C57.2437 33.276 57.1409 33.2673 57.036 33.2673C56.0076 33.2673 55.174 34.101 55.174 35.1294L55.1728 51.8391C55.1728 52.4986 55.7075 53.0333 56.3671 53.0333H73.4427C75.3965 53.0333 76.9759 54.5641 76.9759 56.5178C76.9759 57.2302 76.7653 57.8934 76.403 58.4486C76.3412 58.5433 76.275 58.6349 76.2047 58.723C75.475 59.7884 75.0482 61.0775 75.0482 62.4664C75.0482 66.1297 78.0179 69.0994 81.6812 69.0994Z" fill="#9A82D8"/>
<path fill-rule="evenodd" clip-rule="evenodd" d="M87.1626 58.7316C87.0793 58.6295 87.0016 58.5227 86.9299 58.4116C87.0105 58.5158 87.0881 58.6226 87.1626 58.7316Z" fill="#A68DFF"/>
<path fill-rule="evenodd" clip-rule="evenodd" d="M76.402 58.4486C76.3402 58.5433 76.274 58.6349 76.2037 58.723C76.2675 58.6298 76.3337 58.5383 76.402 58.4486Z" fill="#A68DFF"/>
<path d="M81.6802 69.0994C85.3435 69.0994 88.3132 66.1297 88.3132 62.4664C88.3132 61.0813 87.8886 59.7953 87.1626 58.7316C87.0793 58.6295 87.0016 58.5227 86.9299 58.4116C86.5739 57.8597 86.3673 57.2023 86.3673 56.4967C86.3673 54.5429 87.9487 53.0417 89.9025 53.0417H107.014C107.673 53.0417 108.208 52.507 108.208 51.8475V16.621C108.208 7.54956 100.855 0.000305176 91.7839 0.000305176L56.3665 0.0269165C55.707 0.0269165 55.1723 0.5616 55.1723 1.22116L55.173 1.26291L55.1734 18.0784C55.1734 19.1067 56.0071 19.9404 57.0355 19.9404C57.1082 19.9404 57.18 19.9363 57.2505 19.9281C57.8518 19.859 58.1427 19.4486 59.2218 18.8793C60.4124 18.251 61.2005 18.0175 62.6403 18.0175C67.3656 18.0175 71.1963 21.8481 71.1963 26.5734C71.1963 31.2987 67.3656 35.1294 62.6403 35.1294C61.178 35.1294 60.2453 35.0047 59.0553 34.3327C58.2171 33.8593 57.8678 33.3799 57.3429 33.2926C57.2427 33.276 57.1399 33.2673 57.0351 33.2673C56.0067 33.2673 55.173 34.101 55.173 35.1294L55.1718 51.8391C55.1718 52.4986 55.7065 53.0333 56.3661 53.0333H73.4418C75.3955 53.0333 76.9749 54.5641 76.9749 56.5178C76.9749 57.2302 76.7643 57.8934 76.402 58.4486C76.3402 58.5433 76.274 58.6349 76.2037 58.723C75.474 59.7884 75.0472 61.0775 75.0472 62.4664C75.0472 66.1297 78.0169 69.0994 81.6802 69.0994Z" fill="#A68DFF"/>
<path d="M91.4433 23.4951L90.6433 21.0948H85.3284L84.5283 23.4951H81.6899L86.3571 10.1604H89.6146L94.3008 23.4951H91.4433ZM86.1666 18.6374H89.8241L87.9954 13.1893L86.1666 18.6374Z" fill="white"/>
<path d="M95.5956 10.1604H98.2244V23.4951H95.5956V10.1604Z" fill="white"/>
</svg>
