<svg width="15" height="15" viewBox="0 0 15 15" fill="none" xmlns="http://www.w3.org/2000/svg">
<path d="M1.48333 14.625L6.47083 9.6375C6.86667 9.95417 7.32187 10.2049 7.83646 10.3896C8.35104 10.5743 8.89861 10.6667 9.47917 10.6667C10.9174 10.6667 12.1344 10.1684 13.1303 9.172C14.1262 8.17556 14.6245 6.9585 14.625 5.52083C14.6255 4.08317 14.1273 2.86611 13.1303 1.86967C12.1334 0.873222 10.9163 0.375 9.47917 0.375C8.04203 0.375 6.82471 0.873222 5.82721 1.86967C4.82971 2.86611 4.33175 4.08317 4.33333 5.52083C4.33333 6.10139 4.42569 6.64896 4.61042 7.16354C4.79514 7.67812 5.04583 8.13333 5.3625 8.52917L0.375 13.5167L1.48333 14.625ZM9.47917 9.08333C8.48958 9.08333 7.6483 8.73711 6.95533 8.04467C6.26236 7.35222 5.91614 6.51094 5.91667 5.52083C5.91719 4.53072 6.26342 3.68971 6.95533 2.99779C7.64725 2.30588 8.48853 1.95939 9.47917 1.95833C10.4698 1.95728 11.3108 2.30376 12.0022 2.99779C12.6936 3.69182 13.0401 4.53283 13.0417 5.52083C13.0432 6.50883 12.6968 7.35011 12.0022 8.04467C11.3077 8.73922 10.4666 9.08544 9.47917 9.08333Z" fill="white"/>
</svg>
