<svg width="22" height="22" viewBox="0 0 22 22" fill="none" xmlns="http://www.w3.org/2000/svg">
<g clip-path="url(#clip0_1_207)">
<path d="M0.392529 19.4675L4.55687 15.3014C1.44091 11.1374 2.29053 5.23583 6.45454 2.11987C10.6185 -0.996083 16.5201 -0.146464 19.6361 4.01754C22.7521 8.18155 21.9024 14.0832 17.7384 17.1991C14.3936 19.7021 9.79945 19.7021 6.45454 17.1991L2.28844 21.3652C1.76489 21.8888 0.916069 21.8888 0.392569 21.3652C-0.130974 20.8417 -0.130974 19.9928 0.392569 19.4693L0.392529 19.4675ZM12.0618 16.395C15.7625 16.395 18.7626 13.395 18.7626 9.69421C18.7626 5.99344 15.7625 2.99341 12.0618 2.99341C8.361 2.99341 5.36096 5.99344 5.36096 9.69421C5.3649 13.3933 8.36263 16.3911 12.0618 16.395Z" fill="#6A0DAD"/>
</g>
<defs>
<clipPath id="clip0_1_207">
<rect width="21.5158" height="21.5158" fill="white" transform="matrix(-1 0 0 1 21.5159 0.242065)"/>
</clipPath>
</defs>
</svg>
