<svg width="45" height="45" viewBox="0 0 45 45" fill="none" xmlns="http://www.w3.org/2000/svg">
<circle cx="22.5" cy="22.5" r="22.5" fill="#49D3D3"/>
<path d="M14.4985 31.1542C13.6072 32.0456 12.162 32.0456 11.2706 31.1542C10.3792 30.2628 10.3792 28.8176 11.2706 27.9262L11.9211 27.2757C12.2182 26.9786 12.2182 26.4969 11.9211 26.1997L9.45989 23.7385C8.98988 23.2685 8.98988 22.5065 9.45989 22.0365L17.8152 13.6812C18.2852 13.2112 19.0472 13.2112 19.5172 13.6812L22.2032 16.3672L25.4627 13.1076C25.9381 12.6322 26.7089 12.6322 27.1843 13.1076L36.1096 22.0329C36.585 22.5083 36.585 23.2791 36.1096 23.7545L27.0757 32.7884C26.6003 33.2638 25.8296 33.2638 25.3542 32.7884L24.4094 31.8436C24.3596 31.6088 24.0776 31.4348 23.9429 31.3771L21.3717 33.9483C20.9017 34.4183 20.1396 34.4183 19.6696 33.9483L16.2185 30.5102C15.9214 30.213 15.4397 30.213 15.1425 30.5102L14.4985 31.1542Z" fill="white"/>
<path d="M24.4759 28.1613C24.0616 27.747 23.7327 27.4492 23.468 27.1989C23.2242 26.9684 22.9897 26.7392 22.8593 26.5024C22.7863 26.3697 22.7338 26.2155 22.7336 26.0402C22.7335 25.8661 22.785 25.7117 22.8556 25.578C22.9838 25.3353 23.2166 25.0901 23.4765 24.8302L24.9878 23.3189L25.1165 23.1898C25.2279 23.0774 25.3042 22.9976 25.3578 22.9324C25.2938 22.856 25.1942 22.7552 25.0326 22.5936L23.9733 21.5343C23.7299 21.291 23.5648 21.1552 23.4439 21.085C23.337 21.0229 23.3017 21.0329 23.2923 21.0347C23.2595 21.0409 23.182 21.0701 23.0229 21.2015C22.8657 21.3313 22.6805 21.5158 22.4219 21.7744C22.1779 22.0184 21.954 22.2391 21.7437 22.385C21.5169 22.5423 21.2424 22.6577 20.9133 22.5964C20.625 22.5426 20.3756 22.3641 20.1517 22.1733C19.9191 21.975 19.6405 21.6964 19.2998 21.3564C18.96 21.0172 18.6809 20.7391 18.4861 20.5052C18.2978 20.2792 18.1196 20.0175 18.0893 19.7057C18.0566 19.3683 18.2053 19.095 18.373 18.8748C18.5363 18.6603 18.7785 18.4193 19.0537 18.1442L22.5505 14.6474L23.2352 15.3321L19.7384 18.8289C19.4432 19.1241 19.2577 19.3113 19.1435 19.4613C19.0895 19.5321 19.0671 19.5754 19.058 19.5987C19.0548 19.6067 19.0533 19.6132 19.0533 19.6132C19.0549 19.6235 19.072 19.6957 19.2301 19.8855C19.3896 20.077 19.6304 20.3182 19.9839 20.671C20.3365 21.0229 20.5832 21.2688 20.7799 21.4364C20.9853 21.6115 21.0694 21.6405 21.0909 21.6445C21.0909 21.6445 21.0886 21.6453 21.0935 21.6438C21.1042 21.6407 21.1346 21.629 21.1917 21.5894C21.3164 21.5028 21.4764 21.3505 21.7372 21.0897C21.9835 20.8434 22.2054 20.6207 22.4063 20.4548C22.605 20.2907 22.8363 20.1358 23.1116 20.0834C23.4103 20.0267 23.6824 20.1036 23.9304 20.2477C24.1646 20.3838 24.4023 20.5939 24.6579 20.8495L25.7173 21.9089C25.879 22.0706 26.032 22.2222 26.1386 22.3575C26.2448 22.4923 26.3735 22.693 26.3652 22.9548C26.3572 23.2079 26.2235 23.4026 26.1161 23.535C26.0326 23.6379 25.9227 23.7522 25.7996 23.8763L24.1612 25.5149C23.8823 25.7938 23.7603 25.9386 23.7119 26.0302L23.7086 26.0372C23.7532 26.117 23.8658 26.2422 24.1333 26.4952C24.3822 26.7305 24.7336 27.0496 25.1606 27.4766C25.5704 27.8864 25.9169 28.2319 26.1445 28.5407C26.3807 28.8614 26.5477 29.2197 26.4843 29.6473C26.4265 30.0376 26.1868 30.3913 25.8874 30.7448C25.5801 31.1076 25.1399 31.5473 24.5828 32.1044L23.898 31.4197C24.4677 30.8501 24.8734 30.4438 25.1486 30.1189C25.4318 29.7846 25.5112 29.6088 25.5265 29.5054C25.5363 29.4393 25.5302 29.3394 25.3649 29.1151C25.1909 28.879 24.9073 28.5928 24.4759 28.1613Z" fill="#49D3D3"/>
<path d="M25.1619 25.5235C25.4393 25.8009 25.4393 26.2505 25.1619 26.5279C24.8846 26.8052 24.4349 26.8052 24.1576 26.5279C23.8803 26.2505 23.8803 25.8009 24.1576 25.5235C24.4349 25.2462 24.8846 25.2462 25.1619 25.5235Z" fill="white"/>
<path d="M20.5547 19.0848C20.8519 19.382 20.8519 19.8639 20.5547 20.161C20.2575 20.4582 19.7757 20.4582 19.4785 20.161C19.1813 19.8639 19.1813 19.382 19.4785 19.0848C19.7757 18.7876 20.2575 18.7876 20.5547 19.0848Z" fill="white"/>
<path d="M19.4785 20.161C19.1813 19.8639 19.1813 19.382 19.4785 19.0848L19.4505 18.9894L18.8787 19.5612L19.4785 20.161Z" fill="#49D3D3"/>
<path d="M21.6108 20.1409C21.3136 19.8437 20.8317 19.8437 20.5345 20.1409C20.2374 20.4381 20.2374 20.9199 20.5345 21.2171C20.8317 21.5143 21.3136 21.5143 21.6108 21.2171C21.908 20.9199 21.908 20.4381 21.6108 20.1409Z" fill="white"/>
<path d="M20.5345 21.2171C20.8317 21.5143 21.3136 21.5143 21.6108 21.2171L21.7062 21.2451L21.1344 21.8169L20.5345 21.2171Z" fill="#49D3D3"/>
<path d="M22.7783 22.4966C23.0755 22.7938 23.5573 22.7938 23.8545 22.4966C24.1517 22.1994 24.1517 21.7175 23.8545 21.4203C23.5573 21.1232 23.0755 21.1231 22.7783 21.4203C22.4811 21.7175 22.4811 22.1994 22.7783 22.4966Z" fill="white"/>
<path d="M23.8545 21.4203C23.5573 21.1232 23.0755 21.1231 22.7783 21.4203L22.6829 21.3923L23.2547 20.8205L23.8545 21.4203Z" fill="#49D3D3"/>
<path d="M23.7591 23.4697C23.4619 23.1725 23.4619 22.6907 23.7591 22.3935C24.0563 22.0963 24.5381 22.0963 24.8353 22.3935C25.1325 22.6907 25.1325 23.1725 24.8353 23.4697C24.5381 23.7669 24.0563 23.7669 23.7591 23.4697Z" fill="white"/>
<path d="M24.8353 22.3935C25.1325 22.6907 25.1325 23.1725 24.8353 23.4697L24.8633 23.5651L25.4351 22.9933L24.8353 22.3935Z" fill="#49D3D3"/>
<path d="M25.2586 25.4886C25.5558 25.7858 25.5576 26.2659 25.2626 26.5608C24.9676 26.8558 24.4876 26.854 24.1904 26.5568C23.8932 26.2596 23.8914 25.7796 24.1864 25.4846C24.4813 25.1896 24.9614 25.1914 25.2586 25.4886Z" fill="white"/>
<path d="M24.1904 26.5568C23.8932 26.2596 23.8914 25.7796 24.1864 25.4846L24.1581 25.3895L23.5906 25.957L24.1904 26.5568Z" fill="#49D3D3"/>
<path d="M24.1478 30.0308C23.8506 29.7336 23.8506 29.2518 24.1478 28.9546C24.445 28.6574 24.9268 28.6574 25.224 28.9546C25.5212 29.2518 25.5212 29.7336 25.224 30.0308C24.9268 30.328 24.445 30.328 24.1478 30.0308Z" fill="white"/>
<path d="M25.224 28.9546C25.5212 29.2518 25.5212 29.7336 25.224 30.0308L25.252 30.1262L25.8238 29.5544L25.224 28.9546Z" fill="#49D3D3"/>
</svg>
