<svg width="20" height="20" viewBox="0 0 20 20" fill="none" xmlns="http://www.w3.org/2000/svg">
<path d="M10.0002 1.66699C6.3244 1.66699 3.33356 4.65783 3.33356 8.32949C3.3094 13.7003 9.7469 18.1537 10.0002 18.3337C10.0002 18.3337 16.6911 13.7003 16.6669 8.33366C16.6669 4.65783 13.6761 1.66699 10.0002 1.66699ZM10.0002 11.667C8.15856 11.667 6.6669 10.1753 6.6669 8.33366C6.6669 6.49199 8.15856 5.00033 10.0002 5.00033C11.8419 5.00033 13.3336 6.49199 13.3336 8.33366C13.3336 10.1753 11.8419 11.667 10.0002 11.667Z" fill="#3B2F77"/>
<path d="M10.0002 11.667C8.15856 11.667 6.6669 10.1753 6.6669 8.33366C6.6669 6.49199 8.15856 5.00033 10.0002 5.00033C11.8419 5.00033 13.3336 6.49199 13.3336 8.33366C13.3336 10.1753 11.8419 11.667 10.0002 11.667Z" fill="#49D3D3"/>
</svg>
