<svg width="108" height="23" viewBox="0 0 108 23" fill="none" xmlns="http://www.w3.org/2000/svg">
<rect y="0.5" width="108" height="22" rx="11" fill="#241A56"/>
<path d="M11.8203 11.7109C12.5039 12.0234 12.8945 12.6484 12.8945 13.4688C12.8945 14.7188 11.9961 15.5 10.5117 15.5H7.11328V8.07812H10.4531C11.8594 8.07812 12.7578 8.83984 12.7578 10.0508C12.7578 10.793 12.4258 11.3789 11.8203 11.7109ZM10.2578 9.13281H8.30469V11.1836H10.2578C11.1172 11.1836 11.5469 10.8516 11.5469 10.1484C11.5469 9.46484 11.1172 9.13281 10.2578 9.13281ZM10.2773 14.4453C11.1953 14.4453 11.6641 14.0742 11.6641 13.332C11.6641 12.5898 11.1953 12.2188 10.2773 12.2188H8.30469V14.4453H10.2773ZM15.1016 12.9414C15.2383 13.957 15.8828 14.6016 16.918 14.6016C17.7773 14.6016 18.3242 14.2695 18.6562 13.8398L19.457 14.543C18.9688 15.1289 18.1484 15.5977 16.918 15.5977C14.9844 15.5977 13.9297 14.3086 13.9297 12.5703C13.9297 10.7734 15.1016 9.54297 16.8203 9.54297C18.5391 9.54297 19.6523 10.7344 19.6523 12.5703C19.6523 12.707 19.6523 12.8047 19.6133 12.9414H15.1016ZM16.8203 10.5195C15.9023 10.5195 15.2969 11.1055 15.1211 12.043H18.4609C18.3047 11.0859 17.6992 10.5195 16.8203 10.5195ZM24.125 9.54297C25.668 9.54297 26.6836 10.7344 26.6836 12.5703C26.6836 14.3672 25.6289 15.5977 24.125 15.5977C23.3242 15.5977 22.6406 15.2852 22.1914 14.7188V17.4531H21.0195V9.64062H22.0352L22.1133 10.5586C22.582 9.91406 23.2852 9.54297 24.125 9.54297ZM23.8125 14.6016C24.8477 14.6016 25.4922 13.8008 25.4922 12.5703C25.4922 11.3398 24.8477 10.5391 23.8125 10.5391C22.7773 10.5391 22.1133 11.3398 22.1133 12.5703C22.1133 13.8008 22.7773 14.6016 23.8125 14.6016ZM32.0938 9.64062H33.3047V15.5H32.1523V11.2422L29.3008 15.5H28.0898V9.64062H29.2422V13.8594L32.0938 9.64062ZM41.5078 9.58203C42.9141 9.58203 43.832 10.7539 43.832 12.5703C43.832 14.3672 42.8555 15.5586 41.5078 15.5586C40.8047 15.5586 40.2383 15.2852 39.8477 14.7773V17.4531H38.6758V14.7578C38.2852 15.2852 37.7188 15.5586 37.0352 15.5586C35.6289 15.5586 34.7109 14.3867 34.7109 12.5703C34.7109 10.7734 35.668 9.58203 37.0352 9.58203C37.7188 9.58203 38.2852 9.83594 38.6758 10.3438V7.6875H39.8477V10.3828C40.2383 9.85547 40.8242 9.58203 41.5078 9.58203ZM37.3281 14.6016C38.1875 14.6016 38.7344 13.8008 38.7344 12.5703C38.7344 11.3398 38.1875 10.5391 37.3281 10.5391C36.4492 10.5391 35.9023 11.3398 35.9023 12.5703C35.9023 13.8008 36.4492 14.6016 37.3281 14.6016ZM41.2148 14.6016C42.0742 14.6016 42.6406 13.8008 42.6406 12.5703C42.6406 11.3398 42.0742 10.5391 41.2148 10.5391C40.3359 10.5391 39.7891 11.3398 39.7891 12.5703C39.7891 13.8008 40.3359 14.6016 41.2148 14.6016ZM45.2578 8.82031V7.64844H46.5469V8.82031H45.2578ZM45.3164 15.5V9.64062H46.4883V15.5H45.3164ZM52.4062 15.5L50.4336 12.7852L49.5938 13.5859V15.5H48.4219V9.64062H49.5938V12.2578L52.2305 9.64062H53.7148L51.2734 11.9844L53.832 15.5H52.4062ZM57.1523 15.5977C55.3555 15.5977 54.1836 14.4062 54.1836 12.5703C54.1836 10.7734 55.3945 9.54297 57.1523 9.54297C58.9492 9.54297 60.1211 10.7344 60.1211 12.5703C60.1211 14.3672 58.9102 15.5977 57.1523 15.5977ZM57.1523 14.6016C58.2266 14.6016 58.9297 13.8008 58.9297 12.5703C58.9297 11.3398 58.2266 10.5391 57.1523 10.5391C56.0781 10.5391 55.375 11.3398 55.375 12.5703C55.375 13.8008 56.0781 14.6016 57.1523 14.6016ZM65.3945 12.4922C66.0391 12.7266 66.3906 13.1953 66.3906 13.8984C66.3906 14.9531 65.6289 15.5 64.3594 15.5H61.5273V9.64062H64.1445C65.4336 9.64062 66.2344 10.1094 66.2344 11.1641C66.2344 11.8086 65.9219 12.2578 65.3945 12.4922ZM62.6602 10.5781V12.0625H64.1445C64.8086 12.0625 65.082 11.8477 65.082 11.3008C65.082 10.832 64.75 10.5781 64.2031 10.5781H62.6602ZM64.2422 14.5625C64.8672 14.5625 65.2188 14.2695 65.2188 13.7617C65.2188 13.2539 64.8281 12.9414 64.1641 12.9414H62.6602V14.5625H64.2422ZM72.543 14.4844H72.7578V15.5C72.6992 15.5195 72.543 15.5391 72.3477 15.5391C71.625 15.5391 71.293 15.2852 71.2148 14.6016C70.8047 15.207 70.0234 15.5977 69.1641 15.5977C68.0117 15.5977 67.25 14.8945 67.25 13.8789C67.25 12.4336 68.6367 12.1211 69.7695 11.9453C70.6484 11.8281 71.0781 11.75 71.0781 11.3008C71.0781 10.832 70.5898 10.5195 69.8477 10.5195C69.1836 10.5195 68.5586 10.8125 68.0898 11.3008L67.3672 10.5391C68.0508 9.89453 68.8906 9.54297 69.9062 9.54297C71.3125 9.54297 72.1719 10.2656 72.1719 11.4766V14.1133C72.1719 14.3672 72.2891 14.4844 72.543 14.4844ZM69.3594 14.6406C70.2578 14.6406 71.0391 14.0156 71.0391 13.2734V12.5117C70.8242 12.6484 70.4727 12.707 69.9062 12.8047C69.1641 12.9219 68.4023 13.0391 68.4023 13.8008C68.4023 14.3477 68.7539 14.6406 69.3594 14.6406ZM78.0898 9.64062H79.2617V15.5H78.0898V13.0391H75.2383V15.5H74.0664V9.64062H75.2383V11.9844H78.0898V9.64062ZM83.6367 15.5977C81.8398 15.5977 80.668 14.4062 80.668 12.5703C80.668 10.7734 81.8789 9.54297 83.6367 9.54297C85.4336 9.54297 86.6055 10.7344 86.6055 12.5703C86.6055 14.3672 85.3945 15.5977 83.6367 15.5977ZM83.6367 14.6016C84.7109 14.6016 85.4141 13.8008 85.4141 12.5703C85.4141 11.3398 84.7109 10.5391 83.6367 10.5391C82.5625 10.5391 81.8594 11.3398 81.8594 12.5703C81.8594 13.8008 82.5625 14.6016 83.6367 14.6016Z" fill="white"/>
<path d="M97.2999 12.4533L96.1026 11.26C96.0404 11.1978 95.9646 11.1644 95.8752 11.16C95.7855 11.1556 95.7039 11.1902 95.6306 11.264C95.5595 11.3351 95.5239 11.4138 95.5239 11.5C95.5239 11.5862 95.5595 11.6649 95.6306 11.736L96.9226 13.028C97.0306 13.1356 97.1564 13.1893 97.2999 13.1893C97.4435 13.1893 97.5692 13.1356 97.6772 13.028L100.369 10.336C100.434 10.2711 100.468 10.1947 100.471 10.1067C100.474 10.0182 100.44 9.93733 100.369 9.864C100.296 9.79067 100.217 9.75333 100.131 9.752C100.046 9.75067 99.9668 9.78667 99.8939 9.86L97.2999 12.4533ZM95.7799 17.244L94.9026 15.7773L93.2486 15.428C93.1161 15.4036 93.0106 15.3324 92.9319 15.2147C92.8532 15.0973 92.8208 14.9724 92.8346 14.84L92.9926 13.136L91.8706 11.856C91.7764 11.7596 91.7292 11.6409 91.7292 11.5C91.7292 11.3591 91.7764 11.2404 91.8706 11.144L92.9926 9.864L92.8346 8.16067C92.8212 8.02778 92.8537 7.90267 92.9319 7.78533C93.0106 7.668 93.1161 7.59689 93.2486 7.572L94.9019 7.22333L95.7792 5.75667C95.8512 5.63756 95.9479 5.55533 96.0692 5.51C96.1906 5.46422 96.3161 5.47022 96.4459 5.528L97.9999 6.18467L99.5532 5.528C99.6835 5.47022 99.8092 5.46422 99.9306 5.51C100.052 5.55533 100.149 5.63756 100.221 5.75667L101.097 7.22333L102.751 7.572C102.884 7.59689 102.989 7.668 103.068 7.78533C103.147 7.90267 103.179 8.02778 103.165 8.16067L103.008 9.864L104.129 11.144C104.223 11.2404 104.271 11.3591 104.271 11.5C104.271 11.6409 104.223 11.7598 104.129 11.8567L103.008 13.136L103.165 14.8393C103.179 14.9722 103.146 15.0973 103.068 15.2147C102.989 15.3324 102.884 15.4036 102.751 15.428L101.098 15.7773L100.221 17.244C100.149 17.3627 100.052 17.4449 99.9306 17.4907C99.8092 17.5364 99.6837 17.5302 99.5539 17.472L97.9999 16.8153L96.4466 17.472C96.3164 17.5298 96.1906 17.5358 96.0692 17.49C95.9479 17.4447 95.8512 17.3624 95.7792 17.2433" fill="white"/>
</svg>
