<svg width="80" height="80" viewBox="0 0 80 80" fill="none" xmlns="http://www.w3.org/2000/svg">
<path fill-rule="evenodd" clip-rule="evenodd" d="M40.0115 3.62976C28.7225 8.02271 22.0279 9.79939 11.338 11.1674C9.82143 11.3615 8.67188 12.6449 8.67188 14.1739V41.7845C8.67188 55.3318 20.7234 69.452 39.9982 76.3722C59.273 69.452 71.3281 55.3318 71.3281 41.7845V14.1739C71.3281 12.6449 70.1786 11.3615 68.662 11.1674C57.9753 9.79935 51.3004 8.02266 40.0115 3.62976ZM12.9054 15.5177C23.5493 14.2961 29.4599 12.843 40.01 8.76659C50.56 12.843 56.4507 14.2961 67.0946 15.5177V25.2266V28.2372V41.5323C67.0946 42.2422 67.0558 42.954 66.9791 43.666C66.837 44.9853 66.5649 46.3056 66.1688 47.6173C63.2755 57.2004 53.7667 66.3264 39.9985 71.2347C24.1436 65.5825 13.9399 54.3374 12.9797 43.242C12.9303 42.6714 12.9054 42.1013 12.9054 41.5323V25.2266V15.5177Z" fill="#3B2F77"/>
<path fill-rule="evenodd" clip-rule="evenodd" d="M12.9054 25.2266V41.5323C12.9054 42.1013 12.9303 42.6714 12.9797 43.242C12.9742 43.1795 16.409 45.7798 18.127 47.0878L17.9856 48.1265C17.5699 51.0778 18.6997 52.1457 22.4185 53.3532C23.1806 55.8971 24.1218 56.7772 27.2485 56.8218C27.4167 59.4386 28.6057 60.0634 31.7047 60.4138C32.6256 64.443 36.6548 64.443 39.6461 61.6598C41.2342 63.3063 44.0836 62.4305 44.4217 60.6001L41.5993 57.5896C40.8489 56.1947 42.352 55.3318 42.9164 55.8962L47.244 59.6594C48.4781 60.8918 51.0072 58.1541 49.8782 57.0252L42.9164 51.0041C42.1638 50.2515 43.4809 48.9344 44.2335 49.4989L51.5417 55.415L52.1361 55.8962C53.8295 57.2133 56.4637 54.2028 54.9585 52.8857L54.4895 52.5085L46.3033 45.9239C45.3625 44.9831 47.0559 43.666 47.8085 44.2305L55.8914 51.1347L56.84 51.9449C57.969 52.8857 59.8506 51.9449 60.415 50.2515L66.1688 47.6173C66.5649 46.3056 66.837 44.9853 66.9791 43.666L59.4742 47.241L44.9862 34.2582C43.2927 32.9411 41.5638 33.3008 39.9059 35.0108C36.0724 38.8236 34.4727 39.3002 32.6764 37.8925C32.507 37.7598 32.4875 37.5132 32.6238 37.3466L40.8467 27.2964C43.741 24.9511 46.1151 26.7319 54.9585 30.6832L67.0946 28.2372V25.2266L55.5229 27.4845C45.9269 22.7806 42.4258 21.5198 38.2125 25.603C33.7134 23.8829 31.6198 24.6804 28.2402 27.4845L12.9054 25.2266ZM30.1959 35.4821L36.3173 27.8732C33.9743 27.5372 32.3891 27.5917 31.3204 28.9042C29.9482 30.5896 26.8993 34.4391 25.6819 36.3542C24.1601 38.748 26.913 40.988 29.7001 42.7662C31.9298 44.1889 34.0375 42.6978 34.8126 41.7745C34.123 41.7061 32.3265 41.2923 30.6576 40.1843C28.9888 39.0763 29.4445 36.3542 30.1959 35.4821Z" fill="#3B2F77"/>
<path d="M67.0946 41.5323V28.2372L54.9585 30.6832C46.1151 26.7319 43.741 24.9511 40.8467 27.2964L32.6238 37.3466C32.4875 37.5132 32.507 37.7598 32.6764 37.8925C34.4727 39.3002 36.0724 38.8236 39.9059 35.0108C41.5638 33.3008 43.2927 32.9411 44.9862 34.2582L59.4742 47.241L66.9791 43.666C67.0558 42.954 67.0946 42.2422 67.0946 41.5323Z" fill="#49D3D3"/>
<path d="M47.244 59.6594L42.9164 55.8962C42.352 55.3318 40.8489 56.1947 41.5993 57.5896L44.4217 60.6001L47.244 59.6594Z" fill="#49D3D3"/>
<path d="M44.2335 49.4989C43.4809 48.9344 42.1638 50.2515 42.9164 51.0041L49.8782 57.0252L51.5417 55.415L44.2335 49.4989Z" fill="#49D3D3"/>
<path d="M47.8085 44.2305C47.0559 43.666 45.3625 44.9831 46.3033 45.9239L54.4895 52.5085L55.8914 51.1347L47.8085 44.2305Z" fill="#49D3D3"/>
<path d="M20.6262 50.5404C20.1425 50.1471 20.0692 49.436 20.4626 48.9523L23.0191 45.8085C23.4125 45.3248 24.1236 45.2515 24.6073 45.6449L24.9369 45.9129C25.4206 46.3063 25.4939 47.0174 25.1005 47.5011L22.544 50.6449C22.1506 51.1286 21.4396 51.2018 20.9558 50.8085L20.6262 50.5404Z" fill="#49D3D3"/>
<path d="M24.9854 54.2036C24.5017 53.8102 24.4285 53.0992 24.8218 52.6155L27.7674 48.9932C28.1608 48.5095 28.8719 48.4362 29.3556 48.8296L29.6852 49.0977C30.1689 49.491 30.2422 50.2021 29.8488 50.6858L26.9032 54.308C26.5098 54.7918 25.7988 54.865 25.315 54.4716L24.9854 54.2036Z" fill="#49D3D3"/>
<path d="M29.3447 57.8668C28.8609 57.4734 28.7877 56.7624 29.181 56.2786L32.1267 52.6564C32.52 52.1727 33.2311 52.0994 33.7148 52.4928L34.0444 52.7608C34.5282 53.1542 34.6014 53.8653 34.208 54.349L31.2624 57.9712C30.869 58.455 30.158 58.5282 29.6743 58.1348L29.3447 57.8668Z" fill="#49D3D3"/>
<path d="M34.2037 60.9148C33.7199 60.5214 33.6467 59.8104 34.0401 59.3266L35.9855 56.9343C36.3789 56.4506 37.0899 56.3773 37.5736 56.7707L37.9032 57.0388C38.387 57.4321 38.4602 58.1432 38.0668 58.6269L36.1214 61.0192C35.728 61.5029 35.017 61.5762 34.5333 61.1828L34.2037 60.9148Z" fill="#49D3D3"/>
</svg>
