<svg width="80" height="80" viewBox="0 0 80 80" fill="none" xmlns="http://www.w3.org/2000/svg">
<path d="M59.8153 24.0493C59.5653 24.0136 59.3153 24.0136 59.0653 24.0493C53.53 23.8708 49.1375 19.3354 49.1375 13.7643C49.1375 8.08614 53.7443 3.4436 59.4582 3.4436C65.1363 3.4436 69.7789 8.05042 69.7789 13.7643C69.7432 19.3354 65.3506 23.8708 59.8153 24.0493Z" fill="#3B2F77"/>
<path d="M71.4637 48.7986C67.464 51.477 61.8573 52.4769 56.679 51.7984C58.0361 48.87 58.7503 45.6203 58.786 42.1919C58.786 38.6207 58.0004 35.2281 56.5005 32.2641C61.7858 31.5498 67.3926 32.5497 71.428 35.2281C77.0705 38.9422 77.0705 45.0489 71.4637 48.7986Z" fill="#3B2F77"/>
<path d="M20.2094 24.0493C20.4594 24.0136 20.7093 24.0136 20.9593 24.0493C26.4947 23.8708 30.8872 19.3354 30.8872 13.7643C30.8872 8.05042 26.2804 3.4436 20.5665 3.4436C14.8883 3.4436 10.2815 8.05042 10.2815 13.7643C10.2815 19.3354 14.674 23.8708 20.2094 24.0493Z" fill="#3B2F77"/>
<path d="M20.6082 42.1926C20.6082 45.6567 21.3581 48.9421 22.7152 51.9062C17.6798 52.4419 12.4302 51.3705 8.57328 48.835C2.93081 45.0853 2.93081 38.9786 8.57328 35.2288C12.3944 32.6576 17.7869 31.6219 22.858 32.1933C21.3938 35.1931 20.6082 38.5857 20.6082 42.1926Z" fill="#3B2F77"/>
<path d="M40.4998 52.9763C40.2141 52.9406 39.8927 52.9406 39.5713 52.9763C33.0003 52.762 27.7506 47.3695 27.7506 40.7271C27.7863 33.9419 33.2503 28.4423 40.0713 28.4423C46.8565 28.4423 52.3561 33.9419 52.3561 40.7271C52.3204 47.3695 47.1065 52.762 40.4998 52.9763Z" fill="#49D3D3"/>
<path d="M28.8946 60.3707C23.5021 63.9776 23.5021 69.9057 28.8946 73.4769C35.0371 77.5838 45.1078 77.5838 51.2502 73.4769C56.6427 69.87 56.6427 63.9418 51.2502 60.3707C45.1435 56.2638 35.0728 56.2638 28.8946 60.3707Z" fill="#49D3D3"/>
</svg>
