<svg width="80" height="80" viewBox="0 0 80 80" fill="none" xmlns="http://www.w3.org/2000/svg">
<path fill-rule="evenodd" clip-rule="evenodd" d="M32.0868 27.879C41.6278 27.879 49.3139 35.5655 49.3139 45.1065C49.3139 54.6476 41.6278 62.3341 32.0868 62.3341C22.5457 62.3341 14.8592 54.6476 14.8592 45.1065C14.8592 35.5655 22.5457 27.879 32.0868 27.879ZM25.5736 41.8706C23.7378 37.6573 27.3686 32.3412 31.9377 32.413C34.0597 32.3552 36.161 33.3525 37.506 34.9857C40.196 37.9553 39.2674 43.0481 36.0073 45.2054C40.6584 47.2687 43.1189 52.7854 42.3125 57.6906C36.148 57.7314 28.6331 57.5789 22.4692 57.7043C21.6411 57.7299 21.7224 56.8413 21.733 55.9784C21.6672 51.5595 24.1235 47.0061 28.2585 45.1904C27.0574 44.3882 26.0934 43.2215 25.5736 41.8706Z" fill="#49D3D3"/>
<path fill-rule="evenodd" clip-rule="evenodd" d="M31.9377 32.413C27.3686 32.3412 23.7378 37.6573 25.5736 41.8706C26.0934 43.2215 27.0574 44.3882 28.2585 45.1904C24.1235 47.0061 21.6672 51.5595 21.733 55.9784C21.7224 56.8413 21.6411 57.7299 22.4692 57.7043C28.6331 57.5789 36.148 57.7314 42.3125 57.6906C43.1189 52.7854 40.6584 47.2687 36.0073 45.2054C39.2674 43.0481 40.196 37.9553 37.506 34.9857C36.161 33.3525 34.0597 32.3552 31.9377 32.413ZM32.3442 36.6741C32.2471 36.6639 32.1505 36.6595 32.0552 36.6608C30.6248 36.6805 29.4242 37.9638 29.4029 39.4014C29.2106 41.582 32.0374 42.8002 33.6914 41.6248C35.788 40.368 34.6835 36.7813 32.3442 36.6741ZM37.8473 53.419C37.1727 50.9509 34.916 48.6971 32.2355 48.6546C32.149 48.6532 32.0622 48.6541 31.9749 48.6574C29.2804 48.6814 27.0878 50.9358 26.3834 53.4082C30.2047 53.4296 34.026 53.415 37.8473 53.419Z" fill="white"/>
<path d="M32.0552 36.6608C32.1505 36.6595 32.2471 36.6639 32.3442 36.6741C34.6835 36.7813 35.788 40.368 33.6914 41.6248C32.0374 42.8002 29.2106 41.582 29.4029 39.4014C29.4242 37.9638 30.6248 36.6805 32.0552 36.6608Z" fill="#49D3D3"/>
<path d="M32.2355 48.6546C34.916 48.6971 37.1727 50.9509 37.8473 53.419C34.026 53.415 30.2047 53.4296 26.3834 53.4082C27.0878 50.9358 29.2804 48.6814 31.9749 48.6574C32.0622 48.6541 32.149 48.6532 32.2355 48.6546Z" fill="#49D3D3"/>
<path fill-rule="evenodd" clip-rule="evenodd" d="M14.1269 4.08289C8.66879 4.08289 4.19611 8.55592 4.19611 14.014C4.19611 19.4721 8.66879 23.9448 14.1269 23.9448C15.0559 23.9448 15.9553 23.8122 16.81 23.5702L19.2245 27.624C20.6228 26.5882 21.5192 26.1165 23.0921 25.3442L20.7428 21.3998C22.7736 19.5776 24.0577 16.9377 24.0577 14.014C24.0577 8.55592 19.585 4.08289 14.1269 4.08289ZM49.073 31.5972C50.2038 33.0111 50.7552 33.8416 51.499 35.3851L59.7547 29.3363C61.4448 30.6668 63.5705 31.4653 65.8733 31.4653C71.3314 31.4653 75.8041 26.9926 75.8041 21.5345C75.8041 16.0764 71.3314 11.6034 65.8733 11.6034C60.4152 11.6034 55.9422 16.0764 55.9422 21.5345C55.9422 23.0741 56.2981 24.535 56.9316 25.8395L49.073 31.5972ZM50.6004 56.4403C49.7222 57.9078 49.1009 58.6786 47.8682 60.0031L51.5425 62.776C51.195 63.7841 51.0034 64.8629 51.0034 65.9845C51.0034 71.4426 55.4761 75.9157 60.9342 75.9157C66.3923 75.9157 70.8653 71.4426 70.8653 65.9845C70.8653 60.5264 66.3923 56.0538 60.9342 56.0538C58.2124 56.0538 55.7359 57.1662 53.9366 58.9582L50.6004 56.4403ZM14.1269 8.57233C17.1587 8.57233 19.5682 10.9822 19.5682 14.014C19.5682 17.0458 17.1587 19.4554 14.1269 19.4554C11.0951 19.4554 8.68555 17.0458 8.68555 14.014C8.68555 10.9822 11.0951 8.57233 14.1269 8.57233ZM65.8733 16.0928C68.9051 16.0928 71.3146 18.5027 71.3146 21.5345C71.3146 24.5664 68.9051 26.9759 65.8733 26.9759C62.8415 26.9759 60.4316 24.5664 60.4316 21.5345C60.4316 18.5027 62.8415 16.0928 65.8733 16.0928ZM60.9342 60.5432C63.966 60.5432 66.3759 62.9527 66.3759 65.9845C66.3759 69.0164 63.966 71.4262 60.9342 71.4262C57.9024 71.4262 55.4929 69.0164 55.4929 65.9845C55.4929 62.9527 57.9024 60.5432 60.9342 60.5432Z" fill="#3B2F77"/>
<path fill-rule="evenodd" clip-rule="evenodd" d="M19.2245 27.624C13.8592 31.5834 10.3698 37.9478 10.3698 45.1065C10.3698 57.0739 20.1194 66.8235 32.0868 66.8235C38.2949 66.8235 43.9052 64.199 47.8682 60.0031C49.1009 58.6786 49.7222 57.9078 50.6004 56.4403C52.6306 53.1381 53.8034 49.2559 53.8034 45.1065C53.8034 41.6147 52.972 38.3123 51.499 35.3851C50.7552 33.8416 50.2038 33.0111 49.073 31.5972C45.0895 26.6 38.9536 23.3896 32.0868 23.3896C28.881 23.3896 25.8348 24.0898 23.0921 25.3442C21.5192 26.1165 20.6228 26.5882 19.2245 27.624ZM49.3139 45.1065C49.3139 35.5655 41.6278 27.879 32.0868 27.879C22.5457 27.879 14.8592 35.5655 14.8592 45.1065C14.8592 54.6476 22.5457 62.3341 32.0868 62.3341C41.6278 62.3341 49.3139 54.6476 49.3139 45.1065Z" fill="#49D3D3"/>
</svg>
