<svg width="80" height="80" viewBox="0 0 80 80" fill="none" xmlns="http://www.w3.org/2000/svg">
<path fill-rule="evenodd" clip-rule="evenodd" d="M11.0204 7.40564C8.6139 7.40564 6.66669 9.26918 6.66669 11.5723V69.9056C6.66669 72.2088 8.6139 74.0723 11.0204 74.0723H32.7891V57.4056C32.7891 55.9242 35.6916 50.6155 37.1429 48.1464L35.2381 38.8871L37.1429 27.776L35.2381 18.5168L46.6667 7.40564H11.0204ZM24.0817 49.0723H32.7891V40.739H24.0817V49.0723ZM24.0817 32.4056H32.7891V24.0723H24.0817V32.4056Z" fill="#3B2F77"/>
<path fill-rule="evenodd" clip-rule="evenodd" d="M43.4016 58.111L34.9152 56.7893C35.1465 55.3042 38.8041 50.4231 40.604 48.1682L40.1932 38.5971L43.7843 27.7478L43.3735 18.1767L56.2465 8.77306L72.4237 11.2925C74.7691 11.6578 76.376 13.8215 76.0164 16.1302L66.9092 74.6067C66.5496 76.9155 64.3609 78.4881 62.0155 78.1228L40.7995 74.8186L43.4016 58.111ZM53.189 51.0789L44.7026 49.7572L46.0036 41.4035L54.49 42.7251L53.189 51.0789ZM47.3047 33.0497L55.791 34.3713L57.0921 26.0176L48.6057 24.6959L47.3047 33.0497Z" fill="#49D3D3"/>
</svg>
