<svg width="80" height="80" viewBox="0 0 80 80" fill="none" xmlns="http://www.w3.org/2000/svg">
<path d="M71.1808 28.5945H48.4123V18.5125H32.5518V28.5945H9.78465C8.59525 28.5945 7.6315 29.5582 7.6315 30.7463C7.6315 31.9343 8.59525 32.8981 9.78465 32.8981H32.5518V42.9801H37.8599V46.2479C37.8599 47.4115 38.6252 48.3888 39.676 48.7287C39.7399 49.8188 39.9886 50.5447 40.4562 51.0517C41.2786 51.9434 42.5645 51.9407 44.2147 51.9298C44.6959 51.9298 45.2165 51.9258 45.782 51.9434C46.8518 51.9761 47.4064 52.1637 47.6375 52.2887C47.1277 52.7074 44.9909 53.4061 40.4997 52.9575C38.091 52.7115 34.758 52.5538 33.6705 54.0191C33.3769 54.4147 33.1159 55.0984 33.5373 56.1125C33.8812 56.9416 34.5772 57.378 35.4213 57.6131L29.9786 60.4935L30.0575 60.6403L29.9691 60.6227V74.9906L41.859 77.7949L50.995 72.7668L50.9719 58.74L50.9841 58.4287L50.9719 58.4274V58.4015L50.9393 58.4192L41.2338 56.3435L39.9057 56.0595L38.8047 55.8243L37.4725 56.5311C36.2152 56.4727 35.091 56.3082 34.7947 55.5918C34.5799 55.078 34.7172 54.8904 34.7634 54.8293C34.9918 54.5234 35.9854 53.8628 40.4712 54.3195C44.7082 54.745 47.9977 54.2081 48.8622 52.9493C49.1205 52.5701 49.1586 52.1324 48.9615 51.7463C48.5102 50.8546 47.0068 50.6222 45.8255 50.5855C45.2397 50.5665 44.7 50.5665 44.2093 50.5719C42.8554 50.58 41.8726 50.5828 41.458 50.1288C41.2338 49.8868 41.1033 49.4382 41.0503 48.8007C42.2247 48.5411 43.1055 47.4971 43.1055 46.2438V42.976H48.4137V32.894H71.1822C72.3702 32.894 73.334 31.9302 73.334 30.7422C73.3326 29.5596 72.3689 28.5945 71.1808 28.5945ZM41.2582 76.944L30.5998 74.489V61.4084L41.2582 63.7029V76.944Z" fill="#3B2F77"/>
<path d="M31.0251 24.3763H31.4764V19.7886H31.0251C29.7568 19.7886 28.7306 20.8149 28.7306 22.0831C28.7306 23.3513 29.7568 24.3763 31.0251 24.3763Z" fill="#49D3D3"/>
<path d="M49.1238 19.7859V24.3736H49.5751C50.8447 24.3736 51.8697 23.3473 51.8697 22.0791C51.8697 20.8108 50.8434 19.7845 49.5751 19.7845L49.1238 19.7859Z" fill="#49D3D3"/>
<path d="M41.6392 17.9982L42.0117 17.9941C41.9845 15.7254 42.5051 14.0942 43.6048 13.0068C45.694 10.9433 49.7502 11.0385 53.6719 11.1377C57.7593 11.2369 61.9881 11.3389 64.2609 8.95328C65.536 7.61436 66.0607 5.67597 65.8676 3.03075L64.5138 3.12998C64.6769 5.37149 64.2732 6.97004 63.2795 8.01536C62.0615 9.29175 60.0307 9.69003 57.6642 9.7879C58.1957 9.5106 58.6864 9.17077 59.105 8.71812C60.3706 7.34929 60.8817 5.26546 60.6669 2.34973L59.3103 2.44896C59.4965 4.96913 59.101 6.71857 58.1046 7.79651C56.6039 9.41817 53.8227 9.43448 50.8758 9.45079C47.6718 9.46982 44.3578 9.48885 42.2604 11.623C40.8889 13.0176 40.2432 15.1178 40.2785 18.0417L41.6378 18.024C41.6365 18.0145 41.6392 18.0077 41.6392 17.9982Z" fill="#49D3D3"/>
</svg>
