<svg width="80" height="80" viewBox="0 0 80 80" fill="none" xmlns="http://www.w3.org/2000/svg">
<path fill-rule="evenodd" clip-rule="evenodd" d="M71.6144 36.9678C73.2233 37.0074 74.7521 37.6785 75.8703 38.8359C76.9742 39.9573 77.6225 41.4486 77.6895 43.0208C77.7566 44.5929 77.2375 46.134 76.233 47.3453L62.4663 63.986C58.4285 68.8792 52.9274 72.3479 46.7718 73.8823C40.6161 75.4167 34.1305 74.9359 28.2685 72.5105L26.3795 71.7396H20.2592C20.2593 72.5413 19.9409 73.3101 19.3741 73.877C18.8073 74.4439 18.0385 74.7624 17.2369 74.7625H11.1922C10.3906 74.7624 9.62178 74.4439 9.05499 73.877C8.48819 73.3101 8.1698 72.5413 8.16986 71.7396V47.5569C8.16983 47.1599 8.24797 46.7669 8.39984 46.4001C8.55171 46.0334 8.77432 45.7002 9.05497 45.4195C9.33562 45.1388 9.66881 44.9161 10.0355 44.7642C10.4022 44.6123 10.7953 44.534 11.1922 44.534H17.2369C17.6338 44.534 18.0269 44.6123 18.3936 44.7642C18.7603 44.9161 19.0935 45.1388 19.3741 45.4195C19.6548 45.7002 19.8774 46.0334 20.0292 46.4001C20.1811 46.7669 20.2593 47.1599 20.2592 47.5569H48.4275C49.7625 47.5942 51.0325 48.1413 51.9768 49.0857C52.921 50.0301 53.4679 51.3002 53.505 52.6352C53.502 53.6689 53.1855 54.6774 52.5974 55.5274C52.0092 56.3775 51.177 57.0291 50.2107 57.3962L40.4334 61.069C40.2475 61.1367 40.0771 61.2408 39.932 61.3753C39.7869 61.5098 39.6701 61.6719 39.5885 61.852C39.5068 62.0322 39.462 62.2269 39.4566 62.4246C39.4512 62.6224 39.4853 62.8192 39.557 63.0036C39.6987 63.3757 39.9805 63.6775 40.3421 63.8442C40.7037 64.0109 41.1163 64.0293 41.4912 63.8954L51.2686 60.2226C52.8097 59.6383 54.1374 58.6002 55.0763 57.2456C56.0152 55.891 56.5212 54.2834 56.5274 52.6352C56.53 51.3571 56.2241 50.0972 55.6358 48.9625L67.2718 38.6243C68.4456 37.5233 70.0055 36.9282 71.6144 36.9678ZM20.2592 68.7168H24.7927V50.5797H20.2592V68.7168Z" fill="#3B2F77"/>
<path fill-rule="evenodd" clip-rule="evenodd" d="M51.1216 5.23699C48.1399 5.22897 45.2463 6.24736 42.9268 8.12108C40.6073 6.24736 37.7137 5.22897 34.7319 5.23699C31.2546 5.24567 27.9227 6.63327 25.467 9.09538C23.0114 11.5575 21.6327 14.8931 21.6332 18.3704C21.6332 32.1887 41.327 43.8388 42.1653 44.3288C42.3966 44.4632 42.6593 44.534 42.9268 44.534C43.1943 44.534 43.457 44.4632 43.6883 44.3288C44.5265 43.8388 64.2204 32.1887 64.2204 18.3704C64.2209 14.8931 62.8422 11.5575 60.3865 9.09537C57.9309 6.63326 54.599 5.24567 51.1216 5.23699ZM47.4606 33.7727C47.8181 33.7823 48.167 33.6627 48.4434 33.4358C52.8839 29.6307 58.1758 23.9304 58.1758 18.3704C58.1782 16.4957 57.4369 14.6966 56.1144 13.3678C54.7919 12.039 52.9964 11.2892 51.1216 11.2827C50.7208 11.2827 50.3364 11.4419 50.0529 11.7254C49.7695 12.0088 49.6102 12.3933 49.6102 12.7941C49.6102 13.195 49.7695 13.5794 50.0529 13.8628C50.3364 14.1463 50.7208 14.3055 51.1216 14.3055C52.195 14.3111 53.2222 14.7423 53.9781 15.5043C54.7339 16.2664 55.1566 17.2971 55.1535 18.3704C55.1535 21.811 52.0721 26.3467 46.4775 31.1393C46.249 31.3408 46.087 31.6069 46.013 31.9024C45.9389 32.1979 45.9563 32.5089 46.0629 32.7943C46.1694 33.0797 46.3601 33.3261 46.6097 33.5007C46.8593 33.6754 47.156 33.7703 47.4606 33.7727Z" fill="#49D3D3"/>
<path d="M48.4434 33.4358C48.167 33.6627 47.8181 33.7823 47.4606 33.7727C47.156 33.7703 46.8593 33.6754 46.6097 33.5007C46.3601 33.3261 46.1694 33.0797 46.0629 32.7943C45.9563 32.5089 45.9389 32.1979 46.013 31.9024C46.087 31.6069 46.249 31.3408 46.4775 31.1393C52.0721 26.3467 55.1535 21.811 55.1535 18.3704C55.1566 17.2971 54.7339 16.2664 53.9781 15.5043C53.2222 14.7423 52.195 14.3111 51.1216 14.3055C50.7208 14.3055 50.3364 14.1463 50.0529 13.8628C49.7695 13.5794 49.6102 13.195 49.6102 12.7941C49.6102 12.3933 49.7695 12.0088 50.0529 11.7254C50.3364 11.4419 50.7208 11.2827 51.1216 11.2827C52.9964 11.2892 54.7919 12.039 56.1144 13.3678C57.4369 14.6966 58.1782 16.4957 58.1758 18.3704C58.1758 23.9304 52.8839 29.6307 48.4434 33.4358Z" fill="#49D3D3"/>
</svg>
