<svg width="150" height="190" viewBox="0 0 150 190" fill="none" xmlns="http://www.w3.org/2000/svg">
<path fill-rule="evenodd" clip-rule="evenodd" d="M9.375 54C9.375 50.6863 12.0613 48 15.375 48H134.625C137.939 48 140.625 50.6863 140.625 54V130.031H9.375V54Z" fill="#3B2F77"/>
<path d="M135.938 52.6875H14.0625V125.344H135.938V52.6875Z" fill="#F8F8F8"/>
<path fill-rule="evenodd" clip-rule="evenodd" d="M0 130.031H150V135.891C150 139.127 147.396 141.75 144.12 141.75H5.88018C2.63265 141.75 0 139.149 0 135.891V130.031Z" fill="#3E367F"/>
<path d="M26 71.9375C26 69.7284 27.7909 67.9375 30 67.9375H37C39.2091 67.9375 41 69.7284 41 71.9375V125.938H26V71.9375Z" fill="#3E367F"/>
<path d="M47 83.9375C47 81.7284 48.7909 79.9375 51 79.9375H58C60.2091 79.9375 62 81.7284 62 83.9375V125.938H47V83.9375Z" fill="#00F3BA"/>
<path d="M67 95.9375C67 93.7284 68.7909 91.9375 71 91.9375H78C80.2091 91.9375 82 93.7284 82 95.9375V125.938H67V95.9375Z" fill="#3E367F"/>
<path d="M88 107.938C88 105.728 89.7909 103.938 92 103.938H99C101.209 103.938 103 105.728 103 107.938V125.938H88V107.938Z" fill="#00F3BA"/>
<path d="M108 119.937C108 117.728 109.791 115.938 112 115.938H119C121.209 115.938 123 117.728 123 119.938V125.938H108V119.937Z" fill="#3E367F"/>
</svg>
