<svg width="150" height="190" viewBox="0 0 150 190" fill="none" xmlns="http://www.w3.org/2000/svg">
<path d="M133.044 145.617C140.644 137.067 144.919 125.351 144.127 112.684C143.019 97.1672 133.677 83.7089 120.536 76.7422C120.536 78.0089 120.536 79.2756 120.536 80.7006C119.269 110.626 94.7272 135.959 64.6439 138.334C63.5355 138.334 62.4272 138.492 61.3188 138.492C68.6022 150.684 81.4272 159.234 96.1522 160.342C102.327 160.659 108.344 160.026 114.044 158.126C116.894 157.176 128.136 162.559 134.469 165.884C136.052 166.676 137.952 165.092 137.161 163.351C134.786 157.334 131.619 147.359 133.044 145.617Z" fill="#49D3D3"/>
<path d="M114.519 80.3839C113.252 107.617 91.2439 130.259 64.1689 132.317C56.5689 132.792 49.1272 131.842 42.1606 129.626C38.5189 128.359 24.9022 135.167 16.9856 139.284C15.0856 140.234 12.7106 138.334 13.6606 136.117C16.5106 128.517 20.6272 116.167 18.7272 114.109C9.38557 103.501 4.16057 89.2505 5.11057 73.5756C7.01057 46.3422 29.8106 24.1756 57.0439 23.0672C89.3439 21.4839 115.944 48.0839 114.519 80.3839Z" fill="#3B2F77"/>
<path d="M61.0022 90.3589H56.7272C55.4605 90.3589 54.3522 89.2505 54.3522 87.9839C54.3522 85.1339 54.8272 82.7589 55.7772 80.8589C56.7272 78.9589 58.6272 76.9005 61.4772 74.6839C64.3272 72.3089 66.0689 70.8839 66.5439 70.0922C67.3355 68.9839 67.8105 67.7172 67.8105 66.2922C67.8105 64.3922 67.0189 62.8089 65.5939 61.3839C64.0105 59.9589 62.1105 59.3255 59.4189 59.3255C56.8855 59.3255 54.8272 59.9589 53.2439 61.3839C52.2939 62.1755 51.5022 63.2839 50.8689 64.5505C50.0772 66.4505 48.1772 67.5589 46.1189 67.4005C42.9522 66.9255 41.0522 63.4422 42.6355 60.5922C43.4272 59.0089 44.6939 57.5839 46.1189 56.1589C49.4439 53.3089 53.7188 51.8839 58.9438 51.8839C64.4855 51.8839 68.9189 53.3089 72.2439 56.3172C75.5689 59.1672 77.1522 62.6505 77.1522 66.4505C77.1522 68.6672 76.5189 70.5672 75.4105 72.4672C74.3022 74.3672 71.6105 77.0589 67.6522 80.2255C65.5938 81.9672 64.3272 83.2339 63.8522 84.3422C63.5355 85.1339 63.2189 86.2422 63.2189 87.8255C63.2189 89.4089 62.2689 90.3589 61.0022 90.3589ZM54.5105 98.7505V98.2755C54.5105 95.7422 56.5689 93.6839 59.1022 93.6839H59.5772C62.1105 93.6839 64.1689 95.7422 64.1689 98.2755V98.7505C64.1689 101.284 62.1105 103.342 59.5772 103.342H59.1022C56.5689 103.342 54.5105 101.284 54.5105 98.7505Z" fill="white"/>
</svg>
