<svg width="150" height="190" viewBox="0 0 150 190" fill="none" xmlns="http://www.w3.org/2000/svg">
<path opacity="0.5" d="M20 79.8776C27.6623 79.8769 33.8735 73.6639 33.8735 66C33.8735 73.6646 40.0856 79.8776 47.7485 79.8776C55.4114 79.8776 61.6235 73.6646 61.6235 66C61.6235 73.6646 67.8354 79.8776 75.4986 79.8776C83.1618 79.8776 89.3736 73.6646 89.3736 66C89.3736 73.6646 95.5854 79.8776 103.249 79.8776C110.912 79.8776 117.124 73.6646 117.124 66C117.124 73.6646 123.335 79.8776 130.999 79.8776L131 156H20V79.8776Z" fill="#F8F8F8"/>
<path d="M81 156V126.095C81 119.331 81 115.948 82.4871 113.429C83.4613 111.778 84.8628 110.407 86.55 109.455C89.1259 108 92.584 108 99.5 108C106.416 108 109.874 108 112.45 109.455C114.137 110.407 115.539 111.778 116.513 113.429C118 115.948 118 119.331 118 126.095V156H81Z" fill="#3B2F77"/>
<path d="M92.4419 156H57.5581H19.186H5.23256C2.34272 156 0 158.463 0 161.5C0 164.537 2.34272 167 5.23256 167H144.767C147.657 167 150 164.537 150 161.5C150 158.463 147.657 156 144.767 156H130.814H92.4419Z" fill="#49D3D3"/>
<path d="M105.625 23H42.3745C33.9732 23 29.7725 23 26.3968 25.0577C23.0211 27.1154 21.1424 30.821 17.3853 38.2323L7.58145 62.6751C5.31638 68.3223 3.33462 74.9784 7.14742 79.7472C9.70536 82.9464 13.6704 85 18.1221 85C25.8371 85 32.0914 78.8317 32.0914 71.2222C32.0914 78.8317 38.3458 85 46.0608 85C53.7759 85 60.0302 78.8317 60.0302 71.2222C60.0302 78.8317 66.2845 85 73.9998 85C81.7151 85 87.9692 78.8317 87.9692 71.2222C87.9692 78.8317 94.2233 85 101.939 85C109.654 85 115.908 78.8317 115.908 71.2222C115.908 78.8317 122.162 85 129.877 85C134.329 85 138.294 82.9464 140.852 79.7472C144.665 74.9784 142.684 68.3223 140.419 62.6751L130.615 38.2323C126.857 30.821 124.979 27.1154 121.603 25.0577C118.228 23 114.027 23 105.625 23Z" fill="#3B2F77"/>
<rect x="34" y="108" width="30" height="25" rx="4" fill="#49D3D3" fill-opacity="0.51"/>
</svg>
