<svg width="150" height="190" viewBox="0 0 150 190" fill="none" xmlns="http://www.w3.org/2000/svg">
<g clip-path="url(#clip0_2_1304)">
<path fill-rule="evenodd" clip-rule="evenodd" d="M63.1243 19.834C60.9383 19.8342 59.1662 21.6063 59.166 23.7923V39.6257C59.1662 41.8117 60.9383 43.5837 63.1243 43.584H102.708C104.894 43.5837 106.666 41.8117 106.666 39.6257V23.7923C106.666 21.6063 104.894 19.8342 102.708 19.834H63.1243ZM67.0827 27.7507H98.7493V35.6673H67.0827V27.7507Z" fill="#808B9B"/>
<path d="M150.208 67.292H15.625V126.667H150.208V67.292Z" fill="#F8F8F8"/>
<path fill-rule="evenodd" clip-rule="evenodd" d="M57.1862 150.417H106.665C111.038 150.417 114.582 153.961 114.582 158.334C114.582 162.706 111.038 166.25 106.665 166.25H57.1862C52.8139 166.25 49.2695 162.706 49.2695 158.334C49.2695 153.961 52.8139 150.417 57.1862 150.417Z" fill="#E7E7E7"/>
<path fill-rule="evenodd" clip-rule="evenodd" d="M57.1863 150.549C52.8583 150.549 49.3481 154.023 49.2773 158.334H95.2388C99.5668 158.334 103.077 154.86 103.148 150.549H57.1863Z" fill="#F8F8F8"/>
<path fill-rule="evenodd" clip-rule="evenodd" d="M57.1862 118.75H106.665C111.038 118.75 114.582 122.294 114.582 126.667C114.582 131.039 111.038 134.583 106.665 134.583H57.1862C52.8139 134.583 49.2695 131.039 49.2695 126.667C49.2695 122.294 52.8139 118.75 57.1862 118.75Z" fill="#E7E7E7"/>
<path fill-rule="evenodd" clip-rule="evenodd" d="M57.1863 118.75C52.8583 118.75 49.3481 122.224 49.2773 126.535H95.2388C99.5668 126.535 103.077 123.061 103.148 118.75H57.1863Z" fill="#F8F8F8"/>
<path fill-rule="evenodd" clip-rule="evenodd" d="M57.1862 134.584H106.665C111.038 134.584 114.582 138.128 114.582 142.501C114.582 146.873 111.038 150.417 106.665 150.417H57.1862C52.8139 150.417 49.2695 146.873 49.2695 142.501C49.2695 138.128 52.8139 134.584 57.1862 134.584Z" fill="#E7E7E7"/>
<path fill-rule="evenodd" clip-rule="evenodd" d="M57.1863 134.715C52.8583 134.715 49.3481 138.189 49.2773 142.5H95.2388C99.5668 142.5 103.077 139.026 103.148 134.715H57.1863Z" fill="#F8F8F8"/>
<path fill-rule="evenodd" clip-rule="evenodd" d="M15.625 35.625H150.208V71.25C150.208 74.3994 148.957 77.4199 146.73 79.6468C144.503 81.8738 141.483 83.1249 138.333 83.1249H27.4999C24.3505 83.1249 21.33 81.8738 19.103 79.6468C16.8761 77.4199 15.625 74.3994 15.625 71.25V35.625Z" fill="#49D3D3"/>
<path d="M90.8333 71.25H75V98.9583H90.8333V71.25Z" fill="#3B2F77"/>
<path fill-rule="evenodd" clip-rule="evenodd" d="M63.1243 138.542C63.1243 156.031 48.9467 170.208 31.4577 170.208C13.9687 170.208 -0.208984 156.031 -0.208984 138.542C-0.208984 121.053 13.9687 106.875 31.4577 106.875C48.9467 106.875 63.1243 121.053 63.1243 138.542Z" fill="#3B2F77"/>
<path fill-rule="evenodd" clip-rule="evenodd" d="M31.4581 113.439C30.4025 113.439 29.3899 113.854 28.6432 114.592C27.8966 115.329 27.4769 116.331 27.4766 117.375V120.885C23.0959 122.449 19.8691 126.505 19.8691 131.329C19.8691 137.53 25.1961 142.478 31.4581 142.478C33.5984 142.478 35.084 143.996 35.084 145.756C35.0839 147.515 33.5984 149.018 31.4581 149.018C29.3178 149.018 27.8322 147.515 27.8322 145.756C27.8331 145.238 27.7306 144.725 27.5309 144.247C27.3312 143.768 27.0381 143.334 26.6682 142.967C26.2984 142.601 25.8592 142.311 25.3758 142.113C24.8923 141.914 24.374 141.812 23.8507 141.813C23.3273 141.813 22.8091 141.914 22.3256 142.113C21.8421 142.311 21.4029 142.601 21.0331 142.967C20.6633 143.334 20.3701 143.768 20.1704 144.247C19.9707 144.725 19.8683 145.238 19.8691 145.756C19.8691 150.58 23.0959 154.635 27.4766 156.2V159.71C27.4769 160.754 27.8966 161.755 28.6433 162.493C29.39 163.231 30.4025 163.646 31.4581 163.645C32.5124 163.644 33.5229 163.228 34.2679 162.491C35.0129 161.753 35.4315 160.753 35.4319 159.71V156.208C39.8156 154.646 43.0393 150.583 43.0393 145.756C43.0393 139.554 37.7201 134.607 31.4581 134.607C29.3178 134.607 27.8322 133.089 27.8322 131.329C27.8322 129.569 29.3177 128.067 31.4581 128.067C33.5984 128.067 35.084 129.569 35.084 131.329C35.0831 131.847 35.1855 132.36 35.3853 132.838C35.585 133.316 35.8781 133.751 36.2479 134.117C36.6178 134.484 37.057 134.774 37.5404 134.972C38.0239 135.17 38.5422 135.272 39.0655 135.272C40.1212 135.27 41.1328 134.854 41.8781 134.115C42.6233 133.375 43.041 132.373 43.0393 131.329C43.0393 126.501 39.8156 122.439 35.4319 120.877V117.375C35.4315 116.332 35.0129 115.332 34.2679 114.594C33.5229 113.856 32.5124 113.441 31.4581 113.439Z" fill="white"/>
</g>
<defs>
<clipPath id="clip0_2_1304">
<rect width="150" height="190" fill="white"/>
</clipPath>
</defs>
</svg>
