<svg width="223" height="259" viewBox="0 0 223 259" fill="none" xmlns="http://www.w3.org/2000/svg">
<path d="M112.102 216.324C130.047 210.77 145.032 199.803 157.057 183.422C169.082 167.041 176.112 148.757 178.147 128.569H112.102V216.324Z" fill="#49D3D3"/>
<path d="M112.102 128.569V41.0916L45.5019 66.0852V123.57C45.5019 124.866 45.6869 126.533 46.0569 128.569H112.102Z" fill="#49D3D3"/>
<path fill-rule="evenodd" clip-rule="evenodd" d="M108.494 238.263C109.604 238.448 110.807 238.541 112.102 238.541C113.397 238.541 114.599 238.448 115.709 238.263C116.819 238.078 117.929 237.8 119.039 237.43C144.014 229.106 163.902 213.696 178.702 191.198C193.502 168.7 200.902 144.491 200.902 118.572V66.0852C200.909 61.4568 199.57 57.2912 196.884 53.5884C194.198 49.8857 190.727 47.2012 186.472 45.535L119.872 20.5414C117.282 19.6157 114.692 19.1528 112.102 19.1528C109.512 19.1528 106.922 19.6157 104.332 20.5414L37.7319 45.535C33.4843 47.2012 30.0174 49.8857 27.3312 53.5884C24.645 57.2912 23.3019 61.4568 23.3019 66.0852V118.572C23.3019 144.498 30.7019 168.707 45.5019 191.198C60.3019 213.688 80.1894 229.099 105.164 237.43C106.274 237.8 107.384 238.078 108.494 238.263ZM112.102 216.324C130.047 210.77 145.032 199.803 157.057 183.422C169.082 167.041 176.112 148.757 178.147 128.569L178.702 66.0852L112.102 41.0916L45.5019 66.0852V123.57C45.5019 124.866 45.6869 126.533 46.0569 128.569C53.187 177.429 67.051 197.045 112.102 216.324Z" fill="#241A56"/>
</svg>
