<svg width="222" height="259" viewBox="0 0 222 259" fill="none" xmlns="http://www.w3.org/2000/svg">
<path fill-rule="evenodd" clip-rule="evenodd" d="M110.941 71.2426C90.7687 71.2565 73.5508 78.3953 59.2871 92.659C45.0094 106.937 37.8706 124.174 37.8706 144.372C37.8706 164.57 45.0094 181.807 59.2871 196.085C73.5647 210.363 90.8024 217.501 111 217.501C131.198 217.501 148.435 210.363 162.713 196.085C176.991 181.807 184.129 164.57 184.129 144.372C184.129 124.174 176.991 106.937 162.713 92.659C148.435 78.3814 131.198 71.2426 111 71.2426C110.98 71.2426 110.961 71.2426 110.941 71.2426ZM74.5711 230.957C85.9723 235.916 98.1153 238.395 111 238.395C123.885 238.409 136.028 235.93 147.429 230.957C158.83 225.984 168.8 219.236 177.339 210.711C185.878 202.186 192.626 192.219 197.585 180.811C202.544 169.403 205.024 157.257 205.024 144.372C205.024 133.577 203.282 123.217 199.8 113.292C196.318 103.367 191.268 94.052 184.652 85.3461L199.278 70.7202L184.652 56.0944L170.026 70.7202C161.32 64.1038 152.005 59.0544 142.08 55.572C132.155 52.0897 121.795 50.3485 111 50.3485C98.1292 50.3485 85.9863 52.8314 74.5711 57.7972C63.156 62.7631 53.186 69.5084 44.6612 78.0332C36.1364 86.558 29.3911 96.5245 24.4252 107.933C19.4594 119.341 16.9765 131.487 16.9765 144.372C16.9904 157.257 19.4733 169.4 24.4252 180.801C29.3771 192.202 36.1224 202.172 44.6612 210.711C53.1999 219.249 63.1699 225.998 74.5711 230.957ZM79.6588 19.0073V39.9014H142.341V19.0073H79.6588Z" fill="#241A56"/>
<path d="M69.2118 133.925H38.6541C41.2659 116.165 49.3624 101.278 62.9435 89.2637C76.5102 77.2625 92.5093 71.2554 110.941 71.2426C90.7687 71.2565 73.5508 78.3953 59.2871 92.659C45.0094 106.937 37.8706 124.174 37.8706 144.372C37.8706 164.57 45.0094 181.807 59.2871 196.085C73.5647 210.363 90.8024 217.501 111 217.501C92.5435 217.501 76.5247 211.494 62.9435 199.48C49.3624 187.466 41.2659 172.579 38.6541 154.819H62.6824L80.7035 190.861C82.6188 194.866 85.7529 196.868 90.1059 196.868C94.4588 196.868 97.5929 194.866 99.5082 190.861L131.894 126.09L143.386 149.073C144.256 150.995 145.562 152.434 147.304 153.388C149.045 154.342 150.873 154.819 152.788 154.819H183.346C180.734 172.579 172.638 187.466 159.056 199.48C145.475 211.494 129.456 217.501 111 217.501C131.198 217.501 148.435 210.363 162.713 196.085C176.991 181.807 184.129 164.57 184.129 144.372C184.129 124.174 176.991 106.937 162.713 92.659C148.435 78.3814 131.198 71.2426 111 71.2426C129.456 71.2426 145.475 77.2496 159.056 89.2637C172.638 101.278 180.734 116.165 183.346 133.925H159.318L141.296 97.8826C139.381 93.8779 136.247 91.8755 131.894 91.8755C127.541 91.8755 124.407 93.8779 122.492 97.8826L90.1059 162.654L78.6141 139.671C77.7435 137.762 76.4376 136.328 74.6965 135.367C72.9553 134.405 71.1271 133.925 69.2118 133.925Z" fill="#49D3D3"/>
</svg>
