<svg width="225" height="259" viewBox="0 0 225 259" fill="none" xmlns="http://www.w3.org/2000/svg">
<path fill-rule="evenodd" clip-rule="evenodd" d="M224.208 67.5288V81.011H59.8471V67.5288C59.8471 62.1036 62.0092 56.9006 65.8578 53.0644C69.7064 49.2282 74.9262 47.073 80.3689 47.073H105.461L107.98 31.8242C108.645 27.7925 110.727 24.1283 113.855 21.4876C116.983 18.847 120.951 17.4022 125.05 17.4121H158.911C163.026 17.38 167.017 18.8147 170.164 21.4573C173.312 24.1 175.408 27.7767 176.075 31.8242L178.594 47.073H203.686C209.129 47.073 214.349 49.2282 218.197 53.0644C222.046 56.9006 224.208 62.1036 224.208 67.5288ZM122.733 32.5723C122.134 33.0665 121.732 33.7574 121.599 34.5206L119.547 47.5379H164.322L162.176 34.5206C162.043 33.7574 161.641 33.0665 161.043 32.5723C160.444 32.078 159.688 31.8127 158.911 31.8242H124.864C124.087 31.8127 123.331 32.078 122.733 32.5723ZM149.024 108.533V94.9582H224.208V139.217C224.208 144.642 222.046 149.845 218.197 153.681C214.349 157.518 209.129 159.673 203.686 159.673H80.3689C77.6739 159.673 75.0054 159.144 72.5155 158.116C70.0257 157.088 67.7634 155.581 65.8578 153.681C63.9522 151.782 62.4406 149.527 61.4092 147.045C60.3779 144.563 59.8471 141.903 59.8471 139.217V94.9582H135.031V108.533C135.031 110.383 135.769 112.157 137.081 113.464C138.393 114.772 140.172 115.507 142.027 115.507C143.883 115.507 145.662 114.772 146.974 113.464C148.286 112.157 149.024 110.383 149.024 108.533Z" fill="#241A56"/>
<path d="M160.684 193.053L132.699 202.351C132.336 202.331 131.975 202.417 131.66 202.598C131.345 202.78 131.09 203.05 130.927 203.374C129.638 206.161 127.572 208.52 124.975 210.168C122.379 211.817 119.361 212.686 116.282 212.672H84.2867C83.2229 212.672 82.2026 212.251 81.4504 211.501C80.6982 210.751 80.2756 209.734 80.2756 208.674C80.2756 207.613 80.6982 206.596 81.4504 205.847C82.2026 205.097 83.2229 204.676 84.2867 204.676H116.375C118.503 204.676 120.543 203.833 122.048 202.333C123.552 200.834 124.397 198.8 124.397 196.679C124.397 194.558 123.552 192.525 122.048 191.025C120.543 189.525 118.503 188.683 116.375 188.683H88.391C79.1405 181.626 67.94 177.569 56.3024 177.06H39.9783C34.9874 177.084 30.0702 178.262 25.6131 180.501L1.45334 192.495C1.15525 192.652 0.89855 192.877 0.704063 193.152C0.509576 193.427 0.382782 193.743 0.333968 194.076V237.126C0.324843 237.486 0.415864 237.842 0.59696 238.154C0.778055 238.465 1.04216 238.721 1.36006 238.893C1.67203 239.072 2.02591 239.167 2.38615 239.167C2.74638 239.167 3.10026 239.072 3.41223 238.893L29.1577 222.9C30.1695 222.25 31.3124 221.83 32.5053 221.669C33.6982 221.508 34.9119 221.611 36.0605 221.97C115.909 248.841 89.2306 248.934 179.247 203.374C179.869 203.07 180.405 202.614 180.803 202.048C181.201 201.483 181.449 200.826 181.523 200.139C181.598 199.452 181.497 198.757 181.229 198.12C180.961 197.482 180.536 196.923 179.993 196.493C177.331 194.336 174.162 192.888 170.784 192.286C167.407 191.684 163.931 191.948 160.684 193.053Z" fill="#49D3D3"/>
</svg>
